<svg xmlns:rdf="http://www.w3.org/1999/02/22-rdf-syntax-ns#" xmlns="http://www.w3.org/2000/svg" height="1052" width="744.1" version="1.1" enable-background="new" xmlns:cc="http://creativecommons.org/ns#" xmlns:dc="http://purl.org/dc/elements/1.1/">
<g>
<g>
<path stroke-linejoin="round" d="m-8.66-5 8.66 5v20l-8.66-5z" stroke="#000" stroke-width="2" fill="#fff"/><path stroke-linejoin="round" d="m-2.176 8.665c0 .4444-.1339.7802-.3635.9913-.3882.3570-3.814 2.451-3.814 2.451l-3.522-4.588 3.487-1.994s1.099-.8269 2.048-.2788c1.196.6904 2.165 2.219 2.165 3.415z" stroke-opacity=".9727" stroke="#000" fill="#ccc"/><ellipse stroke-linejoin="round" stroke-opacity=".9727" rx="2.5" ry="2.165" stroke="#000" transform="matrix(.8660 0.5 0 1 0 0)" cy="14.52" cx="-9.336" stroke-width="1.075" fill="#ccc"/><path stroke-linejoin="round" d="m0 0 173.2 100v20l-173.2-100z" stroke="#000" stroke-width="2" fill="#fff"/><path stroke-linejoin="round" d="m173.2 100 8.66 5v20l-8.66-5z" stroke="#000" stroke-width="2" fill="#fff"/><path stroke-linejoin="round" d="m179.7 113.8c0 .4444-.1339.7802-.3635.9913-.3882.3571-3.814 2.451-3.814 2.451l-3.522-4.585 3.487-1.994s1.099-.8269 2.048-.2788c1.196.6904 2.165 2.219 2.165 3.415z" stroke-opacity=".9727" stroke="#000" fill="#ccc"/><ellipse stroke-linejoin="round" stroke-opacity=".9727" rx="2.5" transform="matrix(.8660 0.5 0 1 0 0)" stroke="#000" ry="2.165" cy="14.71" cx="200.6" stroke-width="1.075" fill="#ccc"/><path d="m42.24 31.56-40.06-23.31v12.7l40.06 23.31v-12.7" stroke="#000" stroke-width=".8469px" fill="#e6e6e6"/><path d="m2.335 20.78 10.66-6.06" stroke="#000" stroke-width=".8469px" fill="none"/><path d="m84.72 56.06-40.06-23.31v12.7l40.06 23.31v-12.7" stroke="#000" stroke-width=".8469px" fill="#e6e6e6"/><path d="m127.2 80.56-40.06-23.31v12.7l40.06 23.31v-12.7" stroke="#000" stroke-width=".8469px" fill="#e6e6e6"/><path d="m169.7 105.1-40.06-23.31v12.7l40.06 23.31v-12.7" stroke="#000" stroke-width=".8469px" fill="#e6e6e6"/><path d="m44.84 45.28 10.65-6.06" stroke="#000" stroke-width=".8469px" fill="none"/><path d="m87.54 69.79 10.65-6.054" stroke="#000" stroke-width=".8469px" fill="none"/><path d="m130 94.29 10.65-6.054" stroke="#000" stroke-width=".8469px" fill="none"/><ellipse stroke-linejoin="round" rx=".8462" ry=".6828" stroke="#b3b3b3" transform="matrix(.8069 .5907 0 1 0 0)" cy="-7.543" cx="88.18" stroke-width="1.148" fill="#b3b3b3"/><path d="m65.23 40.11-5.462-3.119.0331 2.093 5.462 3.119-.0331-2.093" stroke="#808080" stroke-width="1px" fill="#fff"/><text style="word-spacing:0px;letter-spacing:0px" transform="matrix(1 .5774 0 1 0 0)" line-height="125%" xml:space="preserve" font-size="3.254px" y="5.2723293" x="98.756844" font-family="Sans" fill="#000000"><tspan y="5.2723293" x="98.756844">NETGEAR</tspan></text><ellipse stroke-linejoin="round" rx=".8462" transform="matrix(.8069 .5907 0 1 0 0)" stroke="#b3b3b3" ry=".6828" cy="-7.953" cx="92.82" stroke-width="1.148" fill="#b3b3b3"/><ellipse stroke-linejoin="round" rx=".8462" transform="matrix(.8069 .5907 0 1 0 0)" stroke="#b3b3b3" ry=".6828" cy="-8.363" cx="97.47" stroke-width="1.148" fill="#b3b3b3"/><ellipse stroke-linejoin="round" rx=".8462" ry=".6828" stroke="#b3b3b3" transform="matrix(.8069 .5907 0 1 0 0)" cy="-8.773" cx="102.1" stroke-width="1.148" fill="#b3b3b3"/><ellipse stroke-linejoin="round" rx=".8462" transform="matrix(.8069 .5907 0 1 0 0)" stroke="#d45500" ry=".6828" cy="-9.89" cx="106.8" stroke-width="1.148" fill="#d45500"/><ellipse stroke-linejoin="round" rx=".8462" ry=".6828" stroke="#d45500" transform="matrix(.8069 .5907 0 1 0 0)" cy="-11" cx="115.1" stroke-width="1.148" fill="#d45500"/><path d="m54.93 38.63.1240-6.882" stroke="#000" stroke-width="1.056px" fill="none"/><path d="m118.2 75.02.125-6.125" stroke="#000" stroke-width="1px" fill="none"/><path d="m169.6 105.1-40.06-23.31v12.7l40.06 23.31v-12.7" stroke="#000" stroke-linecap="round" stroke-width=".8469px" fill="#b3b3b3"/><path d="m159.7 99.45c1.251 4.909 2.583 9.864-.0625 12.5" stroke="#000" stroke-width="1px" fill="none"/><path d="m163.2 101.4c1.251 4.909 1.876 9.555-.7696 12.19" stroke="#000" stroke-width="1px" fill="none"/><ellipse stroke-linejoin="round" rx=".5520" ry=".4426" stroke="#ff0" transform="matrix(.8096 .5870 0 1 0 0)" cy="-14.36" cx="206.7" stroke-width=".7467" fill="#ff0"/><ellipse stroke-linejoin="round" rx=".5520" transform="matrix(.8096 .5870 0 1 0 0)" stroke="#0f0" ry=".4426" cy="-7.824" cx="206.7" stroke-width=".7467" fill="#0f0"/><path d="m161.6 102c.9674 4.016 1.732 7.54-.3136 9.696" stroke="#808080" stroke-linecap="round" fill="none"/><path d="m136.2 95.67 12.55 7.248c5.744 3.317 11.72 4.364-10.56-12.99-4.201-3.273-5.039 3.984-1.989 5.745z" fill-rule="evenodd" stroke="#000" stroke-width="1px" fill="#f9f9f9"/><path d="m134.4 91.43 17.72 10.52" stroke="#000" stroke-linecap="round" stroke-width="1px" fill="none"/><path d="m138.2 90.1v6.629" stroke="#000" stroke-width="1px" fill="none"/><path d="m144.1 94.61-.0442 5.657" stroke="#000" stroke-width="1px" fill="none"/><path d="m169.6 105.1-40.06-23.31v12.7l40.06 23.31v-12.7" stroke="#000" stroke-linecap="round" stroke-width=".8469px" fill="#b3b3b3"/><path d="m159.7 99.45c1.251 4.909 2.583 9.864-.0625 12.5" stroke="#000" stroke-width="1px" fill="none"/><path d="m163.2 101.4c1.251 4.909 1.876 9.555-.7696 12.19" stroke="#000" stroke-width="1px" fill="none"/><ellipse stroke-linejoin="round" rx=".5520" transform="matrix(.8096 .5870 0 1 0 0)" stroke="#ff0" ry=".4426" cy="-14.36" cx="206.7" stroke-width=".7467" fill="#ff0"/><ellipse stroke-linejoin="round" rx=".5520" ry=".4426" stroke="#0f0" transform="matrix(.8096 .5870 0 1 0 0)" cy="-7.824" cx="206.7" stroke-width=".7467" fill="#0f0"/><path d="m161.6 102c.9674 4.016 1.732 7.54-.3136 9.696" stroke="#808080" stroke-linecap="round" fill="none"/><path d="m136.2 95.67 12.55 7.248c5.744 3.317 11.72 4.364-10.56-12.99-4.201-3.273-5.039 3.984-1.989 5.745z" fill-rule="evenodd" stroke="#000" stroke-width="1px" fill="#f9f9f9"/><path d="m134.4 91.43 17.72 10.52" stroke="#000" stroke-linecap="round" stroke-width="1px" fill="none"/><path d="m138.2 90.1v6.629" stroke="#000" stroke-width="1px" fill="none"/><path d="m144.1 94.61-.0442 5.657" stroke="#000" stroke-width="1px" fill="none"/><path d="m127 80.57-40.06-23.31v12.7l40.06 23.31v-12.7" stroke="#000" stroke-linecap="round" stroke-width=".8469px" fill="#b3b3b3"/><path d="m117.1 74.88c1.251 4.909 2.583 9.864-.0625 12.5" stroke="#000" stroke-width="1px" fill="none"/><path d="m120.6 76.83c1.251 4.909 1.876 9.555-.7696 12.19" stroke="#000" stroke-width="1px" fill="none"/><ellipse stroke-linejoin="round" rx=".5520" transform="matrix(.8096 .5870 0 1 0 0)" stroke="#ff0" ry=".4426" cy="-8.048" cx="154.1" stroke-width=".7467" fill="#ff0"/><ellipse stroke-linejoin="round" rx=".5520" ry=".4426" stroke="#0f0" transform="matrix(.8096 .5870 0 1 0 0)" cy="-1.507" cx="154.1" stroke-width=".7467" fill="#0f0"/><path d="m119 77.4c.9674 4.016 1.732 7.54-.3136 9.696" stroke="#808080" stroke-linecap="round" fill="none"/><path d="m93.6 71.1 12.55 7.248c5.744 3.317 11.72 4.364-10.56-12.99-4.201-3.273-5.039 3.984-1.989 5.745z" fill-rule="evenodd" stroke="#000" stroke-width="1px" fill="#f9f9f9"/><path d="m91.84 66.85 17.72 10.52" stroke="#000" stroke-linecap="round" stroke-width="1px" fill="none"/><path d="m95.64 65.53v6.629" stroke="#000" stroke-width="1px" fill="none"/><path d="m101.5 70.04-.0442 5.657" stroke="#000" stroke-width="1px" fill="none"/><path d="m127 80.57-40.06-23.31v12.7l40.06 23.31v-12.7" stroke="#000" stroke-linecap="round" stroke-width=".8469px" fill="#b3b3b3"/><path d="m117.1 74.88c1.251 4.909 2.583 9.864-.0625 12.5" stroke="#000" stroke-width="1px" fill="none"/><path d="m120.6 76.83c1.251 4.909 1.876 9.555-.7696 12.19" stroke="#000" stroke-width="1px" fill="none"/><ellipse stroke-linejoin="round" rx=".5520" ry=".4426" stroke="#ff0" transform="matrix(.8096 .5870 0 1 0 0)" cy="-8.048" cx="154.1" stroke-width=".7467" fill="#ff0"/><ellipse stroke-linejoin="round" rx=".5520" transform="matrix(.8096 .5870 0 1 0 0)" stroke="#0f0" ry=".4426" cy="-1.507" cx="154.1" stroke-width=".7467" fill="#0f0"/><path d="m119 77.4c.9674 4.016 1.732 7.54-.3136 9.696" stroke="#808080" stroke-linecap="round" fill="none"/><path d="m93.6 71.1 12.55 7.248c5.744 3.317 11.72 4.364-10.56-12.99-4.201-3.273-5.039 3.984-1.989 5.745z" fill-rule="evenodd" stroke="#000" stroke-width="1px" fill="#f9f9f9"/><path d="m91.84 66.85 17.72 10.52" stroke="#000" stroke-linecap="round" stroke-width="1px" fill="none"/><path d="m95.64 65.53v6.629" stroke="#000" stroke-width="1px" fill="none"/><path d="m101.5 70.04-.0442 5.657" stroke="#000" stroke-width="1px" fill="none"/><path d="m84.76 56.08-40.06-23.31v12.7l40.06 23.31v-12.7" stroke="#000" stroke-linecap="round" stroke-width=".8469px" fill="#b3b3b3"/><path d="m74.83 50.39c1.251 4.909 2.583 9.864-.0625 12.5" stroke="#000" stroke-width="1px" fill="none"/><path d="m78.39 52.34c1.251 4.909 1.876 9.555-.7696 12.19" stroke="#000" stroke-width="1px" fill="none"/><ellipse stroke-linejoin="round" rx=".5520" ry=".4426" stroke="#ff0" transform="matrix(.8096 .5870 0 1 0 0)" cy="-1.899" cx="101.9" stroke-width=".7467" fill="#ff0"/><ellipse stroke-linejoin="round" rx=".5520" transform="matrix(.8096 .5870 0 1 0 0)" stroke="#0f0" ry=".4426" cy="4.641" cx="101.9" stroke-width=".7467" fill="#0f0"/><path d="m76.77 52.92c.9674 4.016 1.732 7.54-.3136 9.696" stroke="#808080" stroke-linecap="round" fill="none"/><path d="m51.35 46.61 12.55 7.248c5.744 3.317 11.72 4.364-10.56-12.99-4.201-3.273-5.039 3.984-1.989 5.745z" fill-rule="evenodd" stroke="#000" stroke-width="1px" fill="#f9f9f9"/><path d="m49.59 42.37 17.72 10.52" stroke="#000" stroke-linecap="round" stroke-width="1px" fill="none"/><path d="m53.39 41.04v6.629" stroke="#000" stroke-width="1px" fill="none"/><path d="m59.27 45.55-.0442 5.657" stroke="#000" stroke-width="1px" fill="none"/><path d="m84.76 56.08-40.06-23.31v12.7l40.06 23.31v-12.7" stroke="#000" stroke-linecap="round" stroke-width=".8469px" fill="#b3b3b3"/><path d="m74.83 50.39c1.251 4.909 2.583 9.864-.0625 12.5" stroke="#000" stroke-width="1px" fill="none"/><path d="m78.39 52.34c1.251 4.909 1.876 9.555-.7696 12.19" stroke="#000" stroke-width="1px" fill="none"/><ellipse stroke-linejoin="round" rx=".5520" transform="matrix(.8096 .5870 0 1 0 0)" stroke="#ff0" ry=".4426" cy="-1.899" cx="101.9" stroke-width=".7467" fill="#ff0"/><ellipse stroke-linejoin="round" rx=".5520" ry=".4426" stroke="#0f0" transform="matrix(.8096 .5870 0 1 0 0)" cy="4.641" cx="101.9" stroke-width=".7467" fill="#0f0"/><path d="m76.77 52.92c.9674 4.016 1.732 7.54-.3136 9.696" stroke="#808080" stroke-linecap="round" fill="none"/><path d="m51.35 46.61 12.55 7.248c5.744 3.317 11.72 4.364-10.56-12.99-4.201-3.273-5.039 3.984-1.989 5.745z" fill-rule="evenodd" stroke="#000" stroke-width="1px" fill="#f9f9f9"/><path d="m49.59 42.37 17.72 10.52" stroke="#000" stroke-linecap="round" stroke-width="1px" fill="none"/><path d="m53.39 41.04v6.629" stroke="#000" stroke-width="1px" fill="none"/><path d="m59.27 45.55-.0442 5.657" stroke="#000" stroke-width="1px" fill="none"/><path d="m42.34 31.51-40.06-23.31v12.7l40.06 23.31v-12.7" stroke="#000" stroke-linecap="round" stroke-width=".8469px" fill="#b3b3b3"/><path d="m32.4 25.82c1.251 4.909 2.583 9.864-.0625 12.5" stroke="#000" stroke-width="1px" fill="none"/><path d="m35.96 27.77c1.251 4.909 1.876 9.555-.7696 12.19" stroke="#000" stroke-width="1px" fill="none"/><ellipse stroke-linejoin="round" rx=".5520" transform="matrix(.8096 .5870 0 1 0 0)" stroke="#ff0" ry=".4426" cy="4.289" cx="49.5" stroke-width=".7467" fill="#ff0"/><ellipse stroke-linejoin="round" rx=".5520" ry=".4426" stroke="#0f0" transform="matrix(.8096 .5870 0 1 0 0)" cy="10.83" cx="49.5" stroke-width=".7467" fill="#0f0"/><path d="m34.34 28.35c.9674 4.016 1.732 7.54-.3136 9.696" stroke="#808080" stroke-linecap="round" fill="none"/><path d="m8.928 22.04 12.55 7.248c5.744 3.317 11.72 4.364-10.56-12.99-4.201-3.273-5.039 3.984-1.989 5.745z" fill-rule="evenodd" stroke="#000" stroke-width="1px" fill="#f9f9f9"/><path d="m7.16 17.8 17.72 10.52" stroke="#000" stroke-linecap="round" stroke-width="1px" fill="none"/><path d="m10.96 16.47v6.629" stroke="#000" stroke-width="1px" fill="none"/><path d="m16.84 20.98-.0442 5.657" stroke="#000" stroke-width="1px" fill="none"/><path d="m42.34 31.51-40.06-23.31v12.7l40.06 23.31v-12.7" stroke="#000" stroke-linecap="round" stroke-width=".8469px" fill="#b3b3b3"/><path d="m32.4 25.82c1.251 4.909 2.583 9.864-.0625 12.5" stroke="#000" stroke-width="1px" fill="none"/><path d="m35.96 27.77c1.251 4.909 1.876 9.555-.7696 12.19" stroke="#000" stroke-width="1px" fill="none"/><ellipse stroke-linejoin="round" rx=".5520" ry=".4426" stroke="#ff0" transform="matrix(.8096 .5870 0 1 0 0)" cy="4.289" cx="49.5" stroke-width=".7467" fill="#ff0"/><ellipse stroke-linejoin="round" rx=".5520" transform="matrix(.8096 .5870 0 1 0 0)" stroke="#0f0" ry=".4426" cy="10.83" cx="49.5" stroke-width=".7467" fill="#0f0"/><path d="m34.34 28.35c.9674 4.016 1.732 7.54-.3136 9.696" stroke="#808080" stroke-linecap="round" fill="none"/><path d="m8.928 22.04 12.55 7.248c5.744 3.317 11.72 4.364-10.56-12.99-4.201-3.273-5.039 3.984-1.989 5.745z" fill-rule="evenodd" stroke="#000" stroke-width="1px" fill="#f9f9f9"/><path d="m7.16 17.8 17.72 10.52" stroke="#000" stroke-linecap="round" stroke-width="1px" fill="none"/><path d="m10.96 16.47v6.629" stroke="#000" stroke-width="1px" fill="none"/><path d="m16.84 20.98-.0442 5.657" stroke="#000" stroke-width="1px" fill="none"/>
</g>
</g>
</svg>
