<svg xmlns:rdf="http://www.w3.org/1999/02/22-rdf-syntax-ns#" xmlns="http://www.w3.org/2000/svg" height="1052" width="744.1" version="1.1" enable-background="new" xmlns:cc="http://creativecommons.org/ns#" xmlns:dc="http://purl.org/dc/elements/1.1/">
<g>
<g stroke-linejoin="round" stroke-opacity=".9727" stroke="#000" stroke-linecap="round" fill="#fff"><rect transform="matrix(.8660 .5 0 1 0 0)" height="40" width="200" y=".000006844" x="-.000003712" stroke-width="2.149"/><rect transform="matrix(.8660 .5 0 1 0 0)" height="40" width="220" y=".000006844" x="-10" stroke-width="2.149"/><path d="m-8.66 5 137.8 79.86v39.69l-137.8-79.91z" stroke-width="2"/></g><g stroke="#000"><path stroke-linejoin="round" d="m-8.66 5 8.66-5 173.2 100-8.66 5z" stroke-linecap="round" stroke-width="2" fill="#f0f0f0"/><path stroke-linejoin="round" d="m164.5 105 8.66-5v40l-8.66 5z" stroke-linecap="round" stroke-width="2" fill="#c8c8c8"/><path d="m-5.216 42.02 123.2 71.28" stroke-width="1px" fill="none"/></g><g><path stroke-linejoin="round" d="m129.2 119.9c-8.66-5-8.66-35 0-30l4.33-2.5c-8.66-5-8.66 25 0 30z" stroke="#000" stroke-linecap="round" stroke-width="2" fill="#c8c8c8"/><path stroke-linejoin="round" d="m129.2 84.86 35.38 20.14v40l-35.38-20.46z" stroke="#000" stroke-linecap="round" stroke-width="2" fill="#fff"/><text style="word-spacing:0px;letter-spacing:0px" xml:space="preserve" transform="matrix(1 .5774 0 1 0 0)" font-size="5.951px" y="18.365883" x="142.11241" font-family="Sans" line-height="125%" fill="#000000"><tspan x="142.11241" y="18.365883">APC</tspan></text><ellipse stroke-linejoin="round" rx="2.5" transform="matrix(.8660 .5 0 1 0 0)" stroke="#999" ry="2.165" cy="41.88" cx="164.2" stroke-width="2.149" fill="#999"/><text style="word-spacing:0px;letter-spacing:0px" xml:space="preserve" transform="matrix(1 .3094 0 1 0 0)" font-size="5.149px" y="81.948586" x="140.74994" font-family="Sans" line-height="125%" fill="#000000"><tspan x="140.74994" y="81.948586">0</tspan></text><ellipse stroke-linejoin="round" rx="2.5" transform="matrix(.8660 .5 0 1 0 0)" stroke="#999" ry="2.165" cy="42.34" cx="173.5" stroke-width="2.149" fill="#999"/><text style="word-spacing:0px;letter-spacing:0px" transform="matrix(1 .5774 0 1 0 0)" line-height="125%" xml:space="preserve" font-size="4.963px" y="44.001598" x="149.71375" font-family="Sans" fill="#000000"><tspan y="44.001598" x="149.71375">I</tspan></text></g><g stroke-linejoin="round" stroke="#0f0" fill="#0f0"><g stroke-width=".8091"><ellipse rx=".9411" transform="matrix(.8660 0.5 0 1 0 0)" ry=".8150" cy="23" cx="165.3"/><ellipse rx=".9411" transform="matrix(.8660 0.5 0 1 0 0)" ry=".8150" cy="28.63" cx="165.3"/><ellipse rx=".9411" transform="matrix(.8660 0.5 0 1 0 0)" ry=".8150" cy="34.26" cx="165.3"/><ellipse rx=".9411" transform="matrix(.8660 0.5 0 1 0 0)" ry=".8150" cy="23.44" cx="173"/><ellipse rx=".9411" transform="matrix(.8660 0.5 0 1 0 0)" ry=".8150" cy="29.08" cx="173"/><ellipse rx=".9411" transform="matrix(.8660 0.5 0 1 0 0)" ry=".8150" cy="34.71" cx="173"/></g><g stroke-width=".6416"><ellipse rx="1.035" transform="matrix(.8631 .5050 0 1 0 0)" ry=".4659" cy="21.76" cx="158.1"/><ellipse rx="1.035" transform="matrix(.8631 .5050 0 1 0 0)" ry=".4659" cy="24.8" cx="158.1"/><ellipse rx="1.035" transform="matrix(.8631 .5050 0 1 0 0)" ry=".4659" cy="27.85" cx="158.1"/><ellipse rx="1.035" transform="matrix(.8631 .5050 0 1 0 0)" ry=".4659" cy="30.9" cx="158.1"/><ellipse rx="1.035" transform="matrix(.8631 .5050 0 1 0 0)" ry=".4659" cy="33.94" cx="158.1"/><ellipse rx="1.035" transform="matrix(.8631 .5050 0 1 0 0)" ry=".4659" cy="22.01" cx="181.6"/><ellipse rx="1.035" transform="matrix(.8631 .5050 0 1 0 0)" ry=".4659" cy="25.06" cx="181.6"/><ellipse rx="1.035" transform="matrix(.8631 .5050 0 1 0 0)" ry=".4659" cy="28.1" cx="181.6"/><ellipse rx="1.035" transform="matrix(.8631 .5050 0 1 0 0)" ry=".4659" cy="31.15" cx="181.6"/><ellipse rx="1.035" transform="matrix(.8631 .5050 0 1 0 0)" ry=".4659" cy="34.19" cx="181.6"/></g></g><g stroke="#000" stroke-width="1px" fill="none"><path d="m-5.216 38.64 123.2 71.26"/><path d="m-5.216 35.26 123.2 71.34"/><path d="m-5.216 31.88 123.2 71.32"/><path d="m-5.216 28.51 123.2 71.29"/><path d="m-5.216 25.13 123.2 71.29"/><path d="m-5.216 21.75 123.2 71.29"/><path d="m-5.216 18.37 123.2 71.29"/><path d="m-5.216 14.99 123.2 71.3"/><path d="m-5.216 11.61 123.2 71.3"/></g><path stroke-linejoin="round" d="m46.03 44.86 21.16 12.05v23.92l-21.16-12.23z" stroke="#000" stroke-linecap="round" stroke-width="1.196" fill="#fff"/><text style="word-spacing:0px;letter-spacing:0px" xml:space="preserve" transform="matrix(.8314 0.48 0 1.203 0 0)" font-size="3.827px" y="22.166914" x="67.797157" font-family="Sans" line-height="125%" fill="#000000"><tspan x="67.797157" style="text-anchor:middle;text-align:center" y="22.166914">SmartUPS</tspan><tspan x="67.797157" style="text-anchor:middle;text-align:center" y="26.95075">RT</tspan><tspan x="67.797157" style="text-anchor:middle;text-align:center" y="31.734587">2000</tspan></text>
</g>
</svg>
