<?xml version="1.0" encoding="UTF-8" standalone="no"?>
<!-- Created with Inkscape (http://www.inkscape.org/) -->

<svg
   xmlns:dc="http://purl.org/dc/elements/1.1/"
   xmlns:cc="http://creativecommons.org/ns#"
   xmlns:rdf="http://www.w3.org/1999/02/22-rdf-syntax-ns#"
   xmlns:svg="http://www.w3.org/2000/svg"
   xmlns="http://www.w3.org/2000/svg"
   xmlns:sodipodi="http://sodipodi.sourceforge.net/DTD/sodipodi-0.dtd"
   xmlns:inkscape="http://www.inkscape.org/namespaces/inkscape"
   width="744.09448819"
   height="1052.3622047"
   id="svg2"
   version="1.1"
   inkscape:version="0.91 r13725"
   sodipodi:docname="APC-EnvManager.svg"
   enable-background="new">
  <defs
     id="defs4" />
  <sodipodi:namedview
     id="base"
     pagecolor="#ffffff"
     bordercolor="#666666"
     borderopacity="1.0"
     inkscape:pageopacity="0.0"
     inkscape:pageshadow="2"
     inkscape:zoom="5.656854"
     inkscape:cx="20.248475"
     inkscape:cy="1069.7736"
     inkscape:document-units="px"
     inkscape:current-layer="layer5"
     showgrid="false"
     borderlayer="true"
     showborder="true"
     inkscape:window-width="1920"
     inkscape:window-height="1018"
     inkscape:window-x="-8"
     inkscape:window-y="-8"
     inkscape:window-maximized="1"
     inkscape:showpageshadow="false"
     inkscape:snap-global="true"
     inkscape:snap-bbox="true"
     inkscape:snap-intersection-paths="true"
     inkscape:object-paths="true"
     inkscape:snap-bbox-edge-midpoints="true"
     inkscape:snap-bbox-midpoints="true"
     inkscape:bbox-nodes="true"
     inkscape:bbox-paths="true"
     inkscape:object-nodes="true"
     inkscape:snap-smooth-nodes="true"
     inkscape:snap-midpoints="true"
     inkscape:snap-object-midpoints="true"
     inkscape:snap-center="true"
     inkscape:snap-page="true">
    <inkscape:grid
       type="xygrid"
       id="grid2985"
       empspacing="5"
       visible="true"
       enabled="false"
       snapvisiblegridlinesonly="true" />
    <inkscape:grid
       type="axonomgrid"
       id="grid2989"
       units="px"
       empspacing="5"
       visible="true"
       enabled="true"
       snapvisiblegridlinesonly="true"
       spacingy="5px" />
  </sodipodi:namedview>
  <metadata
     id="metadata7">
    <rdf:RDF>
      <cc:Work
         rdf:about="">
        <dc:format>image/svg+xml</dc:format>
        <dc:type
           rdf:resource="http://purl.org/dc/dcmitype/StillImage" />
        <dc:title />
      </cc:Work>
    </rdf:RDF>
  </metadata>
  <g
     inkscape:label="Body"
     inkscape:groupmode="layer"
     id="layer1"
     style="display:inline">
    <rect
       y="200"
       x="200"
       height="20.000002"
       width="20"
       id="rect3897"
       style="fill:#c8c8c8;fill-opacity:1;stroke:#000000;stroke-width:2.14913986;stroke-linejoin:bevel;stroke-miterlimit:4;stroke-dasharray:none;stroke-opacity:1"
       transform="matrix(0.8660254,-0.5,0,1,0,0)" />
    <path
       style="fill:#f5f5f5;fill-opacity:1;stroke:#000000;stroke-width:2;stroke-linecap:butt;stroke-linejoin:round;stroke-miterlimit:4;stroke-dasharray:none;stroke-opacity:1"
       d="M 0,-10e-6 173.20508,100.00002 190.52559,90 17.320509,-10 Z"
       id="path3899"
       inkscape:connector-curvature="0"
       sodipodi:nodetypes="ccccc" />
  </g>
  <g
     inkscape:groupmode="layer"
     id="layer5"
     inkscape:label="Front"
     style="display:inline">
    <rect
       style="display:inline;fill:#ffffff;fill-opacity:1;stroke:#000000;stroke-width:2.14913987;stroke-linejoin:round;stroke-miterlimit:4;stroke-dasharray:none;stroke-opacity:1"
       id="rect3895"
       width="200"
       height="20"
       x="-1.5258789e-005"
       y="2.6171876e-006"
       transform="matrix(0.8660254,0.5,0,1,0,0)" />
    <path
       sodipodi:nodetypes="ccccc"
       style="fill:#ffffff;fill-opacity:1;stroke:#000000;stroke-width:2;stroke-linecap:butt;stroke-linejoin:round;stroke-miterlimit:4;stroke-dasharray:none;stroke-opacity:1"
       d="M -8.66025,-5 0,0 0,20 -8.66025,15 Z"
       id="path4447"
       inkscape:connector-curvature="0" />
    <path
       style="fill:#ffffff;fill-opacity:1;stroke:#000000;stroke-width:2;stroke-linejoin:round;stroke-miterlimit:4;stroke-dasharray:none;stroke-opacity:1"
       d="m 0,0 173.20508,100.00002 0,20 L 0,20 Z"
       id="rect4248"
       inkscape:connector-curvature="0"
       sodipodi:nodetypes="ccccc" />
    <path
       inkscape:connector-curvature="0"
       id="path4273"
       d="m 173.20508,100.00002 8.66025,5 0,20 -8.66025,-5 z"
       style="fill:#ffffff;fill-opacity:1;stroke:#000000;stroke-width:2;stroke-linecap:butt;stroke-linejoin:round;stroke-miterlimit:4;stroke-dasharray:none;stroke-opacity:1"
       sodipodi:nodetypes="ccccc" />
    <path
       style="opacity:1;fill:#999999;fill-opacity:1;stroke:#000000;stroke-width:1;stroke-linecap:butt;stroke-linejoin:miter;stroke-miterlimit:4;stroke-dasharray:none;stroke-opacity:1"
       d="m 76.4549,47.545942 0,1.267324 -1.46408,-0.845288 0,5.350922 4.57275,2.640078 0,-5.350922 -1.46409,-0.845288 0,-1.267324 -1.64458,-0.949502 z"
       id="path4197"
       inkscape:connector-curvature="0" />
    <path
       inkscape:connector-curvature="0"
       id="path4199"
       d="m 83.49388,51.609975 0,1.267324 -1.46409,-0.845288 0,5.350924 4.57275,2.640069 0,-5.350915 -1.46408,-0.845288 0,-1.267324 -1.64458,-0.949502 z"
       style="opacity:1;fill:#999999;fill-opacity:1;stroke:#000000;stroke-width:1;stroke-linecap:butt;stroke-linejoin:miter;stroke-miterlimit:4;stroke-dasharray:none;stroke-opacity:1" />
    <path
       inkscape:connector-curvature="0"
       id="path4201"
       d="m 95.105582,58.314095 0,1.26733 -1.46408,-0.84529 0,5.35092 4.57274,2.64008 0,-5.35092 -1.46408,-0.84529 0,-1.26733 -1.64458,-0.9495 z"
       style="opacity:1;fill:#999999;fill-opacity:1;stroke:#000000;stroke-width:1;stroke-linecap:butt;stroke-linejoin:miter;stroke-miterlimit:4;stroke-dasharray:none;stroke-opacity:1" />
    <path
       style="opacity:1;fill:#999999;fill-opacity:1;stroke:#000000;stroke-width:1;stroke-linecap:butt;stroke-linejoin:miter;stroke-miterlimit:4;stroke-dasharray:none;stroke-opacity:1"
       d="m 99.678322,60.954185 0,1.26732 -1.46408,-0.84529 0,5.35092 4.572748,2.64008 0,-5.35092 -1.46408,-0.84529 0,-1.26732 -1.644588,-0.9495 z"
       id="path4203"
       inkscape:connector-curvature="0" />
    <path
       inkscape:connector-curvature="0"
       id="path4205"
       d="m 90.53283,55.674026 0,1.26732 -1.46408,-0.84529 0,5.350918 4.572752,2.64008 0,-5.350918 -1.464082,-0.84529 0,-1.26732 -1.64459,-0.9495 z"
       style="opacity:1;fill:#999999;fill-opacity:1;stroke:#000000;stroke-width:1;stroke-linecap:butt;stroke-linejoin:miter;stroke-miterlimit:4;stroke-dasharray:none;stroke-opacity:1" />
    <path
       style="opacity:1;fill:#999999;fill-opacity:1;stroke:#000000;stroke-width:1;stroke-linecap:butt;stroke-linejoin:miter;stroke-miterlimit:4;stroke-dasharray:none;stroke-opacity:1"
       d="m 104.25108,63.57125 0,1.26732 -1.46409,-0.84528 0,5.35092 4.57276,2.64008 0,-5.35093 -1.46409,-0.84528 0,-1.26733 -1.64458,-0.9495 z"
       id="path4207"
       inkscape:connector-curvature="0" />
    <path
       inkscape:connector-curvature="0"
       id="path4166"
       d="m 105.89567,77.734288 0,-1.267324 1.46408,0.845288 0,-5.350922 -4.57275,-2.640078 0,5.350922 1.46409,0.845288 0,1.267324 1.64458,0.949502 z"
       style="opacity:1;fill:#999999;fill-opacity:1;stroke:#000000;stroke-width:1;stroke-linecap:butt;stroke-linejoin:miter;stroke-miterlimit:4;stroke-dasharray:none;stroke-opacity:1" />
    <path
       style="opacity:1;fill:#999999;fill-opacity:1;stroke:#000000;stroke-width:1;stroke-linecap:butt;stroke-linejoin:miter;stroke-miterlimit:4;stroke-dasharray:none;stroke-opacity:1"
       d="m 101.3229,75.11717 0,-1.267324 1.46409,0.845288 0,-5.350924 -4.572748,-2.640069 0,5.350915 1.46408,0.845288 0,1.267324 1.644578,0.949502 z"
       id="path4168"
       inkscape:connector-curvature="0" />
    <path
       style="opacity:1;fill:#999999;fill-opacity:1;stroke:#000000;stroke-width:1;stroke-linecap:butt;stroke-linejoin:miter;stroke-miterlimit:4;stroke-dasharray:none;stroke-opacity:1"
       d="m 92.17741,69.83706 0,-1.26733 1.464082,0.84529 0,-5.35092 -4.572742,-2.64008 0,5.35092 1.46408,0.84529 0,1.26733 1.64458,0.9495 z"
       id="path4170"
       inkscape:connector-curvature="0" />
    <path
       inkscape:connector-curvature="0"
       id="path4172"
       d="m 85.13846,65.77296 0,-1.26732 1.46408,0.84529 0,-5.35092 -4.57275,-2.64008 0,5.35092 1.46408,0.84529 0,1.26732 1.64459,0.9495 z"
       style="opacity:1;fill:#999999;fill-opacity:1;stroke:#000000;stroke-width:1;stroke-linecap:butt;stroke-linejoin:miter;stroke-miterlimit:4;stroke-dasharray:none;stroke-opacity:1" />
    <path
       style="opacity:1;fill:#999999;fill-opacity:1;stroke:#000000;stroke-width:1;stroke-linecap:butt;stroke-linejoin:miter;stroke-miterlimit:4;stroke-dasharray:none;stroke-opacity:1"
       d="m 96.750162,72.477129 0,-1.26732 1.46408,0.84529 0,-5.350918 -4.57275,-2.64008 0,5.350918 1.46408,0.84529 0,1.26732 1.64459,0.9495 z"
       id="path4174"
       inkscape:connector-curvature="0" />
    <path
       inkscape:connector-curvature="0"
       id="path4176"
       d="m 78.09949,61.70898 0,-1.26732 1.46409,0.84528 0,-5.35092 -4.57276,-2.64008 0,5.35093 1.46409,0.84528 0,1.26733 1.64458,0.9495 z"
       style="opacity:1;fill:#999999;fill-opacity:1;stroke:#000000;stroke-width:1;stroke-linecap:butt;stroke-linejoin:miter;stroke-miterlimit:4;stroke-dasharray:none;stroke-opacity:1" />
    <path
       inkscape:connector-curvature="0"
       id="path4178"
       d="m 133.05964,80.473683 0,1.267324 -1.46408,-0.845288 0,5.350922 4.57275,2.640078 0,-5.350922 -1.46409,-0.845288 0,-1.267324 -1.64458,-0.949502 z"
       style="opacity:1;fill:#999999;fill-opacity:1;stroke:#000000;stroke-width:1;stroke-linecap:butt;stroke-linejoin:miter;stroke-miterlimit:4;stroke-dasharray:none;stroke-opacity:1" />
    <text
       xml:space="preserve"
       style="font-style:normal;font-weight:normal;font-size:6.65677404px;line-height:125%;font-family:Sans;letter-spacing:0px;word-spacing:0px;fill:#000000;fill-opacity:1;stroke:none;stroke-width:1px;stroke-linecap:butt;stroke-linejoin:miter;stroke-opacity:1"
       x="226.68222"
       y="6.3032656"
       id="text4180"
       sodipodi:linespacing="125%"
       transform="matrix(0.70541576,0.40922693,0,1.4176037,0,0)"><tspan
         sodipodi:role="line"
         id="tspan4182"
         x="226.68222"
         y="6.3032656"
         style="fill:#d40000;-inkscape-font-specification:'Sans Bold';font-family:Sans;font-weight:bold;font-style:normal;font-stretch:normal;font-variant:normal">APC</tspan></text>
    <text
       xml:space="preserve"
       style="font-style:normal;font-weight:normal;font-size:1.57510281px;line-height:125%;font-family:Sans;text-align:center;letter-spacing:0px;word-spacing:0px;text-anchor:middle;fill:#000000;fill-opacity:1;stroke:none;stroke-width:1px;stroke-linecap:butt;stroke-linejoin:miter;stroke-opacity:1"
       x="233.4384"
       y="8.7343636"
       id="text4184"
       sodipodi:linespacing="125%"
       transform="matrix(0.70710677,0.40824828,0,1.4142136,0,0)"><tspan
         sodipodi:role="line"
         id="tspan4186"
         x="233.4384"
         y="8.7343636">Environmental</tspan><tspan
         sodipodi:role="line"
         x="233.4384"
         y="10.703241"
         id="tspan4188">Manager</tspan></text>
    <g
       transform="matrix(-0.5,0.8660254,0.8660254,0.5,-2.2140685,-1.5588668)"
       style="display:inline"
       id="g4148">
      <rect
         transform="matrix(0.86301685,0.50517513,0,1,0,0)"
         y="5.4515963"
         x="4.33637"
         height="9.6038952"
         width="12.419873"
         id="rect4143"
         style="opacity:1;fill:#b3b3b3;fill-opacity:1;stroke:#000000;stroke-width:0.5814923;stroke-linecap:butt;stroke-linejoin:round;stroke-miterlimit:4;stroke-dasharray:none;stroke-opacity:1" />
      <path
         sodipodi:nodetypes="ccccccc"
         inkscape:connector-curvature="0"
         id="rect4145"
         d="m 4.6635289,9.1532684 8.8762221,5.1246886 0,6.397592 -1.556025,0.435363 L 6.1358132,17.734618 4.6635289,15.55086 Z"
         style="opacity:1;fill:#000000;fill-opacity:1;stroke:#000000;stroke-width:0.44106513;stroke-linecap:butt;stroke-linejoin:round;stroke-miterlimit:4;stroke-dasharray:none;stroke-opacity:1" />
      <rect
         transform="matrix(0.8660254,0.5,0,1,0,0)"
         y="7.560811"
         x="6.9665604"
         height="2.359684"
         width="0.47386584"
         id="rect4154"
         style="opacity:1;fill:#999999;fill-opacity:1;stroke:#999999;stroke-width:0.6236425;stroke-linecap:butt;stroke-linejoin:round;stroke-miterlimit:4;stroke-dasharray:none;stroke-opacity:1" />
      <rect
         transform="matrix(0.8660254,0.5,0,1,0,0)"
         style="opacity:1;fill:#999999;fill-opacity:1;stroke:#999999;stroke-width:0.6236425;stroke-linecap:butt;stroke-linejoin:round;stroke-miterlimit:4;stroke-dasharray:none;stroke-opacity:1"
         id="rect4156"
         width="0.47386584"
         height="2.359684"
         x="13.600683"
         y="7.560811" />
      <rect
         transform="matrix(0.8660254,0.5,0,1,0,0)"
         y="10.699876"
         x="10.135538"
         height="2.359684"
         width="0.47386584"
         id="rect4158"
         style="opacity:1;fill:#999999;fill-opacity:1;stroke:#999999;stroke-width:0.6236425;stroke-linecap:butt;stroke-linejoin:round;stroke-miterlimit:4;stroke-dasharray:none;stroke-opacity:1" />
    </g>
    <g
       id="g4206"
       style="display:inline"
       transform="matrix(-0.5,0.8660254,0.8660254,0.5,7.8180095,4.1863761)">
      <rect
         style="opacity:1;fill:#b3b3b3;fill-opacity:1;stroke:#000000;stroke-width:0.5814923;stroke-linecap:butt;stroke-linejoin:round;stroke-miterlimit:4;stroke-dasharray:none;stroke-opacity:1"
         id="rect4208"
         width="12.419873"
         height="9.6038952"
         x="4.33637"
         y="5.4515963"
         transform="matrix(0.86301685,0.50517513,0,1,0,0)" />
      <path
         style="opacity:1;fill:#000000;fill-opacity:1;stroke:#000000;stroke-width:0.44106513;stroke-linecap:butt;stroke-linejoin:round;stroke-miterlimit:4;stroke-dasharray:none;stroke-opacity:1"
         d="m 4.6635289,9.1532684 8.8762221,5.1246886 0,6.397592 -1.556025,0.435363 L 6.1358132,17.734618 4.6635289,15.55086 Z"
         id="path4210"
         inkscape:connector-curvature="0"
         sodipodi:nodetypes="ccccccc" />
      <rect
         style="opacity:1;fill:#999999;fill-opacity:1;stroke:#999999;stroke-width:0.6236425;stroke-linecap:butt;stroke-linejoin:round;stroke-miterlimit:4;stroke-dasharray:none;stroke-opacity:1"
         id="rect4212"
         width="0.47386584"
         height="2.359684"
         x="6.9665604"
         y="7.560811"
         transform="matrix(0.8660254,0.5,0,1,0,0)" />
      <rect
         y="7.560811"
         x="13.600683"
         height="2.359684"
         width="0.47386584"
         id="rect4214"
         style="opacity:1;fill:#999999;fill-opacity:1;stroke:#999999;stroke-width:0.6236425;stroke-linecap:butt;stroke-linejoin:round;stroke-miterlimit:4;stroke-dasharray:none;stroke-opacity:1"
         transform="matrix(0.8660254,0.5,0,1,0,0)" />
      <rect
         style="opacity:1;fill:#999999;fill-opacity:1;stroke:#999999;stroke-width:0.6236425;stroke-linecap:butt;stroke-linejoin:round;stroke-miterlimit:4;stroke-dasharray:none;stroke-opacity:1"
         id="rect4216"
         width="0.47386584"
         height="2.359684"
         x="10.135538"
         y="10.699876"
         transform="matrix(0.8660254,0.5,0,1,0,0)" />
    </g>
  </g>
</svg>
