<svg xmlns:rdf="http://www.w3.org/1999/02/22-rdf-syntax-ns#" xmlns="http://www.w3.org/2000/svg" height="1052" width="744.1" version="1.1" enable-background="new" xmlns:cc="http://creativecommons.org/ns#" xmlns:dc="http://purl.org/dc/elements/1.1/">
<g>
<g>
<g stroke-linejoin="round" stroke="#000" fill="#fff"><rect transform="matrix(.8660 .5 0 1 0 0)" height="20" width="200" y=".000002617" x="-.00001526" stroke-width="2.149"/><g stroke-width="2"><path d="m-8.66-5 8.66 5v20l-8.66-5z"/><path d="m0 0 173.2 100v20l-173.2-100z"/><path d="m173.2 100 8.66 5v20l-8.66-5z"/></g></g><g stroke="#000" fill="#999"><path d="m76.45 47.55v1.267l-1.464-.8453v5.351l4.573 2.64v-5.351l-1.464-.8453v-1.267l-1.645-.9495z"/><path d="m83.49 51.61v1.267l-1.464-.8453v5.351l4.573 2.64v-5.351l-1.464-.8453v-1.267l-1.645-.9495z"/><path d="m95.11 58.31v1.267l-1.464-.8453v5.351l4.573 2.64v-5.351l-1.464-.8453v-1.267l-1.645-.9495z"/><path d="m99.68 60.95v1.267l-1.464-.8453v5.351l4.573 2.64v-5.351l-1.464-.8453v-1.267l-1.645-.9495z"/><path d="m90.53 55.67v1.267l-1.464-.8453v5.351l4.573 2.64v-5.351l-1.464-.8453v-1.267l-1.645-.9495z"/><path d="m104.3 63.57v1.267l-1.464-.8453v5.351l4.573 2.64v-5.351l-1.464-.8453v-1.267l-1.645-.9495z"/><path d="m105.9 77.73v-1.267l1.464.8453v-5.351l-4.573-2.64v5.351l1.464.8453v1.267l1.645.9495z"/><path d="m101.3 75.12v-1.267l1.464.8453v-5.351l-4.573-2.64v5.351l1.464.8453v1.267l1.645.9495z"/><path d="m92.18 69.84v-1.267l1.464.8453v-5.351l-4.573-2.64v5.351l1.464.8453v1.267l1.645.9495z"/><path d="m85.14 65.77v-1.267l1.464.8453v-5.351l-4.573-2.64v5.351l1.464.8453v1.267l1.645.9495z"/><path d="m96.75 72.48v-1.267l1.464.8453v-5.351l-4.573-2.64v5.351l1.464.8453v1.267l1.645.9495z"/><path d="m78.1 61.71v-1.267l1.464.8453v-5.351l-4.573-2.64v5.351l1.464.8453v1.267l1.645.9495z"/><path d="m133.1 80.47v1.267l-1.464-.8453v5.351l4.573 2.64v-5.351l-1.464-.8453v-1.267l-1.645-.9495z"/></g><g><text style="word-spacing:0px;letter-spacing:0px" transform="matrix(.7054 .4092 0 1.418 0 0)" line-height="125%" xml:space="preserve" font-size="6.657px" y="6.3032656" x="226.68222" font-family="Sans" fill="#000000"><tspan font-weight="bold" y="6.3032656" x="226.68222" font-family="Sans" fill="#d40000">APC</tspan></text><text style="word-spacing:0px;letter-spacing:0px;text-anchor:middle;text-align:center" transform="matrix(.7071 .4082 0 1.414 0 0)" line-height="125%" xml:space="preserve" font-size="1.575px" y="8.7343636" x="233.4384" font-family="Sans" fill="#000000"><tspan y="8.7343636" x="233.4384">Environmental</tspan><tspan y="10.703241" x="233.4384">Manager</tspan></text><rect stroke-linejoin="round" transform="matrix(.005986 1 .8660 .5 0 0)" height="9.604" width="12.42" stroke="#000" y="2.897" x="4.055" stroke-width=".5815" fill="#b3b3b3"/><path stroke-linejoin="round" d="m3.381 7.057-6e-7 10.25 5.54 3.199 1.155-1.13v-6.753l-1.155-2.367z" stroke="#000" stroke-width=".4411"/></g><g stroke-linejoin="round" stroke="#999" stroke-width=".6236" fill="#999"><rect transform="matrix(0 1 .8660 .5 0 0)" height="2.36" width=".4739" y="5.004" x="6.686"/><rect transform="matrix(0 1 .8660 .5 0 0)" height="2.36" width=".4739" y="5.004" x="13.32"/><rect transform="matrix(0 1 .8660 .5 0 0)" height="2.36" width=".4739" y="8.143" x="9.855"/></g><rect stroke-linejoin="round" transform="matrix(.005986 1 .8660 .5 0 0)" height="9.604" width="12.42" stroke="#000" y="14.48" x="4.008" stroke-width=".5815" fill="#b3b3b3"/><path stroke-linejoin="round" d="m13.41 12.8-.0000010 10.25 5.54 3.199 1.155-1.13v-6.753l-1.155-2.367z" stroke="#000" stroke-width=".4411"/><g stroke-linejoin="round" stroke="#999" stroke-width=".6236" fill="#999"><rect transform="matrix(0 1 .8660 .5 0 0)" height="2.36" width=".4739" y="16.59" x="6.639"/><rect transform="matrix(0 1 .8660 .5 0 0)" height="2.36" width=".4739" y="16.59" x="13.27"/><rect transform="matrix(0 1 .8660 .5 0 0)" height="2.36" width=".4739" y="19.73" x="9.808"/></g>
</g></g></svg>