<svg xmlns:rdf="http://www.w3.org/1999/02/22-rdf-syntax-ns#" xmlns="http://www.w3.org/2000/svg" height="1052" width="744.1" version="1.1" enable-background="new" xmlns:cc="http://creativecommons.org/ns#" xmlns:dc="http://purl.org/dc/elements/1.1/">
<g>
<g stroke-linejoin="round" stroke-opacity=".9727" stroke="#000" stroke-linecap="round" fill="#fff"><rect transform="matrix(.8660 .5 0 1 0 0)" height="40" width="200" y=".000006844" x="-.000003712" stroke-width="2.149"/><rect transform="matrix(.8660 .5 0 1 0 0)" height="40" width="220" y=".000006844" x="-10" stroke-width="2.149"/><path d="m-8.66 5 173.2 100.3v39.69l-173.2-100.3z" stroke-width="2"/></g><g stroke="#000"><path stroke-linejoin="round" d="m-8.66 5 8.66-5 173.2 100-8.66 5z" stroke-linecap="round" stroke-width="2" fill="#f0f0f0"/><path d="m-5.216 42.02 158.6 91.78" stroke-width="1px" fill="none"/><path stroke-linejoin="round" d="m164.5 140.3c-8.66-5-8.66-35 0-30l4.33-2.5c-8.66-5-8.66 25 0 30z" stroke-linecap="round" stroke-width="2" fill="#c8c8c8"/><path stroke-linejoin="round" d="m164.5 105 8.66-5v40l-8.66 5z" stroke-linecap="round" stroke-width="2" fill="#c8c8c8"/></g><g stroke="#000" stroke-width="1px" fill="none"><path d="m-5.216 38.64 158.6 91.76"/><path d="m-5.216 35.26 158.6 91.74"/><path d="m-5.216 31.88 158.6 91.72"/><path d="m-5.216 28.51 158.6 91.79"/><path d="m-5.216 25.13 158.6 91.77"/><path d="m-5.216 21.75 158.6 91.75"/><path d="m-5.216 18.37 158.6 91.73"/><path d="m-5.216 14.99 158.6 91.71"/><path d="m-5.216 11.61 158.6 91.79"/></g><path stroke-linejoin="round" d="m67.36 57.02 21.16 12.05v23.92l-21.16-12.23z" stroke="#000" stroke-linecap="round" stroke-width="1.196" fill="#fff"/><text style="word-spacing:0px;letter-spacing:0px" xml:space="preserve" transform="matrix(.8314 0.48 0 1.203 0 0)" font-size="3.827px" y="22.036976" x="93.453804" font-family="Sans" line-height="125%" fill="#000000"><tspan x="93.453804" style="text-anchor:middle;text-align:center" y="22.036976">SmartUPS</tspan><tspan x="93.453804" style="text-anchor:middle;text-align:center" y="26.82081">RT</tspan><tspan x="93.453804" style="text-anchor:middle;text-align:center" y="31.604647">2000</tspan></text>
</g>
</svg>
