<svg xmlns:rdf="http://www.w3.org/1999/02/22-rdf-syntax-ns#" xmlns="http://www.w3.org/2000/svg" height="1052" width="744.1" version="1.1" xmlns:cc="http://creativecommons.org/ns#" xmlns:dc="http://purl.org/dc/elements/1.1/" enable-background="new">
<g>
<g stroke-linejoin="round">
<g stroke="#000" stroke-linecap="round" fill="#fff"><rect transform="matrix(.8660 .5 0 1 0 0)" height="40" width="200" y=".000006844" x="-.000003712" stroke-width="2.149"/><rect transform="matrix(.8660 .5 0 1 0 0)" height="40" width="220" y=".000006844" x="-10" stroke-width="2.149"/><path d="m-8.66 10v-5l8.66-5v40l-8.66 5v-5l4.33-2.5v-30z" stroke-width="2"/><path d="m-8.66 5 173.2 100v4.87c-8.66-4.87-8.66 25.13 0 30.23v4.896l-173.2-100v-5.009c8.66 5.009 8.66-24.99 0-29.77z" stroke-width="2"/></g>
<g stroke="#000" stroke-width="2" stroke-linecap="round"><path d="m-8.66 5 8.66-5 173.2 100-8.66 5z" fill="#f0f0f0"/><path d="m164.5 140c-8.66-5-8.66-35 0-30l4.33-2.5c-8.66-5-8.66 25 0 30z" fill="#c8c8c8"/><path d="m164.5 110v-5l8.66-5v40l-8.66 5v-5l4.33-2.5v-30z" fill="#c8c8c8"/></g>
<g stroke="#000" stroke-width="1px" fill="none"><path d="m4.33 17.5 90.88 52.55"/><path d="m4.33 22.5 30.23 17.55"/><path d="m64.99 57.88 30.23 17.55"/><path d="m4.413 27.45 30.23 17.55"/><path d="m65.07 62.84 30.23 17.55"/><path d="m4.413 32.45 30.23 17.55"/><path d="m65.07 67.84 30.23 17.55"/><path d="m4.413 37.45 30.23 17.55"/><path d="m65.07 72.84 30.23 17.55"/><path d="m4.413 42.45 30.23 17.55"/><path d="m65.07 77.84 30.23 17.55"/><path d="m4.33 47.5 90.88 52.55"/></g>
<text style="word-spacing:0px;letter-spacing:0px" xml:space="preserve" transform="matrix(1 .5774 0 1 0 0)" font-size="4.603px" y="24.676214" x="38.991127" font-family="Sans" line-height="125%" fill="#000000"><tspan y="24.676214" x="38.991127">SmartUPS</tspan></text><text style="word-spacing:0px;letter-spacing:0px" xml:space="preserve" font-size="5.951px" transform="matrix(1 .5774 0 1 0 0)" y="40.968758" x="43.244667" font-family="Sans" line-height="125%" fill="#000000"><tspan y="40.968758" x="43.244667">3000</tspan></text><path stroke="#000" stroke-width="1px" d="m151.6 102.5-47.63-27.5-.2525 24.85 17.63 10.18c4.018-2.68 8.348-.1802 12.93 7.466l17.07 9.854z" fill="none"/><text style="word-spacing:0px;letter-spacing:0px" xml:space="preserve" transform="matrix(1 .5774 0 1 0 0)" font-size="5.951px" y="45.838448" x="121.48038" font-family="Sans" line-height="125%" fill="#000000"><tspan y="45.838448" x="121.48038">APC</tspan></text><g stroke="#999"><path stroke-width=".9588px" d="m123.5 106.7v-18.39" fill="none"/><path stroke-width=".9588px" d="m132.1 111.3v-18.39" fill="none"/><ellipse transform="matrix(.8660 .5 0 1 0 0)" rx="2.5" cy="21.97" ry="2.165" cx="147.5" stroke-width="2.149" fill="#999"/><ellipse transform="matrix(.8660 .5 0 1 0 0)" rx="2.5" cy="30.05" ry="2.165" cx="147.5" stroke-width="2.149" fill="#999"/>
</g>
<text style="word-spacing:0px;letter-spacing:0px" xml:space="preserve" font-size="4.963px" transform="matrix(1 .5774 0 1 0 0)" y="23.635382" x="127.18888" font-family="Sans" line-height="125%" fill="#000000"><tspan y="23.635382" x="127.18888">I</tspan></text><text style="word-spacing:0px;letter-spacing:0px" xml:space="preserve" transform="matrix(1 .3094 0 1 0 0)" font-size="5.149px" y="66.239807" x="126.28757" font-family="Sans" line-height="125%" fill="#000000"><tspan y="66.239807" x="126.28757">0</tspan></text>
<g stroke-width="1" stroke="#0f0" fill="#0f0"><ellipse transform="matrix(.8660 .5 0 1 0 0)" rx="1.196" cy="20.02" ry="1.036" cx="134.9"/><ellipse transform="matrix(.8660 .5 0 1 0 0)" rx="1.196" cy="27.18" ry="1.036" cx="134.9"/><ellipse transform="matrix(.8660 .5 0 1 0 0)" rx="1.196" cy="34.34" ry="1.036" cx="134.9"/><ellipse transform="matrix(.8660 .5 0 1 0 0)" rx="1.196" cy="20.06" ry="1.036" cx="160.1"/><ellipse transform="matrix(.8660 .5 0 1 0 0)" rx="1.196" cy="27.22" ry="1.036" cx="160.1"/><ellipse transform="matrix(.8660 .5 0 1 0 0)" rx="1.196" cy="34.38" ry="1.036" cx="160.1"/><ellipse transform="matrix(.8631 .5050 0 1 0 0)" rx="1.316" cy="18.95" ry=".5923" cx="125.6"/><ellipse transform="matrix(.8631 .5050 0 1 0 0)" rx="1.316" cy="22.82" ry=".5923" cx="125.6"/><ellipse transform="matrix(.8631 .5050 0 1 0 0)" rx="1.316" cy="26.69" ry=".5923" cx="125.6"/><ellipse transform="matrix(.8631 .5050 0 1 0 0)" rx="1.316" cy="30.56" ry=".5923" cx="125.6"/><ellipse transform="matrix(.8631 .5050 0 1 0 0)" rx="1.316" cy="34.43" ry=".5923" cx="125.6"/><ellipse transform="matrix(.8631 .5050 0 1 0 0)" rx="1.316" cy="18.64" ry=".5923" cx="170.7"/><ellipse transform="matrix(.8631 .5050 0 1 0 0)" rx="1.316" cy="22.51" ry=".5923" cx="170.7"/><ellipse transform="matrix(.8631 .5050 0 1 0 0)" rx="1.316" cy="26.38" ry=".5923" cx="170.7"/><ellipse transform="matrix(.8631 .5050 0 1 0 0)" rx="1.316" cy="30.26" ry=".5923" cx="170.7"/><ellipse transform="matrix(.8631 .5050 0 1 0 0)" rx="1.316" cy="34.13" ry=".5923" cx="170.7"/></g>
</g>
</g>
</svg>
