<svg xmlns:rdf="http://www.w3.org/1999/02/22-rdf-syntax-ns#" xmlns="http://www.w3.org/2000/svg" height="1052" width="744.1" version="1.1" enable-background="new" xmlns:cc="http://creativecommons.org/ns#" xmlns:dc="http://purl.org/dc/elements/1.1/">
<g>
<g stroke-linejoin="round" stroke="#000" stroke-linecap="round" fill="#fff"><g><rect stroke-opacity=".9727" transform="matrix(.8660 .5 0 1 0 0)" height="20.02" width="200" y=".000006844" x="-.000003712" stroke-width="2.149"/><rect stroke-opacity=".9727" transform="matrix(.8660 .5 0 1 0 0)" height="20" width="220" y=".000006844" x="-10" stroke-width="2.149"/><path d="m-8.66 10v-5l8.66-5v20.02l-8.66 5v-5l4.33-2.5v-10.02z" stroke-width="2"/></g><path d="m-8.66 5 173.2 100v4.87c-3.976-1.953-3.003 8.867 0 10.26v4.896l-173.2-100v-5.009c4.329 2.004 4.418-7.402 0-9.791z" stroke-opacity=".9727" stroke-width="2"/></g><g stroke-linejoin="round" stroke="#000" stroke-linecap="round" stroke-width="2"><path d="m-8.66 5 8.66-5 173.2 100-8.66 5z" fill="#f0f0f0"/><path d="m164.5 120c-5.302-3.409-4.594-12.73 0-10.02l4.33-2.5c-4.33-2.5-5.036 6.792 0 10.02z" fill="#c8c8c8"/><path d="m164.5 110v-5l8.66-5v20.02l-8.66 5v-5l4.33-2.5v-10.02z" fill="#c8c8c8"/></g><g stroke="#000" stroke-width="1px" fill="none"><path d="m-3.129 11.58 30.23 17.54"/><path d="m57.53 46.96 30.23 17.55"/><path d="m-3.045 15.83 30.22 17.54"/><path d="m57.61 51.21 30.23 17.55"/><path d="m-3.045 20.65 30.22 17.54"/><path d="m57.61 56.03 30.23 17.55"/><path d="m-3.045 24.41 30.22 17.55"/><path d="m57.61 59.79 30.23 17.55"/></g><text style="word-spacing:0px;letter-spacing:0px" xml:space="preserve" transform="matrix(.9322 .5382 0 1.073 0 0)" font-size="4.291px" y="16.655598" x="33.867233" font-family="Sans" line-height="125%" fill="#000000"><tspan x="33.867233" y="16.655598">SmartUPS</tspan></text><text style="word-spacing:0px;letter-spacing:0px" line-height="125%" transform="matrix(.9322 .5382 0 1.073 0 0)" font-size="5.547px" y="23.933678" x="37.832466" font-family="Sans" xml:space="preserve" fill="#000000"><tspan y="23.933678" x="37.832466">750</tspan></text><path d="m139.1 92.71-47.63-27.5-.2525 14.95 17.63 10.18c4.018-2.68 8.348-.1802 12.93 7.466l17.07 9.854z" stroke="#000" stroke-width="1px" fill="none"/><text style="word-spacing:0px;letter-spacing:0px" xml:space="preserve" transform="matrix(1 .5774 0 1 0 0)" font-size="3.757px" y="28.420719" x="111.15646" font-family="Sans" line-height="125%" fill="#000000"><tspan x="111.15646" y="28.420719">APC</tspan></text><g transform="translate(37.48 -60.1)"><ellipse stroke-linejoin="round" rx="2.5" ry="2.165" stroke="#999" transform="matrix(.8660 .5 0 1 0 0)" cy="101.5" cx="95.56" stroke-width="2.149" fill="#999"/><text style="word-spacing:0px;letter-spacing:0px" xml:space="preserve" transform="matrix(1 .5774 0 1 0 0)" font-size="4.963px" y="103.11614" x="82.188881" font-family="Sans" line-height="125%" fill="#000000"><tspan x="82.188881" y="103.11614">I</tspan></text></g><g transform="translate(28.99 -73.36)"><ellipse stroke-linejoin="round" rx="2.5" ry="2.165" stroke="#999" transform="matrix(.8660 .5 0 1 0 0)" cy="109.5" cx="95.56" stroke-width="2.149" fill="#999"/><text style="word-spacing:0px;letter-spacing:0px" transform="matrix(1 .3094 0 1 0 0)" line-height="125%" xml:space="preserve" font-size="5.149px" y="133.66286" x="81.287567" font-family="Sans" fill="#000000"><tspan y="133.66286" x="81.287567">0</tspan></text></g><g stroke-linejoin="round" transform="translate(-2.125)" stroke="#0f0" fill="#0f0"><g stroke-width=".5990"><ellipse rx=".6968" ry=".6035" transform="matrix(.8660 0.5 0 1 0 0)" cy="14.2" cx="148.7"/><ellipse rx=".6968" ry=".6035" transform="matrix(.8660 0.5 0 1 0 0)" cy="18.37" cx="148.7"/><ellipse rx=".6968" ry=".6035" transform="matrix(.8660 0.5 0 1 0 0)" cy="22.54" cx="148.7"/></g><g stroke-width=".4750"><ellipse rx=".7665" ry=".3450" transform="matrix(.8631 .5050 0 1 0 0)" cy="13" cx="155"/><ellipse rx=".7665" ry=".3450" transform="matrix(.8631 .5050 0 1 0 0)" cy="15.25" cx="155"/><ellipse rx=".7665" ry=".3450" transform="matrix(.8631 .5050 0 1 0 0)" cy="17.51" cx="155"/><ellipse rx=".7665" ry=".3450" transform="matrix(.8631 .5050 0 1 0 0)" cy="19.76" cx="155"/><ellipse rx=".7665" ry=".3450" transform="matrix(.8631 .5050 0 1 0 0)" cy="22.02" cx="155"/></g></g><g stroke-linejoin="round" transform="matrix(-1 0 0 -1 233.1 173.6)" stroke="#0f0" fill="#0f0"><g stroke-width=".5990"><ellipse rx=".6968" transform="matrix(.8660 0.5 0 1 0 0)" ry=".6035" cy="14.2" cx="148.7"/><ellipse rx=".6968" transform="matrix(.8660 0.5 0 1 0 0)" ry=".6035" cy="18.37" cx="148.7"/><ellipse rx=".6968" transform="matrix(.8660 0.5 0 1 0 0)" ry=".6035" cy="22.54" cx="148.7"/></g><g stroke-width=".4750"><ellipse rx=".7665" transform="matrix(.8631 .5050 0 1 0 0)" ry=".3450" cy="13" cx="155"/><ellipse rx=".7665" transform="matrix(.8631 .5050 0 1 0 0)" ry=".3450" cy="15.25" cx="155"/><ellipse rx=".7665" transform="matrix(.8631 .5050 0 1 0 0)" ry=".3450" cy="17.51" cx="155"/><ellipse rx=".7665" transform="matrix(.8631 .5050 0 1 0 0)" ry=".3450" cy="19.76" cx="155"/><ellipse rx=".7665" transform="matrix(.8631 .5050 0 1 0 0)" ry=".3450" cy="22.02" cx="155"/></g></g><g stroke="#000" stroke-width="1px" fill="none"><path d="m142.2 96.11 16.09 9.238"/><path d="m142.3 100.4 16.09 9.238"/><path d="m142.3 105.2 16.09 9.238"/><path d="m142.3 108.9 16.09 9.238"/></g>
</g>
</svg>
