<svg xmlns:rdf="http://www.w3.org/1999/02/22-rdf-syntax-ns#" xmlns="http://www.w3.org/2000/svg" height="1052" width="744.1" version="1.1" xmlns:cc="http://creativecommons.org/ns#" xmlns:dc="http://purl.org/dc/elements/1.1/" enable-background="new">
<g><g stroke-linejoin="round" stroke="#000"><g stroke-width="2"><path d="m-17.32 0v20l8.66-5v-20z" fill="#999"/><path d="m-8.66-5 8.66 5v20l-8.66-5z" fill="#ccc"/><path d="m-17.32 0 8.66 5v20l-8.66-5z" fill="#fff"/></g><path d="m-10.92 13.55c0 .4444-.1339.7802-.3635.9913-.3882.357-3.814 2.451-3.814 2.451l-3.522-4.585 3.487-1.994s1.099-.8269 2.048-.2788c1.196.6904 2.165 2.219 2.165 3.415z" stroke-opacity=".9727" fill="#ccc"/><path d="m-14.66 15.98a2.878 1.628 53.05 0 1 -2.165 .915 2.878 1.628 53.05 0 1 -2.165 -3.415 2.878 1.628 53.05 0 1 2.165 -.9151 2.878 1.628 53.05 0 1 2.165 3.415z" stroke-opacity=".9727" fill="#ccc"/><g stroke-width="2"><path d="m-8.66 5 8.66-5l173.2 100-8.66 5z" fill="#f5f5f5"/><path d="m164.5 105v20l8.66-5v-20z" fill="#808080"/><path d="m-8.66 5 173.2 100v20l-173.2-100z" fill="#fff"/></g></g><path d="m42.98 47.02-45.39-26.09.00001 4.542 45.39 26.09v-4.542" stroke="#808080" stroke-width="1px" fill="#fff"/><path d="m.03933 15.34-2.205-1.258.00001 2.646 2.205 1.258v-2.646" stroke="#b3b3b3" stroke-width=".8220px" fill="#b3b3b3"/><ellipse stroke-linejoin="round" rx=".8462" transform="matrix(.8069 .5907 0 1 0 0)" stroke="#b3b3b3" ry=".6828" cy="16.39" cx="3.364" stroke-width="1.148" fill="#b3b3b3"/><path d="m38.58 35.59-5.462-3.119.0331 2.093 5.462 3.119l-.03-2.09" stroke="#808080" stroke-width="1px" fill="#fff"/><path d="m29.93 30.48-5.462-3.119.0331 2.093 5.462 3.119l-.03-2.09" stroke="#808080" stroke-width="1px" fill="#fff"/><text style="word-spacing:0px;letter-spacing:0px" xml:space="preserve" font-size="3.254px" transform="matrix(1 .5774 0 1 0 0)" y="20.673933" x="23.998137" font-family="Sans" line-height="125%" fill="#000000"><tspan y="20.673933" x="23.998137">x3250 M3</tspan></text><g stroke="#000"><g stroke-linejoin="round"><g stroke-width="2"><path d="m173.2 100 8.66 5v20l-8.66-5z" fill="#b3b3b3"/><path d="m164.5 105 8.66 5v20l-8.66-5z" fill="#fff"/><path d="m181.9 105-8.66 5v20l8.66-5z" fill="#c8c8c8"/></g><path d="m170.9 118.6c0 .4444-.1339.7802-.3635.9913-.3882.3571-3.814 2.451-3.814 2.451l-3.522-4.585 3.487-1.994s1.099-.8269 2.048-.2788c1.196.6904 2.165 2.219 2.165 3.415z" stroke-opacity=".9727" fill="#ccc"/><path d="m167.2 121a2.878 1.628 53.05 0 1 -2.165 .915 2.878 1.628 53.05 0 1 -2.165 -3.415 2.878 1.628 53.05 0 1 2.165 -.9151 2.878 1.628 53.05 0 1 2.165 3.415z" stroke-opacity=".9727" fill="#ccc"/></g><g stroke-width="1px"><path d="m100.6 70.46-47.3-27.53.00001 15 47.3 27.52v-15" fill="#c8c8c8"/><path d="m53.28 57.64 12.58-7.15" fill="none"/><path d="m151.2 99.98-47.3-27.52.000010 15 47.3 27.52v-15" fill="#c8c8c8"/><path d="m104.2 87.16 12.58-7.148" fill="none"/></g></g><text style="word-spacing:0px;letter-spacing:0px" xml:space="preserve" font-size="3.254px" transform="matrix(1 .5774 0 1 0 0)" y="15.443953" x="155.70206" font-family="Sans" line-height="125%" fill="#000000"><tspan y="15.443953" x="155.70206">IBM</tspan></text><g stroke-width=".8220px"><path d="m11.27 21.89-2.205-1.258.000010 2.646 2.205 1.258v-2.646" stroke="#b3b3b3" fill="#b3b3b3"/><path d="m15.67 24.51-2.205-1.258.000010 2.646 2.205 1.258v-2.646" stroke="#f60" fill="#f60"/><path d="m19.98 26.95-2.205-1.258.00001 2.646 2.205 1.258v-2.646" stroke="#f60" fill="#f60"/></g></g>
</svg>
