<svg xmlns:rdf="http://www.w3.org/1999/02/22-rdf-syntax-ns#" style="enable-background:new" xmlns="http://www.w3.org/2000/svg" height="1052" width="744.1" version="1.1" xmlns:cc="http://creativecommons.org/ns#" xmlns:dc="http://purl.org/dc/elements/1.1/">
<g>
<g stroke-linejoin="round" stroke="#000" stroke-width="2"><path d="m-21.65 32.5v-5l12.99-12.5v10l-8.66 5v10l-4.33 2.5z" fill="#c8c8c8"/><path d="m-8.66 15 8.66 5v10l-8.66-5z" fill="#fff"/><path d="m-12.99 37.5 12.99-7.5v10l-12.99 7.5z" fill="#c8c8c8"/><path d="m-21.65 32.5 8.66-5 4.33 2.5c1.443.8333 2.887 1.667 4.33 2.5l-8.66 5z" fill="#f5f5f5"/><path d="m-12.99 47.5-8.66-5v-10l8.66 5z" fill="#fff"/></g><path stroke-linejoin="round" d="m-17.84 31.64 5.758 3.596v-2.379c-3.085-.7418-3.048-1.108-5.758-3.596z" stroke="#3771c8" stroke-width="2" fill="#3771c8"/><g stroke="#000"><path stroke-linejoin="round" d="m164.5 119.5-.0398 25.47 8.66-5 .0398-25.47z" stroke-width="2" fill="#c8c8c8"/><path stroke-linejoin="round" d="m-17.32-.1016v14.53l8.66 5v5.576 20l173.2 100v-20-5.475l8.66 5v-14.53l-8.66-5-173.2-100v-.1016l-8.66-5z" stroke-width="2" fill="#fff"/><path stroke-linejoin="bevel" d="m-2.917 13.27v30l103.9 60v-30z" stroke-linecap="round" stroke-width="1px" fill="#e6e6e6"/><g stroke-linejoin="round" stroke-width="2"><path d="m173.2 100 8.66 5-.00025 30-8.66-5z" fill="#fff"/><path d="m160.2 137.5 8.66-5 4.33 2.5 4.33-2.5 4.33 2.5-12.99 7.5z" fill="#f5f5f5"/><path d="m168.9 152.5-8.66-5v-10l8.66 5z" fill="#fff"/></g></g><path stroke-linejoin="round" d="m164 136.6 5.758 3.596v-2.379c-3.085-.7418-3.048-1.108-5.758-3.596z" stroke="#3771c8" stroke-width="2" fill="#3771c8"/><path stroke-linejoin="round" d="m168.9 142.5v-5l12.99-12.5v10l-8.66 5v10l-4.33 2.5z" stroke="#000" stroke-width="2" fill="#c8c8c8"/><text style="word-spacing:0px;letter-spacing:0px" line-height="125%" transform="matrix(1 .5774 0 1 0 0)" font-size="3.254px" y="18.395729" x="165.02554" font-family="Sans" xml:space="preserve" fill="#000000"><tspan y="18.395729" x="165.02554">IBM</tspan></text><g fill="#fff"><path stroke-linejoin="bevel" d="m200 10 10-10v14.53l-10 10z" transform="matrix(.8660 .5 0 1 0 0)" stroke="#000" stroke-width="2.149"/><path stroke-linejoin="round" d="m-17.32-.1016 8.66-5 190.5 110.1-8.66 5z" stroke="#000" stroke-width="2"/><g stroke-width="1px" stroke="#808080"><path stroke-linejoin="round" d="m105.3 100.6.00001 4.542 53.43 30.78v-4.542z"/><path d="m122.5 98.48.0331 2.093 5.462 3.119-.0331-2.093z"/><path d="m136 106.3-5.462-3.119.0331 2.093 5.462 3.119-.0331-2.093z"/></g></g><g stroke-width="1px"><path stroke-linejoin="bevel" d="m-2.917 13.27v30l25.98-15z" stroke="#000" stroke-linecap="round" fill="#999"/><path d="m106 94.72.00001 3.218 31.64 18.11-.00001-3.218z" stroke="#808080" fill="#fff"/><path d="m139 113.7.000010 3.218 2.682 1.53-.00001-3.218z" stroke="#3771c8" fill="#3771c8"/></g><path d="m120.7 104.2.00001 1.251 1.043.5951-.000010-1.251z" stroke="#00f" stroke-width=".3888px" fill="#00f"/><g stroke-linejoin="round" transform="translate(-2.003 9.481)" stroke="#808080"><path stroke-width=".6283" fill="#00f" d="m107.1 80.8 8.205 4.737-1.176 1.556-5.705-3.294z"/><path fill="#808080" d="m108.7 80.24 8.108 4.493-1.39.5957-8.108-4.493z"/><path stroke-width="1px" fill="#808080" d="m114.3 86.97.9597-1.522 1.688-.6619-.8936 1.291z"/></g><text style="word-spacing:0px;letter-spacing:0px" line-height="125%" transform="matrix(.7071 .4083 0 1.414 0 0)" font-size="2.301px" y="20.911419" x="206.31877" font-family="Sans" xml:space="preserve" fill="#000000"><tspan y="20.911419" x="206.31877">System x3650 M3</tspan></text>
</g>
</svg>
