<svg xmlns:rdf="http://www.w3.org/1999/02/22-rdf-syntax-ns#" xmlns="http://www.w3.org/2000/svg" height="1052" width="744.1" version="1.1" xmlns:cc="http://creativecommons.org/ns#" xmlns:dc="http://purl.org/dc/elements/1.1/" enable-background="new">
<g><g stroke-linejoin="round" stroke="#000"><rect stroke-opacity=".9727" transform="matrix(.8660 0.5 0 1 0 0)" height="20" width="200" y=".000002617" x="-.00001526" stroke-width="2.149" fill="#fff"/><rect stroke-opacity=".9727" transform="matrix(.8660 -0.5 0 1 0 0)" height="20" width="375" y="200" x="200" stroke-width="2.149" fill="#c8c8c8"/><path d="m0 0 173.2 100 324.8-187.5-173.2-100z" stroke-width="2" fill="#f5f5f5"/></g><g stroke="#b3b3b3" stroke-width="1px" fill="none"><path d="m34.64-20 173.2 100"/><path d="m51.96-20 8.66-5 155.9 90-8.66 5z"/><path d="m108.3-12.5 8.66-5 86.6 50-8.66 5z"/></g><path d="m168.9-2.5 21.65-12.5 8.66 5-21.65 12.5z" stroke="#000" stroke-width="1px" fill="#4d4d4d"/><path d="m175.4-5.009 4.039-2.282c3.57.2501 5.278 2.323 7.358 4.03l-4.039 2.282c-1.81-3.047-4.583-3.542-7.358-4.03z" fill="#3771c8"/><path d="m324.8-137.5 34.64-20c28.87 16.67 83.5 47.87 121.2 70l-34.64 20z" stroke="#b3b3b3" stroke-width="1px" fill="none"/></g>
</svg>
