<svg xmlns:rdf="http://www.w3.org/1999/02/22-rdf-syntax-ns#" xmlns="http://www.w3.org/2000/svg" height="1052" width="744.1" version="1.1" xmlns:cc="http://creativecommons.org/ns#" xmlns:dc="http://purl.org/dc/elements/1.1/" enable-background="new">
<g><g stroke-linejoin="round" stroke="#000"><rect stroke-opacity=".9727" transform="matrix(.8660 0.5 0 1 0 0)" height="20" width="200" y=".00001262" x="-.00001526" stroke-width="2.149" fill="#fff"/><rect stroke-opacity=".9727" transform="matrix(.8660 -0.5 0 1 0 0)" height="20" width="290" y="200" x="200" stroke-width="2.149" fill="#c8c8c8"/><path d="m0 0 173.2 100 251.2-145-173.3-100z" stroke-width="2" fill="#f5f5f5"/></g><path d="m8.66 5 21.65-12.5 155.9 90-21.6 12.5" stroke="#b3b3b3" stroke-miterlimit="0" fill="none"/><path d="m25.98-15 173.2 100" stroke-miterlimit="0" stroke="#b3b3b3"/><path stroke-linejoin="round" d="m65.12-14.31c0 1.623-.2147 3.657-2.542 4.931l-5.342 2.923-13.94-8.546 3.501-2.54c1.774-1.287 5.097-2.287 8.275-2.287 5.74 0 10.05 2.757 10.05 5.519z" stroke-opacity=".9727" stroke="#000" fill="#3771c8"/><path stroke-linejoin="round" d="m207.1 67.15c0 1.623-.2147 3.657-2.542 4.931l-5.342 2.923-13.94-8.546 3.501-2.54c1.774-1.287 5.097-2.287 8.275-2.287 5.74 0 10.05 2.758 10.05 5.519z" stroke-opacity=".9727" stroke="#000" fill="#3771c8"/></g>
</svg>
