<svg xmlns:rdf="http://www.w3.org/1999/02/22-rdf-syntax-ns#" style="enable-background:new" xmlns="http://www.w3.org/2000/svg" height="1052" width="744.1" version="1.1" xmlns:cc="http://creativecommons.org/ns#" xmlns:dc="http://purl.org/dc/elements/1.1/">
<g>
<g stroke-linejoin="round" stroke="#000"><rect stroke-opacity=".9727" transform="matrix(.8660 .5 0 1 0 0)" height="40" width="200" y=".00001262" x="-.00001526" stroke-width="2.149" fill="#fff"/><rect stroke-opacity=".9727" transform="matrix(.8660 -.5 0 1 0 0)" height="40" width="350" y="200" x="200" stroke-width="2.149" fill="#ececec"/><path d="m0 0 173.2 100 303.1-175-173.2-100z" stroke-width="2" fill="#f9f9f9"/></g><path d="m28.69-16.61 116.9 67.5-12.99 7.5 56.29 32.5" stroke="#b3b3b3" stroke-miterlimit="0" fill="none"/><g transform="translate(-113.4 -89.67)"><path d="m294.6 164.5 21.65-12.5 8.66 5-21.65 12.5z" stroke="#000" stroke-width="1px" fill="#4d4d4d"/><path fill="#3771c8" d="m301.1 161.9 4.039-2.282c3.57.2501 5.278 2.323 7.358 4.03l-4.039 2.282c-1.81-3.047-4.583-3.542-7.358-4.03z"/></g>
</g>
</svg>
