<svg xmlns:rdf="http://www.w3.org/1999/02/22-rdf-syntax-ns#" xmlns="http://www.w3.org/2000/svg" height="1052" width="744.1" version="1.1" xmlns:cc="http://creativecommons.org/ns#" xmlns:dc="http://purl.org/dc/elements/1.1/" enable-background="new">
<g><path stroke-linejoin="round" d="m-21.65 2.5v20l12.99-7.5v-20z" stroke="#000" stroke-width="2" fill="#4d4d4d"/><path stroke-linejoin="round" d="m-12.99 27.5-8.66-5v-15l8.66 5z" stroke="#000" stroke-width="2" fill="#fff"/><text font-size="3.254px" line-height="125%" transform="matrix(1 .5774 0 1 0 0)" style="word-spacing:0px;letter-spacing:0px" y="31.3585" x="-20.23081" font-family="Sans" xml:space="preserve" fill="#000000"><tspan y="31.3585" x="-20.23081">IBM</tspan></text><g stroke-linejoin="round" stroke="#000" stroke-width="2"><path d="m-21.65 7.5 12.99-7.5 8.66 5-12.99 7.5z" fill="#969696"/><path d="m-12.99 7.5v20l12.99-7.5v-20z" fill="#c8c8c8"/><path d="m-21.65 2.5 12.99-7.5 8.66 5-12.99 7.5z" fill="#f5f5f5"/></g><path d="m-21.65 7.5 8.66 5" stroke="#00f" stroke-width="1px" fill="#00f"/><text font-size="2.338px" transform="matrix(1 .5774 0 1 0 0)" line-height="125%" style="word-spacing:0px;letter-spacing:0px;text-anchor:middle;text-align:center" xml:space="preserve" y="23.727335" x="-17.266851" font-family="Sans" fill="#000000"><tspan y="23.727335" x="-17.266851">3250</tspan><tspan y="26.650003" x="-17.266851">M5</tspan></text><g stroke-linejoin="round" stroke="#000" stroke-width="2"><path d="m-8.66 5 8.66-5l173.2 100-8.66 5z" fill="#f5f5f5"/><path d="m164.5 105v20l8.66-5v-20z" fill="#fff"/><path d="m-8.66 5 173.2 100v20l-173.2-100z" fill="#fff"/></g>
<g stroke="#000" stroke-width="1px" stroke-linecap="round" fill="#c8c8c8"><path d="m75.44 55.96-25.98-15 .000010 15 25.98 15v-15"/><path d="m103.4 72.17-25.98-15 .00001 15 25.98 15v-15"/><path d="m131.4 88.38-25.98-15 .00001 15 25.98 15v-15"/><path d="m159.3 104.6-25.98-15 .00001 15 25.98 15v-15"/></g><path d="m-6.13 18.81.000010 4.542 53.43 30.78-.000005-4.542z" stroke="#808080" stroke-width="1px" fill="#fff"/><ellipse stroke-linejoin="round" rx="1.105" ry=".8918" stroke="#999" transform="matrix(.8069 .5907 0 1 0 0)" cy="19.26" cx="-4.219" stroke-width="1.5" fill="#999"/><path d="m30.61 35.87.0331 2.093 5.462 3.119l-.03-2.09z" stroke="#808080" stroke-width="1px" fill="#fff"/><path d="m41.8 42.08.0331 2.093 5.462 3.119l-.03-2.09z" stroke="#808080" stroke-width="1px" fill="#fff"/><g stroke-linejoin="round"><ellipse rx=".8462" ry=".6828" stroke="#f60" transform="matrix(.8069 .5907 0 1 0 0)" cy="18.92" cx=".7828" stroke-width="1.148" fill="#f60"/><path d="m160.2 107.5v20l12.99-7.5v-20z" stroke="#000" stroke-width="2" fill="#4d4d4d"/><path d="m168.9 132.5-8.66-5v-15l8.66 5z" stroke="#000" stroke-width="2" fill="#fff"/></g><text font-size="3.254px" transform="matrix(1 .5774 0 1 0 0)" line-height="125%" style="word-spacing:0px;letter-spacing:0px" xml:space="preserve" y="31.358532" x="161.63452" font-family="Sans" fill="#000000"><tspan y="31.358532" x="161.63452">IBM</tspan></text>
<g stroke-linejoin="round" stroke="#000" stroke-width="2"><path d="m160.2 112.5 12.99-7.5 8.66 5-12.99 7.5z" fill="#969696"/><path d="m168.9 112.5v20l12.99-7.5v-20z" fill="#c8c8c8"/><path d="m160.2 107.5 12.99-7.5 8.66 5-12.99 7.5z" fill="#f5f5f5"/></g><path d="m160.2 112.5 8.66 5" stroke="#00f" stroke-width="1px" fill="#00f"/><text font-size="2.338px" line-height="125%" transform="matrix(1 .5774 0 1 0 0)" style="word-spacing:0px;letter-spacing:0px;text-anchor:middle;text-align:center" y="23.727367" x="164.59848" font-family="Sans" xml:space="preserve" fill="#000000"><tspan y="23.727367" x="164.59848">3250</tspan><tspan y="26.650036" x="164.59848">M5</tspan></text><g stroke="#000" stroke-width="1px" fill="none"><path d="m49.46 55.96 12.8-7.39"/><path d="m77.42 72.17 12.79-7.39"/><path d="m105.4 88.38 12.8-7.389"/><path d="m133.3 104.6 12.8-7.389"/></g></g>
</svg>
