<svg xmlns:rdf="http://www.w3.org/1999/02/22-rdf-syntax-ns#" xmlns="http://www.w3.org/2000/svg" height="1052" width="744.1" version="1.1" xmlns:cc="http://creativecommons.org/ns#" xmlns:dc="http://purl.org/dc/elements/1.1/">
<g stroke-linejoin="bevel" stroke="#000" stroke-width="2"><rect transform="matrix(.8660 -.5 0 1 0 0)" height="840" width="15" y="210" x="580" fill="#b4b4b4"/><rect transform="matrix(.8660 .5 0 1 0 0)" height="840" width="20" y="-400" x="600" fill="#8c8c8c"/><rect transform="matrix(.8660 .5 0 1 0 0)" height="840" width="10" y="-385" x="595" fill="#e6e6e6"/><rect transform="matrix(.8660 -.5 0 1 0 0)" height="840" width="15" y="220" x="605" fill="#c8c8c8"/><rect transform="matrix(.8660 -.5 0 1 0 0)" height="840" width="15" y="210" x="225" fill="#b4b4b4"/><rect transform="matrix(.8660 .5 0 1 0 0)" height="840" width="10" y="-15" x="225" fill="#8c8c8c"/><rect transform="matrix(.8660 .5 0 1 0 0)" height="840" width="20" y="6.172e-7" x="200" fill="#fff"/><rect transform="matrix(.8660 -.5 0 1 0 0)" height="840" width="15" y="220" x="220" fill="#c8c8c8"/><rect transform="matrix(.8660 -.5 0 1 0 0)" height="840" width="15" y="207.6" x="518.3" fill="#b4b4b4"/><rect transform="matrix(.8660 -.5 0 1 0 0)" height="840" width="15" y="207.6" x="488.3" fill="#b4b4b4"/><rect transform="matrix(.8660 .5 0 1 0 0)" height="840" width="10" y="-295.7" x="503.3" fill="#e6e6e6"/><rect transform="matrix(.8660 .5 0 1 0 0)" height="840" width="10" y="-310.7" x="518.3" fill="#8c8c8c"/><rect transform="matrix(.8660 -.5 0 1 0 0)" height="840" width="15" y="217.6" x="513.3" fill="#c8c8c8"/></g>
</svg>
