<svg xmlns:rdf="http://www.w3.org/1999/02/22-rdf-syntax-ns#" xmlns="http://www.w3.org/2000/svg" height="1052" width="744.1" version="1.1" xmlns:cc="http://creativecommons.org/ns#" xmlns:dc="http://purl.org/dc/elements/1.1/">
<g>
<path stroke-linejoin="bevel" d="m328.1-208l-13 7.5v840l17.3 10 13-7.5v-840l-17.3-10zm-333.4 190.5l-12.99 7.5v840l17.32 10 12.99-7.5v-840l-17.32-10z" stroke="#000" stroke-width="3" fill="#808080"/><g transform="translate(332.4 -190.5)"><rect transform="matrix(.8660 .5 0 1 0 0)" height="840" width="20" y="-15" x="-5" fill="#808080"/><rect transform="matrix(.8660 -.5 0 1 0 0)" height="840" width="15" y="-20" x="-20" fill="#333"/><rect transform="matrix(.8660 .5 0 1 0 0)" height="840" width="20" y="-2.696e-7" x="-20" fill="#f2f2f2"/><rect transform="matrix(.8660 -.5 0 1 0 0)" height="840" width="15" y="0" x="0" fill="#ccc"/></g><g transform="translate(-1)"><rect transform="matrix(.8660 .5 0 1 0 0)" height="840" width="20" y="-15" x="-5" fill="#808080"/><rect transform="matrix(.8660 -.5 0 1 0 0)" height="840" width="15" y="-20" x="-20" fill="#333"/><rect transform="matrix(.8660 .5 0 1 0 0)" height="840" width="20" y="-2.696e-7" x="-20" fill="#f2f2f2"/><rect transform="matrix(.8660 -.5 0 1 0 0)" height="840" width="15" y="0" x="0" fill="#ccc"/></g>
</g>
</svg>
