<svg xmlns:rdf="http://www.w3.org/1999/02/22-rdf-syntax-ns#" xmlns="http://www.w3.org/2000/svg" height="1052" width="744.1" version="1.1" xmlns:cc="http://creativecommons.org/ns#" xmlns:dc="http://purl.org/dc/elements/1.1/">
<g>
<g stroke-linejoin="bevel" stroke="#000" stroke-width="2"><rect transform="matrix(.8660 -.5 0 1 0 0)" height="840" width="15" y="-20" x="365" fill="#646464"/><rect transform="matrix(.8660 .5 0 1 0 0)" height="840" width="20" y="-400" x="380" fill="#8c8c8c"/><rect transform="matrix(.8660 .5 0 1 0 0)" height="840" width="10" y="-385" x="365" fill="#ccc"/><rect transform="matrix(.8660 -.5 0 1 0 0)" height="840" width="15" y="-10" x="360" fill="#b4b4b4"/><rect transform="matrix(.8660 .5 0 1 0 0)" height="840" width="10" y="-15" x="-5" fill="#8c8c8c"/><rect transform="matrix(.8660 -.5 0 1 0 0)" height="840" width="15" y="-20" x="-20" fill="#646464"/><rect transform="matrix(.8660 .5 0 1 0 0)" height="840" width="20" y="-2.696e-7" x="-20" fill="#fff"/><rect transform="matrix(.8660 -.5 0 1 0 0)" height="840" width="15" y="-10" x="5" fill="#b4b4b4"/><rect transform="matrix(.8660 .5 0 1 0 0)" height="840" width="10" y="-310.7" x="290.7" fill="#8c8c8c"/><rect transform="matrix(.8660 -.5 0 1 0 0)" height="840" width="15" y="-20" x="275.7" fill="#646464"/><rect transform="matrix(.8660 -.5 0 1 0 0)" height="840" width="15" y="-10" x="300.7" fill="#b4b4b4"/><rect transform="matrix(.8660 .5 0 1 0 0)" height="840" width="10" y="-295.7" x="275.7" fill="#8c8c8c"/><rect transform="matrix(.8660 -.5 0 1 0 0)" height="840" width="15" y="-10" x="270.7" fill="#b4b4b4"/>
</g>
</g>
</svg>
