<?xml version="1.0" encoding="UTF-8" standalone="no"?>
<!-- Created with Inkscape (http://www.inkscape.org/) -->

<svg
   xmlns:dc="http://purl.org/dc/elements/1.1/"
   xmlns:cc="http://creativecommons.org/ns#"
   xmlns:rdf="http://www.w3.org/1999/02/22-rdf-syntax-ns#"
   xmlns:svg="http://www.w3.org/2000/svg"
   xmlns="http://www.w3.org/2000/svg"
   xmlns:sodipodi="http://sodipodi.sourceforge.net/DTD/sodipodi-0.dtd"
   xmlns:inkscape="http://www.inkscape.org/namespaces/inkscape"
   width="744.09448819"
   height="1052.3622047"
   id="svg2"
   version="1.1"
   inkscape:version="0.91 r13725"
   sodipodi:docname="dgs-1210-16.svg"
   enable-background="new">
  <defs
     id="defs4" />
  <sodipodi:namedview
     id="base"
     pagecolor="#ffffff"
     bordercolor="#666666"
     borderopacity="1.0"
     inkscape:pageopacity="0.0"
     inkscape:pageshadow="2"
     inkscape:zoom="2.8284271"
     inkscape:cx="-36.860224"
     inkscape:cy="1036.468"
     inkscape:document-units="px"
     inkscape:current-layer="layer5"
     showgrid="false"
     borderlayer="true"
     showborder="true"
     inkscape:window-width="1920"
     inkscape:window-height="1018"
     inkscape:window-x="-8"
     inkscape:window-y="-8"
     inkscape:window-maximized="1"
     inkscape:showpageshadow="false"
     inkscape:snap-global="false"
     inkscape:snap-bbox="true"
     inkscape:snap-intersection-paths="true"
     inkscape:object-paths="true"
     inkscape:snap-bbox-edge-midpoints="true"
     inkscape:snap-bbox-midpoints="true"
     inkscape:bbox-nodes="true"
     inkscape:bbox-paths="true"
     inkscape:object-nodes="true"
     inkscape:snap-smooth-nodes="true"
     inkscape:snap-midpoints="true"
     inkscape:snap-object-midpoints="true"
     inkscape:snap-center="true"
     inkscape:snap-page="true">
    <inkscape:grid
       type="xygrid"
       id="grid2985"
       empspacing="5"
       visible="true"
       enabled="false"
       snapvisiblegridlinesonly="true" />
    <inkscape:grid
       type="axonomgrid"
       id="grid2989"
       units="px"
       empspacing="5"
       visible="true"
       enabled="true"
       snapvisiblegridlinesonly="true"
       spacingy="5px" />
  </sodipodi:namedview>
  <metadata
     id="metadata7">
    <rdf:RDF>
      <cc:Work
         rdf:about="">
        <dc:format>image/svg+xml</dc:format>
        <dc:type
           rdf:resource="http://purl.org/dc/dcmitype/StillImage" />
        <dc:title />
      </cc:Work>
    </rdf:RDF>
  </metadata>
  <g
     inkscape:label="Body"
     inkscape:groupmode="layer"
     id="layer1"
     style="display:inline">
    <g
       id="g5012">
      <rect
         transform="matrix(0.8660254,-0.5,0,1,0,0)"
         style="fill:#c8c8c8;fill-opacity:1;stroke:#000000;stroke-width:2.14913988;stroke-linejoin:bevel;stroke-miterlimit:4;stroke-dasharray:none;stroke-opacity:1"
         id="rect3897"
         width="60"
         height="20"
         x="200"
         y="200" />
      <path
         sodipodi:nodetypes="ccccc"
         inkscape:connector-curvature="0"
         id="path3899"
         d="M 0,-10e-6 173.20508,100.00002 225.1666,70 51.961524,-30 Z"
         style="fill:#f5f5f5;fill-opacity:1;stroke:#000000;stroke-width:2;stroke-linecap:butt;stroke-linejoin:round;stroke-miterlimit:4;stroke-dasharray:none;stroke-opacity:1" />
    </g>
  </g>
  <g
     inkscape:groupmode="layer"
     id="layer5"
     inkscape:label="Front"
     style="display:inline">
    <rect
       style="display:inline;fill:#ffffff;fill-opacity:1;stroke:#000000;stroke-width:2.14913988;stroke-linejoin:round;stroke-miterlimit:4;stroke-dasharray:none;stroke-opacity:1"
       id="rect3895"
       width="200"
       height="20"
       x="-1.5258789e-005"
       y="2.6171876e-006"
       transform="matrix(0.8660254,0.5,0,1,0,0)" />
    <path
       style="fill:#ffffff;fill-opacity:1;stroke:#000000;stroke-width:2;stroke-linejoin:round;stroke-miterlimit:4;stroke-dasharray:none;stroke-opacity:1"
       d="m 0,0 173.20508,100.00002 0,20 L 0,20 Z"
       id="rect4248"
       inkscape:connector-curvature="0"
       sodipodi:nodetypes="ccccc" />
    <path
       inkscape:connector-curvature="0"
       id="path4273"
       d="m 173.20508,100.00002 8.66025,5 0,20 -8.66025,-5 z"
       style="fill:#ffffff;fill-opacity:1;stroke:#000000;stroke-width:2;stroke-linecap:butt;stroke-linejoin:round;stroke-miterlimit:4;stroke-dasharray:none;stroke-opacity:1"
       sodipodi:nodetypes="ccccc" />
    <path
       style="display:inline;opacity:1;fill:#999999;fill-opacity:1;stroke:#000000;stroke-width:1;stroke-linecap:butt;stroke-linejoin:miter;stroke-miterlimit:4;stroke-dasharray:none;stroke-opacity:1"
       d="m 65.095476,54.327447 0,-1.26732 1.46409,0.84528 0,-5.35092 -4.57276,-2.64008 0,5.35093 1.46409,0.84528 0,1.26733 1.64458,0.9495 z"
       id="path4151"
       inkscape:connector-curvature="0" />
    <path
       inkscape:connector-curvature="0"
       id="path4153"
       d="m 63.450896,40.141447 0,1.26732 -1.46409,-0.84528 0,5.35092 4.57276,2.64008 0,-5.35093 -1.46409,-0.84528 0,-1.26733 -1.64458,-0.9495 z"
       style="display:inline;opacity:1;fill:#999999;fill-opacity:1;stroke:#000000;stroke-width:1;stroke-linecap:butt;stroke-linejoin:miter;stroke-miterlimit:4;stroke-dasharray:none;stroke-opacity:1" />
    <path
       inkscape:connector-curvature="0"
       id="path4155"
       d="m 69.668236,56.967522 0,-1.26732 1.46409,0.84528 0,-5.35092 -4.57276,-2.64008 0,5.35093 1.46409,0.84528 0,1.26733 1.64458,0.9495 z"
       style="display:inline;opacity:1;fill:#999999;fill-opacity:1;stroke:#000000;stroke-width:1;stroke-linecap:butt;stroke-linejoin:miter;stroke-miterlimit:4;stroke-dasharray:none;stroke-opacity:1" />
    <path
       style="display:inline;opacity:1;fill:#999999;fill-opacity:1;stroke:#000000;stroke-width:1;stroke-linecap:butt;stroke-linejoin:miter;stroke-miterlimit:4;stroke-dasharray:none;stroke-opacity:1"
       d="m 68.023656,42.781522 0,1.26732 -1.46409,-0.84528 0,5.35092 4.57276,2.64008 0,-5.35093 -1.46409,-0.84528 0,-1.26733 -1.64458,-0.9495 z"
       id="path4157"
       inkscape:connector-curvature="0" />
    <path
       style="display:inline;opacity:1;fill:#999999;fill-opacity:1;stroke:#000000;stroke-width:1;stroke-linecap:butt;stroke-linejoin:miter;stroke-miterlimit:4;stroke-dasharray:none;stroke-opacity:1"
       d="m 74.240996,59.607597 0,-1.26732 1.46409,0.84528 0,-5.35092 -4.57276,-2.64008 0,5.35093 1.46409,0.84528 0,1.26733 1.64458,0.9495 z"
       id="path4159"
       inkscape:connector-curvature="0" />
    <path
       inkscape:connector-curvature="0"
       id="path4161"
       d="m 72.596416,45.421597 0,1.26732 -1.46409,-0.84528 0,5.35092 4.57276,2.64008 0,-5.35093 -1.46409,-0.84528 0,-1.26733 -1.64458,-0.9495 z"
       style="display:inline;opacity:1;fill:#999999;fill-opacity:1;stroke:#000000;stroke-width:1;stroke-linecap:butt;stroke-linejoin:miter;stroke-miterlimit:4;stroke-dasharray:none;stroke-opacity:1" />
    <path
       style="display:inline;opacity:1;fill:#666666;fill-opacity:1;stroke:#000000;stroke-width:1;stroke-linecap:butt;stroke-linejoin:miter;stroke-miterlimit:4;stroke-dasharray:none;stroke-opacity:1"
       d="m 139.79369,97.213966 0,-6.433677 -4.57276,-2.64008 0,6.433687 z"
       id="path4163"
       inkscape:connector-curvature="0"
       sodipodi:nodetypes="ccccc" />
    <path
       inkscape:connector-curvature="0"
       id="path4165"
       d="m 81.20749,50.266935 0,1.26732 -1.46409,-0.84528 0,5.35092 4.57276,2.64008 0,-5.35093 -1.46409,-0.84528 0,-1.26733 -1.64458,-0.9495 z"
       style="display:inline;opacity:1;fill:#999999;fill-opacity:1;stroke:#000000;stroke-width:1;stroke-linecap:butt;stroke-linejoin:miter;stroke-miterlimit:4;stroke-dasharray:none;stroke-opacity:1" />
    <path
       inkscape:connector-curvature="0"
       id="path4167"
       d="m 87.42483,67.09301 0,-1.26732 1.46409,0.84528 0,-5.35092 -4.57276,-2.64008 0,5.35093 1.46409,0.84528 0,1.26733 1.64458,0.9495 z"
       style="display:inline;opacity:1;fill:#999999;fill-opacity:1;stroke:#000000;stroke-width:1;stroke-linecap:butt;stroke-linejoin:miter;stroke-miterlimit:4;stroke-dasharray:none;stroke-opacity:1" />
    <path
       style="display:inline;opacity:1;fill:#999999;fill-opacity:1;stroke:#000000;stroke-width:1;stroke-linecap:butt;stroke-linejoin:miter;stroke-miterlimit:4;stroke-dasharray:none;stroke-opacity:1"
       d="m 85.78025,52.90701 0,1.26732 -1.46409,-0.84528 0,5.35092 4.57276,2.64008 0,-5.35093 -1.46409,-0.84528 0,-1.26733 -1.64458,-0.9495 z"
       id="path4169"
       inkscape:connector-curvature="0" />
    <path
       style="display:inline;opacity:1;fill:#999999;fill-opacity:1;stroke:#000000;stroke-width:1;stroke-linecap:butt;stroke-linejoin:miter;stroke-miterlimit:4;stroke-dasharray:none;stroke-opacity:1"
       d="m 91.99759,69.733085 0,-1.26732 1.46409,0.84528 0,-5.35092 -4.57276,-2.64008 0,5.35093 1.46409,0.84528 0,1.26733 1.64458,0.9495 z"
       id="path4171"
       inkscape:connector-curvature="0" />
    <path
       inkscape:connector-curvature="0"
       id="path4173"
       d="m 90.35301,55.547085 0,1.26732 -1.46409,-0.84528 0,5.35092 4.57276,2.64008 0,-5.35093 -1.46409,-0.84528 0,-1.26733 -1.64458,-0.9495 z"
       style="display:inline;opacity:1;fill:#999999;fill-opacity:1;stroke:#000000;stroke-width:1;stroke-linecap:butt;stroke-linejoin:miter;stroke-miterlimit:4;stroke-dasharray:none;stroke-opacity:1" />
    <path
       inkscape:connector-curvature="0"
       id="path4175"
       d="m 96.57035,72.37316 0,-1.26732 1.46409,0.84528 0,-5.35092 -4.57276,-2.64008 0,5.35093 1.46409,0.84528 0,1.26733 1.64458,0.9495 z"
       style="display:inline;opacity:1;fill:#999999;fill-opacity:1;stroke:#000000;stroke-width:1;stroke-linecap:butt;stroke-linejoin:miter;stroke-miterlimit:4;stroke-dasharray:none;stroke-opacity:1" />
    <path
       style="display:inline;opacity:1;fill:#999999;fill-opacity:1;stroke:#000000;stroke-width:1;stroke-linecap:butt;stroke-linejoin:miter;stroke-miterlimit:4;stroke-dasharray:none;stroke-opacity:1"
       d="m 94.92577,58.18716 0,1.26732 -1.46409,-0.84528 0,5.35092 4.57276,2.64008 0,-5.35093 -1.46409,-0.84528 0,-1.26733 -1.64458,-0.9495 z"
       id="path4177"
       inkscape:connector-curvature="0" />
    <path
       inkscape:connector-curvature="0"
       id="path4179"
       d="m 74.240996,59.607597 0,-1.26732 1.46409,0.84528 0,-5.35092 -4.57276,-2.64008 0,5.35093 1.46409,0.84528 0,1.26733 1.64458,0.9495 z"
       style="display:inline;opacity:1;fill:#999999;fill-opacity:1;stroke:#000000;stroke-width:1;stroke-linecap:butt;stroke-linejoin:miter;stroke-miterlimit:4;stroke-dasharray:none;stroke-opacity:1" />
    <path
       sodipodi:nodetypes="ccccc"
       inkscape:connector-curvature="0"
       id="path4181"
       d="m 139.79369,90.780284 0,-6.433677 -4.57276,-2.64008 0,6.433687 z"
       style="display:inline;opacity:1;fill:#666666;fill-opacity:1;stroke:#000000;stroke-width:1;stroke-linecap:butt;stroke-linejoin:miter;stroke-miterlimit:4;stroke-dasharray:none;stroke-opacity:1" />
    <path
       sodipodi:nodetypes="ccccc"
       inkscape:connector-curvature="0"
       id="path4183"
       d="m 135.22093,94.573891 0,-6.433677 -4.57276,-2.64008 0,6.433687 z"
       style="display:inline;opacity:1;fill:#666666;fill-opacity:1;stroke:#000000;stroke-width:1;stroke-linecap:butt;stroke-linejoin:miter;stroke-miterlimit:4;stroke-dasharray:none;stroke-opacity:1" />
    <path
       style="display:inline;opacity:1;fill:#666666;fill-opacity:1;stroke:#000000;stroke-width:1;stroke-linecap:butt;stroke-linejoin:miter;stroke-miterlimit:4;stroke-dasharray:none;stroke-opacity:1"
       d="m 135.22093,88.140209 0,-6.433677 -4.57276,-2.64008 0,6.433687 z"
       id="path4185"
       inkscape:connector-curvature="0"
       sodipodi:nodetypes="ccccc" />
    <path
       style="display:inline;opacity:1;fill:#999999;fill-opacity:1;stroke:#000000;stroke-width:1;stroke-linecap:butt;stroke-linejoin:miter;stroke-miterlimit:4;stroke-dasharray:none;stroke-opacity:1"
       d="m 82.85207,64.452935 0,-1.26732 1.46409,0.84528 0,-5.35092 -4.57276,-2.64008 0,5.35093 1.46409,0.84528 0,1.26733 1.64458,0.9495 z"
       id="path4187"
       inkscape:connector-curvature="0" />
    <text
       xml:space="preserve"
       style="font-style:normal;font-weight:normal;font-size:3.98011041px;line-height:125%;font-family:Sans;letter-spacing:0px;word-spacing:0px;fill:#000000;fill-opacity:1;stroke:none;stroke-width:1px;stroke-linecap:butt;stroke-linejoin:miter;stroke-opacity:1"
       x="1.878701"
       y="5.7310491"
       id="text4189"
       sodipodi:linespacing="125%"
       transform="matrix(0.89676399,0.51774693,0,1.1151206,0,0)"><tspan
         sodipodi:role="line"
         id="tspan4191"
         x="1.878701"
         y="5.7310491"
         style="font-style:normal;font-variant:normal;font-weight:bold;font-stretch:normal;font-family:Sans;-inkscape-font-specification:'Sans Bold'">D-Link </tspan></text>
    <text
       xml:space="preserve"
       style="font-style:normal;font-weight:normal;font-size:2.66739225px;line-height:125%;font-family:Sans;letter-spacing:0px;word-spacing:0px;fill:#000000;fill-opacity:1;stroke:none;stroke-width:1px;stroke-linecap:butt;stroke-linejoin:miter;stroke-opacity:1"
       x="18.247555"
       y="5.6306334"
       id="text4193"
       sodipodi:linespacing="125%"
       transform="matrix(0.89676399,0.51774693,0,1.1151206,0,0)"><tspan
         sodipodi:role="line"
         id="tspan4195"
         x="18.247555"
         y="5.6306334">Web Smart Switch</tspan></text>
    <text
       xml:space="preserve"
       style="font-style:normal;font-weight:normal;font-size:2.66739225px;line-height:125%;font-family:Sans;letter-spacing:0px;word-spacing:0px;fill:#000000;fill-opacity:1;stroke:none;stroke-width:1px;stroke-linecap:butt;stroke-linejoin:miter;stroke-opacity:1"
       x="1.8145483"
       y="15.796826"
       id="text4197"
       sodipodi:linespacing="125%"
       transform="matrix(0.89676399,0.51774693,0,1.1151206,0,0)"><tspan
         sodipodi:role="line"
         id="tspan4199"
         x="1.8145483"
         y="15.796826">DGS-1210-16</tspan></text>
    <path
       style="fill:none;fill-rule:evenodd;stroke:#b3b3b3;stroke-width:0.99751329px;stroke-linecap:butt;stroke-linejoin:miter;stroke-opacity:1"
       d="M 0.48401817,13.273825 C 16.060201,27.63844 22.349999,22.156286 57.364483,39.79729"
       id="path4208"
       inkscape:connector-curvature="0"
       sodipodi:nodetypes="cc" />
    <path
       style="fill:none;fill-rule:evenodd;stroke:#b3b3b3;stroke-width:0.99751329px;stroke-linecap:butt;stroke-linejoin:miter;stroke-opacity:1"
       d="M 0.58699237,10.634253 C 25.053879,16.017057 25.201979,39.091382 57.676983,46.238696"
       id="path4205"
       inkscape:connector-curvature="0"
       sodipodi:nodetypes="cc" />
    <path
       sodipodi:nodetypes="ccccc"
       style="fill:#ffffff;fill-opacity:1;stroke:#000000;stroke-width:2;stroke-linecap:butt;stroke-linejoin:round;stroke-miterlimit:4;stroke-dasharray:none;stroke-opacity:1"
       d="M -8.66025,-5 0,0 0,20 -8.66025,15 Z"
       id="path4447"
       inkscape:connector-curvature="0" />
    <path
       inkscape:connector-curvature="0"
       id="path4149"
       d="m 60.522716,51.687372 0,-1.26732 1.46409,0.84528 0,-5.35092 -4.57276,-2.64008 0,5.35093 1.46409,0.84528 0,1.26733 1.64458,0.9495 z"
       style="display:inline;opacity:1;fill:#999999;fill-opacity:1;stroke:#000000;stroke-width:1;stroke-linecap:butt;stroke-linejoin:miter;stroke-miterlimit:4;stroke-dasharray:none;stroke-opacity:1" />
    <path
       style="fill:none;fill-rule:evenodd;stroke:#b3b3b3;stroke-width:0.99751329px;stroke-linecap:butt;stroke-linejoin:miter;stroke-opacity:1"
       d="m 24.591764,26.296805 c 10.656168,6.713232 22.919928,11.271778 32.596522,15.794684"
       id="path4210"
       inkscape:connector-curvature="0"
       sodipodi:nodetypes="cc" />
    <path
       style="display:inline;opacity:1;fill:#999999;fill-opacity:1;stroke:#000000;stroke-width:1;stroke-linecap:butt;stroke-linejoin:miter;stroke-miterlimit:4;stroke-dasharray:none;stroke-opacity:1"
       d="m 58.878136,37.501372 0,1.26732 -1.46409,-0.84528 0,5.35092 4.57276,2.64008 0,-5.35093 -1.46409,-0.84528 0,-1.26733 -1.64458,-0.9495 z"
       id="path4207"
       inkscape:connector-curvature="0" />
  </g>
</svg>
