<svg xmlns:rdf="http://www.w3.org/1999/02/22-rdf-syntax-ns#" xmlns="http://www.w3.org/2000/svg" height="1052" width="744.1" version="1.1" enable-background="new" xmlns:cc="http://creativecommons.org/ns#" xmlns:dc="http://purl.org/dc/elements/1.1/">
<g>
<g><g stroke-linejoin="round" stroke="#000" fill="#fff"><rect transform="matrix(.8660 .5 0 1 0 0)" height="20" width="200" y=".000002617" x="-.00001526" stroke-width="2.149"/><path d="m0 0 173.2 100v20l-173.2-100z" stroke-width="2"/><path d="m173.2 100 8.66 5v20l-8.66-5z" stroke-width="2"/></g><g stroke="#000" fill="#999"><path d="m65.1 54.33v-1.267l1.464.8453v-5.351l-4.573-2.64v5.351l1.464.8453v1.267l1.645.9495z"/><path d="m63.45 40.14v1.267l-1.464-.8453v5.351l4.573 2.64v-5.351l-1.464-.8453v-1.267l-1.645-.9495z"/><path d="m69.67 56.97v-1.267l1.464.8453v-5.351l-4.573-2.64v5.351l1.464.8453v1.267l1.645.9495z"/><path d="m68.02 42.78v1.267l-1.464-.8453v5.351l4.573 2.64v-5.351l-1.464-.8453v-1.267l-1.645-.9495z"/><path d="m74.24 59.61v-1.267l1.464.8453v-5.351l-4.573-2.64v5.351l1.464.8453v1.267l1.645.9495z"/><path d="m72.6 45.42v1.267l-1.464-.8453v5.351l4.573 2.64v-5.351l-1.464-.8453v-1.267l-1.645-.9495z"/></g><path d="m139.8 97.21v-6.434l-4.573-2.64v6.434z" stroke="#000" fill="#666"/><g stroke="#000" fill="#999"><path d="m81.21 50.27v1.267l-1.464-.8453v5.351l4.573 2.64v-5.351l-1.464-.8453v-1.267l-1.645-.9495z"/><path d="m87.42 67.09v-1.267l1.464.8453v-5.351l-4.573-2.64v5.351l1.464.8453v1.267l1.645.9495z"/><path d="m85.78 52.91v1.267l-1.464-.8453v5.351l4.573 2.64v-5.351l-1.464-.8453v-1.267l-1.645-.9495z"/><path d="m92 69.73v-1.267l1.464.8453v-5.351l-4.573-2.64v5.351l1.464.8453v1.267l1.645.9495z"/><path d="m90.35 55.55v1.267l-1.464-.8453v5.351l4.573 2.64v-5.351l-1.464-.8453v-1.267l-1.645-.9495z"/><path d="m96.57 72.37v-1.267l1.464.8453v-5.351l-4.573-2.64v5.351l1.464.8453v1.267l1.645.9495z"/><path d="m94.93 58.19v1.267l-1.464-.8453v5.351l4.573 2.64v-5.351l-1.464-.8453v-1.267l-1.645-.9495z"/><path d="m74.24 59.61v-1.267l1.464.8453v-5.351l-4.573-2.64v5.351l1.464.8453v1.267l1.645.9495z"/></g><g stroke="#000" fill="#666"><path d="m139.8 90.78v-6.434l-4.573-2.64v6.434z"/><path d="m135.2 94.57v-6.434l-4.573-2.64v6.434z"/><path d="m135.2 88.14v-6.434l-4.573-2.64v6.434z"/></g><path d="m82.85 64.45v-1.267l1.464.8453v-5.351l-4.573-2.64v5.351l1.464.8453v1.267l1.645.9495z" stroke="#000" fill="#999"/><g font-family="Sans" fill="#000000"><text style="word-spacing:0px;letter-spacing:0px" transform="matrix(.8968 .5177 0 1.115 0 0)" line-height="125%" xml:space="preserve" font-size="3.98px" y="5.7310491" x="1.878701"><tspan font-weight="bold" y="5.7310491" x="1.878701" font-family="Sans">D-Link </tspan></text><text style="word-spacing:0px;letter-spacing:0px" transform="matrix(.8968 .5177 0 1.115 0 0)" line-height="125%" xml:space="preserve" font-size="2.667px" y="5.6306334" x="18.247555"><tspan y="5.6306334" x="18.247555">Web Smart Switch</tspan></text><text style="word-spacing:0px;letter-spacing:0px" transform="matrix(.8968 .5177 0 1.115 0 0)" line-height="125%" xml:space="preserve" font-size="2.667px" y="15.796826" x="1.8145483"><tspan y="15.796826" x="1.8145483">DGS-1210-16</tspan></text></g><g><g><path d="m.4840 13.27c15.58 14.37 21.87 8.89 56.88 26.53" stroke="#b3b3b3" stroke-width=".9975px" fill="none"/><path d="m.5870 10.63c24.46 5.39 24.61 28.46 57.09 35.61" stroke="#b3b3b3" stroke-width=".9975px" fill="none"/><path stroke-linejoin="round" d="m-8.66-5 8.66 5v20l-8.66-5z" stroke="#000" stroke-width="2" fill="#fff"/></g><g><path d="m60.52 51.69v-1.267l1.464.8453v-5.351l-4.573-2.64v5.351l1.464.8453v1.267l1.645.9495z" stroke="#000" fill="#999"/><path d="m24.59 26.3c10.66 6.713 22.92 11.27 32.6 15.79" stroke="#b3b3b3" stroke-width=".9975px" fill="none"/><path d="m58.88 37.5v1.267l-1.464-.8453v5.351l4.573 2.64v-5.351l-1.464-.8453v-1.267l-1.645-.9495z" stroke="#000" fill="#999"/></g></g></g>
</g>
</svg>
