<svg xmlns:rdf="http://www.w3.org/1999/02/22-rdf-syntax-ns#" xmlns="http://www.w3.org/2000/svg" height="1052" width="744.1" version="1.1" xmlns:cc="http://creativecommons.org/ns#" xmlns:dc="http://purl.org/dc/elements/1.1/" enable-background="new">
<g>
<g>
<g><path stroke-linejoin="round" d="m.00001732.000013v20l-.00002 40 173.2 100 .00002-40v-20z" stroke="#000" stroke-width="2" fill="#fff"/><path stroke-linejoin="round" d="m173.2 100v60l8.66 5v-60z" stroke="#000" stroke-width="2" fill="#fff"/><text style="word-spacing:0px;letter-spacing:0px" xml:space="preserve" font-size="2.667px" transform="matrix(.8968 .5177 0 1.115 0 0)" y="4.9894781" x="164.52515" font-family="Sans" line-height="125%" fill="#000000"><tspan y="4.9894781" x="164.52515"><tspan font-weight="bold" font-family="Sans">Cisco 3800 </tspan>Series</tspan></text></g><g stroke="#000"><g><path stroke-width="1px" d="m.5210 52.81 22.55 12.66 18.66-3.25 131.3 74.98" fill="none"/><path stroke-width="1px" d="m.2977 55.07 29.21 16.91 6.35 8.13" fill="none"/><rect transform="matrix(.8660 .5 0 1 0 0)" height="17.14" width="24.55" y="43.19" x="52.51" stroke-width="1.075" fill="#fff"/></g><path stroke-linejoin="round" stroke-width=".4411" d="m56.29 79.35 8.876 5.125v6.398l-1.556.4354-5.848-3.376-1.472-2.184z"/></g><g stroke-linejoin="round" stroke="#999" stroke-width=".6236" fill="#999"><rect transform="matrix(.8660 .5 0 1 0 0)" height="2.36" width=".4739" y="47.95" x="66.57"/><rect transform="matrix(.8660 .5 0 1 0 0)" height="2.36" width=".4739" y="47.95" x="73.21"/><rect transform="matrix(.8660 .5 0 1 0 0)" height="2.36" width=".4739" y="51.09" x="69.74"/></g><rect transform="matrix(.8660 .5 0 1 0 0)" height="6.816" width="3.768" stroke="#000" y="47.17" x="59.68" stroke-width="1.075"/><rect transform="matrix(.8660 .5 0 1 0 0)" height="8.571" width="24.72" stroke="#000" y="13.32" x="55.09" stroke-width="1.075" fill="#fff"/><g stroke="#008000" stroke-width=".2603" fill="#008000"><ellipse rx="1.01" transform="matrix(.9243 .3816 0 1 0 0)" ry=".8566" cy="26.39" cx="64.51"/><ellipse rx="1.01" ry=".8566" transform="matrix(.9243 .3816 0 1 0 0)" cy="25.92" cx="61.51"/><ellipse rx="1.01" transform="matrix(.9243 .3816 0 1 0 0)" ry=".8566" cy="25.45" cx="58.51"/><ellipse rx="1.01" ry=".8566" transform="matrix(.9243 .3816 0 1 0 0)" cy="24.98" cx="55.51"/><ellipse rx="1.01" ry=".8566" transform="matrix(.9243 .3816 0 1 0 0)" cy="59.14" cx="52.84"/></g><path stroke="#000" stroke-width="1px" d="m142.7 141.8 21.89-5.263 8.421 4.842" fill="none"/><g><ellipse transform="matrix(.9243 .3816 0 1 0 0)" rx="1.01" cy="27.33" ry=".8566" stroke="#008000" cx="70.63" stroke-width=".2603" fill="#008000"/><ellipse ry=".8566" rx="1.01" cy="26.86" transform="matrix(.9243 .3816 0 1 0 0)" stroke="#008000" cx="67.63" stroke-width=".2603" fill="#008000"/><path stroke-linejoin="round" d="m-8.66-5v60l8.66 5v-60z" stroke="#000" stroke-width="2" fill="#fff"/></g>
</g>
</g>
</svg>
