<svg xmlns:rdf="http://www.w3.org/1999/02/22-rdf-syntax-ns#" xmlns="http://www.w3.org/2000/svg" height="1052" width="744.1" version="1.1" enable-background="new" xmlns:cc="http://creativecommons.org/ns#" xmlns:dc="http://purl.org/dc/elements/1.1/">
<g>
<g>
<g stroke="#000" fill="#fff">
<g stroke-linejoin="round">
<rect transform="matrix(.8660 .5 0 1 0 0)" height="20" width="200" y=".000002617" x="-.00001526" stroke-width="2.149"/>
<g stroke-width="2">
<path d="m-8.66-5 8.66 5v20l-8.66-5z"/>
<path d="m0 0 173.2 100v20l-173.2-100z"/>
<path d="m173.2 100 8.66 5v20l-8.66-5z"/>
</g>
</g>
<path d="m11.5 8.537 137 79.12 2.352 4.937 20.37 11.76v12.67l-159.8-92.31z"/>
</g>
<g stroke="#000" fill="#999">
<path d="m92.68 70.11v-1.267l1.464.8453v-5.351l-4.573-2.64v5.351l1.464.8453v1.267l1.645.9495z"/>
<path d="m91.04 55.92v1.267l-1.464-.8453v5.351l4.573 2.64v-5.351l-1.464-.8453v-1.267l-1.645-.9495z"/>
<path d="m97.26 72.75v-1.267l1.464.8453v-5.351l-4.573-2.64v5.351l1.464.8453v1.267l1.645.9495z"/>
<path d="m95.61 58.56v1.267l-1.464-.8453v5.351l4.573 2.64v-5.351l-1.464-.8453v-1.267l-1.645-.9495z"/>
<path d="m101.8 75.39v-1.267l1.464.8453v-5.351l-4.573-2.64v5.351l1.464.8453v1.267l1.645.9495z"/>
<path d="m100.2 61.2v1.267l-1.464-.8453v5.351l4.573 2.64v-5.351l-1.464-.8453v-1.267l-1.645-.9495z"/>
<path d="m101.8 75.39v-1.267l1.464.8453v-5.351l-4.573-2.64v5.351l1.464.8453v1.267l1.645.9495z"/>
<path d="m88.11 67.47v-1.267l1.464.8453v-5.351l-4.573-2.64v5.351l1.464.8453v1.267l1.645.9495z"/>
<path d="m86.47 53.28v1.267l-1.464-.8453v5.351l4.573 2.64v-5.351l-1.464-.8453v-1.267l-1.645-.9495z"/>
</g>
<text style="word-spacing:0px;letter-spacing:0px" line-height="125%" transform="matrix(.8968 .5177 0 1.115 0 0)" xml:space="preserve" font-size=".9120px" y="3.4773393" x="2.9544265" font-family="Sans" fill="#000000"><tspan font-weight="bold" y="3.4773393" x="2.9544265" font-family="Sans">Cisco Systems</tspan></text>
<g stroke="#000" fill="#999">
<path d="m106.4 78.03v-1.267l1.464.8453v-5.351l-4.573-2.64v5.351l1.464.8453v1.267l1.645.9495z"/>
<path d="m104.8 63.84v1.267l-1.464-.8453v5.351l4.573 2.64v-5.351l-1.464-.8453v-1.267l-1.645-.9495z"/>
<path d="m111 80.67v-1.267l1.464.8453v-5.351l-4.573-2.64v5.351l1.464.8453v1.267l1.645.9495z"/>
<path d="m109.3 66.48v1.267l-1.464-.8453v5.351l4.573 2.64v-5.351l-1.464-.8453v-1.267l-1.645-.9495z"/>
<path d="m111 80.67v-1.267l1.464.8453v-5.351l-4.573-2.64v5.351l1.464.8453v1.267l1.645.9495z"/>
<path d="m125.7 89.08v-1.267l1.464.8453v-5.351l-4.573-2.64v5.351l1.464.8453v1.267l1.645.9495z"/>
<path d="m124 74.89v1.267l-1.464-.8453v5.351l4.573 2.64v-5.351l-1.464-.8453v-1.267l-1.645-.9495z"/>
<path d="m130.3 91.72v-1.267l1.464.8453v-5.351l-4.573-2.64v5.351l1.464.8453v1.267l1.645.9495z"/>
<path d="m128.6 77.53v1.267l-1.464-.8453v5.351l4.573 2.64v-5.351l-1.464-.8453v-1.267l-1.645-.9495z"/>
<path d="m134.8 94.36v-1.267l1.464.8453v-5.351l-4.573-2.64v5.351l1.464.8453v1.267l1.645.9495z"/>
<path d="m133.2 80.17v1.267l-1.464-.8453v5.351l4.573 2.64v-5.351l-1.464-.8453v-1.267l-1.645-.9495z"/>
<path d="m134.8 94.36v-1.267l1.464.8453v-5.351l-4.573-2.64v5.351l1.464.8453v1.267l1.645.9495z"/>
<path d="m121.1 86.44v-1.267l1.464.8453v-5.351l-4.573-2.64v5.351l1.464.8453v1.267l1.645.9495z"/>
<path d="m119.5 72.25v1.267l-1.464-.8453v5.351l4.573 2.64v-5.351l-1.464-.8453v-1.267l-1.645-.9495z"/>
<path d="m139.4 97v-1.267l1.464.8453v-5.351l-4.573-2.64v5.351l1.464.8453v1.267l1.645.9495z"/>
<path d="m137.8 82.81v1.267l-1.464-.8453v5.351l4.573 2.64v-5.351l-1.464-.8453v-1.267l-1.645-.9495z"/>
<path d="m144 99.64v-1.267l1.464.8453v-5.351l-4.573-2.64v5.351l1.464.8453v1.267l1.645.9495z"/>
<path d="m142.3 85.45v1.267l-1.464-.8453v5.351l4.573 2.64v-5.351l-1.464-.8453v-1.267l-1.645-.9495z"/>
<path d="m144 99.64v-1.267l1.464.8453v-5.351l-4.573-2.64v5.351l1.464.8453v1.267l1.645.9495z"/>
</g>
<g>
<g>
<rect transform="matrix(.8660 .5 0 1 0 0)" height="7.22" width="6.532" stroke="#ff0" y="9.751" x="177.3" stroke-width="1.075" fill="#ff0"/>
<path d="m157.2 107.4v-1.267l1.464.8453v-5.351l-4.573-2.64v5.351l1.464.8453v1.267l1.645.9495z" stroke="#000" fill="#999"/>
<rect transform="matrix(.8660 .5 0 1 0 0)" height="7.22" width="6.532" stroke="#ff0" y="9.724" x="187.7" stroke-width="1.075" fill="#ff0"/>
<path d="m166.3 112.7v-1.267l1.464.8453v-5.351l-4.573-2.64v5.351l1.464.8453v1.267l1.645.9495z" stroke="#000" fill="#999"/>
</g>
<text style="word-spacing:0px;letter-spacing:0px" line-height="125%" transform="matrix(.8968 .5177 0 1.115 0 0)" xml:space="preserve" font-size="2.667px" y="3.5678983" x="173.02278" font-family="Sans" fill="#000000"><tspan y="3.5678983" x="173.02278">Cisco 2960</tspan></text>
</g>
<path d="m2.006 1.891h9.663v16.24h-9.663z" transform="matrix(.8660 .5 0 1 0 0)" stroke="#000" stroke-width="1.075" fill="none"/>
<path d="m6.171 18.02 2.526 1.484v2.106l-2.526-1.484z" stroke="#008080" stroke-width=".8741" fill="#008080"/>
<g stroke="#008000" stroke-width=".5105" fill="#008000">
<ellipse rx=".6625" transform="matrix(.9146 .4043 0 1 0 0)" ry=".3531" cy="6.886" cx="5.343"/>
<ellipse rx=".6625" ry=".3531" transform="matrix(.9146 .4043 0 1 0 0)" cy="8.36" cx="5.343"/>
<ellipse rx=".6625" transform="matrix(.9146 .4043 0 1 0 0)" ry=".3531" cy="9.834" cx="5.343"/>
<ellipse rx=".6625" ry=".3531" transform="matrix(.9146 .4043 0 1 0 0)" cy="11.31" cx="5.343"/>
<ellipse rx=".6625" transform="matrix(.9146 .4043 0 1 0 0)" ry=".3531" cy="12.78" cx="5.343"/>
</g>
</g>
</g>
</svg>
