<?xml version="1.0" encoding="UTF-8" standalone="no"?>
<!-- Created with Inkscape (http://www.inkscape.org/) -->

<svg
   xmlns:dc="http://purl.org/dc/elements/1.1/"
   xmlns:cc="http://creativecommons.org/ns#"
   xmlns:rdf="http://www.w3.org/1999/02/22-rdf-syntax-ns#"
   xmlns:svg="http://www.w3.org/2000/svg"
   xmlns="http://www.w3.org/2000/svg"
   xmlns:sodipodi="http://sodipodi.sourceforge.net/DTD/sodipodi-0.dtd"
   xmlns:inkscape="http://www.inkscape.org/namespaces/inkscape"
   width="744.09448819"
   height="1052.3622047"
   id="svg2"
   version="1.1"
   inkscape:version="0.91 r13725"
   sodipodi:docname="cisco-2960-8tc-l.svg"
   enable-background="new">
  <defs
     id="defs4" />
  <sodipodi:namedview
     id="base"
     pagecolor="#ffffff"
     bordercolor="#666666"
     borderopacity="1.0"
     inkscape:pageopacity="0.0"
     inkscape:pageshadow="2"
     inkscape:zoom="3.3587571"
     inkscape:cx="119.16427"
     inkscape:cy="1033.2378"
     inkscape:document-units="px"
     inkscape:current-layer="layer5"
     showgrid="false"
     borderlayer="true"
     showborder="true"
     inkscape:window-width="1920"
     inkscape:window-height="1018"
     inkscape:window-x="-8"
     inkscape:window-y="-8"
     inkscape:window-maximized="1"
     inkscape:showpageshadow="false"
     inkscape:snap-global="true"
     inkscape:snap-bbox="true"
     inkscape:snap-intersection-paths="true"
     inkscape:object-paths="true"
     inkscape:snap-bbox-edge-midpoints="true"
     inkscape:snap-bbox-midpoints="true"
     inkscape:bbox-nodes="true"
     inkscape:bbox-paths="true"
     inkscape:object-nodes="true"
     inkscape:snap-smooth-nodes="true"
     inkscape:snap-midpoints="true"
     inkscape:snap-object-midpoints="true"
     inkscape:snap-center="true"
     inkscape:snap-page="true">
    <inkscape:grid
       type="xygrid"
       id="grid2985"
       empspacing="5"
       visible="true"
       enabled="false"
       snapvisiblegridlinesonly="true" />
    <inkscape:grid
       type="axonomgrid"
       id="grid2989"
       units="px"
       empspacing="5"
       visible="true"
       enabled="true"
       snapvisiblegridlinesonly="true"
       spacingy="5px" />
  </sodipodi:namedview>
  <metadata
     id="metadata7">
    <rdf:RDF>
      <cc:Work
         rdf:about="">
        <dc:format>image/svg+xml</dc:format>
        <dc:type
           rdf:resource="http://purl.org/dc/dcmitype/StillImage" />
        <dc:title />
      </cc:Work>
    </rdf:RDF>
  </metadata>
  <g
     inkscape:label="Body"
     inkscape:groupmode="layer"
     id="layer1"
     style="display:inline">
    <rect
       y="157.73503"
       x="157.73502"
       height="20"
       width="80"
       id="rect3897"
       style="fill:#c8c8c8;fill-opacity:1;stroke:#000000;stroke-width:2.14913988;stroke-linejoin:bevel;stroke-miterlimit:4;stroke-dasharray:none;stroke-opacity:1"
       transform="matrix(0.8660254,-0.5,0,1,0,0)" />
    <path
       style="fill:#f5f5f5;fill-opacity:1;stroke:#000000;stroke-width:2;stroke-linecap:butt;stroke-linejoin:round;stroke-miterlimit:4;stroke-dasharray:none;stroke-opacity:1"
       d="m 36.602543,21.132498 99.999987,57.735045 69.28203,-40.00002 -99.99999,-57.735015 z"
       id="path3899"
       inkscape:connector-curvature="0"
       sodipodi:nodetypes="ccccc" />
  </g>
  <g
     inkscape:groupmode="layer"
     id="layer5"
     inkscape:label="Front"
     style="display:inline">
    <rect
       style="display:inline;fill:#ffffff;fill-opacity:1;stroke:#000000;stroke-width:2.14913988;stroke-linejoin:round;stroke-miterlimit:4;stroke-dasharray:none;stroke-opacity:1"
       id="rect3895"
       width="200"
       height="20"
       x="-1.5258789e-005"
       y="2.6171876e-006"
       transform="matrix(0.8660254,0.5,0,1,0,0)" />
    <path
       style="fill:#ffffff;fill-opacity:1;stroke:#000000;stroke-width:2;stroke-linecap:butt;stroke-linejoin:round;stroke-miterlimit:4;stroke-dasharray:none;stroke-opacity:1"
       d="M -8.6601562 -5 L -8.6601562 15 L 0 20 L 173.20508 120 L 181.86523 125 L 181.86523 105 L 173.20508 100 L 0 0 L -8.6601562 -5 z "
       id="path4447" />
    <rect
       style="opacity:1;fill:#ffffff;fill-opacity:1;stroke:#000000;stroke-width:2.14913988;stroke-linecap:butt;stroke-linejoin:miter;stroke-miterlimit:4;stroke-dasharray:none;stroke-opacity:1"
       id="rect4190"
       width="115.47005"
       height="20"
       x="42.264977"
       y="9.8361288e-006"
       transform="matrix(0.8660254,0.5,0,1,0,0)" />
    <path
       sodipodi:nodetypes="ccccccc"
       inkscape:connector-curvature="0"
       id="path4226"
       d="m 47.952865,29.668016 64.311045,37.01286 2.35218,4.93697 20.37241,11.76202 0,12.66881 -87.01993,-50.130393 z"
       style="fill:#ffffff;fill-opacity:1;stroke:#000000;stroke-width:1;stroke-linejoin:miter;stroke-miterlimit:4;stroke-dasharray:none;stroke-opacity:1" />
    <g
       id="g4204"
       transform="matrix(-1,0,0,-1,239.57906,190.55648)">
      <path
         style="display:inline;opacity:1;fill:#999999;fill-opacity:1;stroke:#000000;stroke-width:1;stroke-linecap:butt;stroke-linejoin:miter;stroke-miterlimit:4;stroke-dasharray:none;stroke-opacity:1"
         d="m 143.45918,119.4335 0,1.26732 -1.46409,-0.84528 0,5.35092 4.57276,2.64008 0,-5.35093 -1.46409,-0.84528 0,-1.26733 -1.64458,-0.9495 z"
         id="path4153"
         inkscape:connector-curvature="0" />
      <path
         inkscape:connector-curvature="0"
         id="path4157"
         d="m 148.03194,122.07358 0,1.26732 -1.46409,-0.84528 0,5.35092 4.57277,2.64008 0,-5.35093 -1.4641,-0.84528 0,-1.26733 -1.64458,-0.9495 z"
         style="display:inline;opacity:1;fill:#999999;fill-opacity:1;stroke:#000000;stroke-width:1;stroke-linecap:butt;stroke-linejoin:miter;stroke-miterlimit:4;stroke-dasharray:none;stroke-opacity:1" />
      <path
         style="display:inline;opacity:1;fill:#999999;fill-opacity:1;stroke:#000000;stroke-width:1;stroke-linecap:butt;stroke-linejoin:miter;stroke-miterlimit:4;stroke-dasharray:none;stroke-opacity:1"
         d="m 152.6047,124.71365 0,1.26732 -1.46408,-0.84528 0,5.35092 4.57275,2.64008 0,-5.35093 -1.46409,-0.84528 0,-1.26733 -1.64458,-0.9495 z"
         id="path4161"
         inkscape:connector-curvature="0" />
      <path
         inkscape:connector-curvature="0"
         id="path4207"
         d="m 138.88642,116.79343 0,1.26732 -1.46409,-0.84528 0,5.35092 4.57276,2.64008 0,-5.35093 -1.46409,-0.84528 0,-1.26733 -1.64458,-0.9495 z"
         style="display:inline;opacity:1;fill:#999999;fill-opacity:1;stroke:#000000;stroke-width:1;stroke-linecap:butt;stroke-linejoin:miter;stroke-miterlimit:4;stroke-dasharray:none;stroke-opacity:1" />
      <path
         style="display:inline;opacity:1;fill:#999999;fill-opacity:1;stroke:#000000;stroke-width:1;stroke-linecap:butt;stroke-linejoin:miter;stroke-miterlimit:4;stroke-dasharray:none;stroke-opacity:1"
         d="m 157.17746,127.35373 0,1.26732 -1.46409,-0.84528 0,5.35092 4.57276,2.64008 0,-5.35093 -1.46409,-0.84528 0,-1.26733 -1.64458,-0.9495 z"
         id="path4175"
         inkscape:connector-curvature="0" />
      <path
         inkscape:connector-curvature="0"
         id="path4180"
         d="m 161.75022,129.9938 0,1.26732 -1.46409,-0.84528 0,5.35092 4.57276,2.64008 0,-5.35093 -1.46409,-0.84528 0,-1.26733 -1.64458,-0.9495 z"
         style="display:inline;opacity:1;fill:#999999;fill-opacity:1;stroke:#000000;stroke-width:1;stroke-linecap:butt;stroke-linejoin:miter;stroke-miterlimit:4;stroke-dasharray:none;stroke-opacity:1" />
      <path
         inkscape:connector-curvature="0"
         id="path4186"
         d="m 166.32298,132.63388 0,1.26732 -1.46409,-0.84528 0,5.35092 4.57276,2.64008 0,-5.35093 -1.46409,-0.84528 0,-1.26733 -1.64458,-0.9495 z"
         style="display:inline;opacity:1;fill:#999999;fill-opacity:1;stroke:#000000;stroke-width:1;stroke-linecap:butt;stroke-linejoin:miter;stroke-miterlimit:4;stroke-dasharray:none;stroke-opacity:1" />
      <path
         style="display:inline;opacity:1;fill:#999999;fill-opacity:1;stroke:#000000;stroke-width:1;stroke-linecap:butt;stroke-linejoin:miter;stroke-miterlimit:4;stroke-dasharray:none;stroke-opacity:1"
         d="m 170.89574,135.27396 0,1.26732 -1.46409,-0.84528 0,5.35092 4.57276,2.64008 0,-5.35093 -1.46409,-0.84528 0,-1.26733 -1.64458,-0.9495 z"
         id="path4200"
         inkscape:connector-curvature="0" />
    </g>
    <rect
       style="opacity:1;fill:#ffffff;fill-opacity:1;stroke:#0000ff;stroke-width:1.07456994;stroke-linecap:butt;stroke-linejoin:miter;stroke-miterlimit:4;stroke-dasharray:none;stroke-opacity:1"
       id="rect4228"
       width="8.0513172"
       height="9.3023663"
       x="58.10799"
       y="7.7776337"
       transform="matrix(0.8660254,0.5,0,1,0,0)" />
    <path
       style="display:inline;opacity:1;fill:#999999;fill-opacity:1;stroke:#000000;stroke-width:1;stroke-linecap:butt;stroke-linejoin:miter;stroke-miterlimit:4;stroke-dasharray:none;stroke-opacity:1"
       d="m 54.608501,47.295809 0,-1.26733 1.46409,0.84529 0,-5.35093 -4.57276,-2.64007 0,5.35092 1.46409,0.84528 0,1.26734 1.64458,0.9495 z"
       id="path4212"
       inkscape:connector-curvature="0" />
    <rect
       transform="matrix(0.8660254,0.5,0,1,0,0)"
       y="7.6259141"
       x="133.88139"
       height="9.0974884"
       width="20.145275"
       id="rect4230"
       style="opacity:1;fill:#ffffff;fill-opacity:1;stroke:#ffff00;stroke-width:1.07456994;stroke-linecap:butt;stroke-linejoin:miter;stroke-miterlimit:4;stroke-dasharray:none;stroke-opacity:1" />
    <path
       inkscape:connector-curvature="0"
       id="path4216"
       d="m 120.42203,85.085259 0,-1.26732 1.46409,0.84528 0,-5.35092 -4.57276,-2.64008 0,5.35093 1.46409,0.84528 0,1.26733 1.64458,0.9495 z"
       style="display:inline;opacity:1;fill:#999999;fill-opacity:1;stroke:#000000;stroke-width:1;stroke-linecap:butt;stroke-linejoin:miter;stroke-miterlimit:4;stroke-dasharray:none;stroke-opacity:1" />
    <text
       xml:space="preserve"
       style="font-style:normal;font-weight:normal;font-size:2.66739225px;line-height:125%;font-family:Sans;letter-spacing:0px;word-spacing:0px;display:inline;fill:#000000;fill-opacity:1;stroke:none;stroke-width:1px;stroke-linecap:butt;stroke-linejoin:miter;stroke-opacity:1"
       x="132.7074"
       y="3.5492928"
       id="text4197"
       sodipodi:linespacing="125%"
       transform="matrix(0.89676399,0.51774693,0,1.1151206,0,0)"><tspan
         sodipodi:role="line"
         id="tspan4199"
         x="132.7074"
         y="3.5492928">Cisco 2960</tspan></text>
    <g
       id="g4193"
       transform="translate(38.804701,-14.072174)">
      <text
         transform="matrix(0.89676399,0.51774693,0,1.1151206,0,0)"
         sodipodi:linespacing="125%"
         id="text4189"
         y="36.210579"
         x="0.49875507"
         style="font-style:normal;font-weight:normal;font-size:0.91199124px;line-height:125%;font-family:Sans;letter-spacing:0px;word-spacing:0px;display:inline;fill:#000000;fill-opacity:1;stroke:none;stroke-width:1px;stroke-linecap:butt;stroke-linejoin:miter;stroke-opacity:1"
         xml:space="preserve"><tspan
           style="font-style:normal;font-variant:normal;font-weight:bold;font-stretch:normal;font-family:Sans;-inkscape-font-specification:'Sans Bold'"
           y="36.210579"
           x="0.49875507"
           id="tspan4191"
           sodipodi:role="line">Cisco Systems</tspan></text>
      <path
         sodipodi:nodetypes="ccccc"
         inkscape:connector-curvature="0"
         id="rect4232"
         d="m -0.46531565,38.123844 8.36842205,4.831511 0,16.238713 -8.36842205,-4.831511 z"
         style="opacity:1;fill:none;fill-opacity:1;stroke:#000000;stroke-width:1;stroke-linecap:butt;stroke-linejoin:miter;stroke-miterlimit:4;stroke-dasharray:none;stroke-opacity:1" />
      <path
         style="opacity:1;fill:#008080;fill-opacity:1;stroke:#008080;stroke-width:0.87406272;stroke-linecap:butt;stroke-linejoin:miter;stroke-miterlimit:4;stroke-dasharray:none;stroke-opacity:1"
         d="m 3.9692926,53.245589 2.5255216,1.484149 0,2.105744 -2.5255216,-1.484149 z"
         id="path4235"
         inkscape:connector-curvature="0"
         sodipodi:nodetypes="ccccc" />
      <ellipse
         transform="matrix(0.91463345,0.40428412,0,1,0,0)"
         ry="0.35305247"
         rx="0.66251278"
         cy="43.08984"
         cx="2.9350691"
         id="path4237"
         style="opacity:1;fill:#008000;fill-opacity:1;stroke:#008000;stroke-width:0.51050246;stroke-linecap:butt;stroke-linejoin:miter;stroke-miterlimit:4;stroke-dasharray:none;stroke-opacity:1" />
      <ellipse
         style="opacity:1;fill:#008000;fill-opacity:1;stroke:#008000;stroke-width:0.51050246;stroke-linecap:butt;stroke-linejoin:miter;stroke-miterlimit:4;stroke-dasharray:none;stroke-opacity:1"
         id="ellipse4239"
         cx="2.9350691"
         cy="44.563484"
         rx="0.66251278"
         ry="0.35305247"
         transform="matrix(0.91463345,0.40428412,0,1,0,0)" />
      <ellipse
         transform="matrix(0.91463345,0.40428412,0,1,0,0)"
         ry="0.35305247"
         rx="0.66251278"
         cy="46.037312"
         cx="2.9350691"
         id="ellipse4241"
         style="opacity:1;fill:#008000;fill-opacity:1;stroke:#008000;stroke-width:0.51050246;stroke-linecap:butt;stroke-linejoin:miter;stroke-miterlimit:4;stroke-dasharray:none;stroke-opacity:1" />
      <ellipse
         style="opacity:1;fill:#008000;fill-opacity:1;stroke:#008000;stroke-width:0.51050246;stroke-linecap:butt;stroke-linejoin:miter;stroke-miterlimit:4;stroke-dasharray:none;stroke-opacity:1"
         id="ellipse4243"
         cx="2.9350691"
         cy="47.510872"
         rx="0.66251278"
         ry="0.35305247"
         transform="matrix(0.91463345,0.40428412,0,1,0,0)" />
      <ellipse
         transform="matrix(0.91463345,0.40428412,0,1,0,0)"
         ry="0.35305247"
         rx="0.66251278"
         cy="48.984577"
         cx="2.9350691"
         id="ellipse4245"
         style="opacity:1;fill:#008000;fill-opacity:1;stroke:#008000;stroke-width:0.51050246;stroke-linecap:butt;stroke-linejoin:miter;stroke-miterlimit:4;stroke-dasharray:none;stroke-opacity:1" />
    </g>
    <rect
       style="opacity:1;fill:#000000;fill-opacity:1;stroke:#000000;stroke-width:2.14913988;stroke-linecap:butt;stroke-linejoin:miter;stroke-miterlimit:4;stroke-dasharray:none;stroke-opacity:1"
       id="rect4214"
       width="4.8618999"
       height="2.123729"
       x="147.01163"
       y="12.736894"
       transform="matrix(0.8660254,0.5,0,1,0,0)" />
  </g>
</svg>
