<svg xmlns:rdf="http://www.w3.org/1999/02/22-rdf-syntax-ns#" xmlns="http://www.w3.org/2000/svg" height="1052" width="744.1" version="1.1" enable-background="new" xmlns:cc="http://creativecommons.org/ns#" xmlns:dc="http://purl.org/dc/elements/1.1/">
<g>
<g stroke="#000" fill="#fff"><g><path stroke-linejoin="round" d="m173.2 100v20 180l8.66 5v-180-20z" stroke-width="2"/><path stroke-linejoin="round" d="m-8.66-5v20 180l8.66 5v-180-20z" stroke-width="2"/><rect stroke-linejoin="bevel" transform="matrix(.8660 .5 0 1 0 0)" height="200" width="200" y=".000002750" x="0" stroke-width="2.149"/><path stroke-linejoin="round" d="m0 80 .00001732 120 14.76 8.5v-120z" stroke-width="2"/></g><g stroke-linejoin="bevel" stroke-width="2.149"><rect transform="matrix(.8660 .5 0 1 0 0)" height="62" width="90.49" y="5.556" x="5.624"/><rect transform="matrix(.8660 .5 0 1 0 0)" height="20" width="183" y="80" x="17.05"/><rect transform="matrix(.8660 .5 0 1 0 0)" height="20" width="183" y="100" x="17.05"/></g></g><text style="word-spacing:0px;letter-spacing:0px" line-height="125%" xml:space="preserve" transform="matrix(.8968 .5177 0 1.115 0 0)" font-size="2.667px" y="90.647369" x="8.426775" font-family="Sans" fill="#000000"><tspan style="text-anchor:middle;text-align:center" y="90.647369" x="8.426775">Catalyst</tspan><tspan style="text-anchor:middle;text-align:center" y="93.981613" x="8.426775">4506-E</tspan></text><g stroke-linejoin="bevel" stroke="#000" stroke-width="2.149" fill="#fff"><rect transform="matrix(.8660 .5 0 1 0 0)" height="20" width="183" y="120" x="17.05"/><rect transform="matrix(.8660 .5 0 1 0 0)" height="20" width="183" y="140" x="17.05"/><rect transform="matrix(.8660 .5 0 1 0 0)" height="20" width="183" y="160" x="17.05"/><rect transform="matrix(.8660 .5 0 1 0 0)" height="20" width="183" y="180" x="17.05"/><rect transform="matrix(.8660 .5 0 1 0 0)" height="62" width="90.49" y="6.2" x="102.9"/></g><text style="word-spacing:0px;letter-spacing:0px" line-height="125%" transform="matrix(.8968 .5177 0 1.115 0 0)" xml:space="preserve" font-size="2.667px" y="82.83783" x="8.426775" font-family="Sans" fill="#000000"><tspan style="text-anchor:middle;text-align:center" y="82.83783" x="8.426775" font-family="Sans">Cisco</tspan></text><g stroke-linejoin="bevel" stroke="#000"><path d="m5.223 116-7.148 3.772-.07813.0449c-4.319 2.495-3.593 2.533-3.593 7.5v45c0 2.675.00716 3.908.6699 4.104v.0312l3.593 2.5v-4.521l7.99-4.612-1.434-3.818-3.138 1.457c-4.087 2.361-4.088 2.361-4.088-2.701v-35.03c.0002-4.912.00102-4.91 4.498-7.508l3.919-2.263 3.139-1.458-4.33-2.5z" fill="#fff"/><path d="m2.327 172.3-4.33-2.5 7.226-3.816 4.33 2.5z" fill="#f5f5f5"/><path d="m9.553 118.5-7.149 3.772c-4.407 2.545-4.407 2.545-4.407 7.545v45c0 5 0 5 4.33 2.5l7.226-3.817v-5l-3.139 1.458c-4.087 2.361-4.087 2.36-4.087-2.703v-35.03c.0002-4.912-.2430-4.77 4.254-7.368l2.972-1.361z" fill="#c8c8c8"/></g><g stroke-linejoin="round" stroke="#000" stroke-opacity=".9727" fill="#ccc"><path d="m10.01 90.93c0 .4444-.1339.7802-.3635.9913-.3882.3571-2.623 1.558-2.623 1.558l-3.002-4.51 2.296-1.1s1.099-.8269 2.048-.2788c1.196.6904 1.644 2.145 1.644 3.341z"/><path d="m7.5 92.44c.0003848 1.196-.9691 1.606-2.165.915-1.196-.6903-1.644-2.145-1.644-3.341-.00044-1.196.9691-1.606 2.165-.9151 1.196.6903 1.644 2.145 1.644 3.341z"/></g><g stroke-linejoin="round" stroke-opacity=".9727" transform="translate(0 106.9)" stroke="#000" fill="#ccc"><path d="m10.01 90.93c0 .4444-.1339.7802-.3635.9913-.3882.3571-2.623 1.558-2.623 1.558l-3.002-4.51 2.296-1.1s1.099-.8269 2.048-.2788c1.196.6904 1.644 2.145 1.644 3.341z"/><path d="m7.5 92.44c.0003848 1.196-.9691 1.606-2.165.915-1.196-.6903-1.644-2.145-1.644-3.341-.00044-1.196.9691-1.606 2.165-.9151 1.196.6903 1.644 2.145 1.644 3.341z"/></g>
</g></svg>