<svg xmlns:rdf="http://www.w3.org/1999/02/22-rdf-syntax-ns#" xmlns="http://www.w3.org/2000/svg" height="1052" width="744.1" version="1.1" enable-background="new" xmlns:cc="http://creativecommons.org/ns#" xmlns:dc="http://purl.org/dc/elements/1.1/">
<g>
<g><g stroke-linejoin="round" stroke="#000" stroke-width="2" fill="#fff"><path d="m-8.66-5v20 20l8.66 5v-20-20l-8.66-5z"/><path d="m.00001732 0.000013v20 20l173.2 100v-20-20l-173.2-100z"/><path d="m173.2 100v20 20l8.66 5v-20-20l-8.66-5z"/></g><g><path d="m125.9 78v1.267l-1.464-.8453v5.351l4.573 2.64v-5.351l-1.464-.8453v-1.267l-1.645-.9495z" stroke="#000" fill="#999"/><path d="m127.5 92.19v-1.267l1.464.8453v-5.351l-4.573-2.64v5.351l1.464.8453v1.267l1.645.9495z" stroke="#000" fill="#999"/><text style="word-spacing:0px;letter-spacing:0px" line-height="125%" transform="matrix(.8968 .5177 0 1.115 0 0)" xml:space="preserve" font-size="2.667px" y="4.9894781" x="164.52515" font-family="Sans" fill="#000000"><tspan y="4.9894781" x="164.52515"><tspan font-family="Sans" font-weight="bold">Cisco 2800 </tspan>Series</tspan></text></g><path d="m.5210 22.92 22.55 12.66 26.87-3.459 81.95 47.13 6.103 10.84 34.98 20.23" stroke="#000" stroke-width="1px" fill="none"/><path d="m.2977 25.6 34.68 20.06 14.15 19.71l107 61.8 7.294-3.771 9.081 5.385" stroke="#000" stroke-width="1px" fill="none"/><g stroke="#000"><g><rect transform="matrix(.8660 .5 0 1 0 0)" height="10.32" width="47.89" y="24.2" x="131.8" stroke-width="1.075" fill="#fff"/><rect transform="matrix(.8660 .5 0 1 0 0)" height="2.681" width="23.24" y="15.5" x="104.6" stroke-width=".9019"/><rect transform="matrix(.8660 .5 0 1 0 0)" height="2.828" width="6.79" y="15.75" x="132.1" stroke-width="1.075" fill="#fff"/><rect transform="matrix(.8660 .5 0 1 0 0)" height="2.828" width="6.79" y="11.12" x="132.1" stroke-width="1.075" fill="#fff"/></g><path stroke-linejoin="round" d="m144.9 109.2 8.876 5.125v6.398l-1.556.4354-5.848-3.376-1.472-2.184z" stroke-width=".4411"/></g><g stroke-linejoin="round" stroke="#999" stroke-width=".6236" fill="#999"><rect transform="matrix(.8660 .5 0 1 0 0)" height="2.36" width=".4739" y="26.67" x="168.9"/><rect transform="matrix(.8660 .5 0 1 0 0)" height="2.36" width=".4739" y="26.67" x="175.6"/><rect transform="matrix(.8660 .5 0 1 0 0)" height="2.36" width=".4739" y="29.81" x="172.1"/></g><rect transform="matrix(.8660 .5 0 1 0 0)" height="5.616" width="9.116" stroke="#000" y="26.45" x="153.8" stroke-width="1.075"/><g stroke="#000" fill="none"><path d="m4.512 38.48 36.99 21.36"/><path d="m4.512 37 34.8 20.09"/><path d="m4.512 35.47 32.42 18.71"/><path d="m4.512 33.94 30.15 17.41"/><path d="m4.512 32.38 27.84 16.07"/><path d="m4.512 30.82 25.72 14.84"/><path d="m4.512 11.46 32.57 18.81"/><path d="m4.512 12.95 30.11 17.39"/><path d="m4.512 14.48 27.84 16.07"/><path d="m4.512 16 25.67 14.83"/><path d="m4.512 17.57 23.37 13.49"/><path d="m4.512 19.13 21.14 12.2"/><path d="m4.512 20.67 18.84 10.88"/><path d="m4.512 22.24 16.45 9.499"/></g><g stroke="#008000" stroke-width=".2603" fill="#008000"><ellipse rx="1.01" transform="matrix(.9243 .3816 0 1 0 0)" ry=".8566" cy="30.39" cx="94.72"/><ellipse rx="1.01" ry=".8566" transform="matrix(.9243 .3816 0 1 0 0)" cy="29.92" cx="91.72"/><ellipse rx="1.01" transform="matrix(.9243 .3816 0 1 0 0)" ry=".8566" cy="29.45" cx="88.72"/><ellipse rx="1.01" ry=".8566" transform="matrix(.9243 .3816 0 1 0 0)" cy="28.98" cx="85.72"/></g></g>
</g>
</svg>
