<svg xmlns:rdf="http://www.w3.org/1999/02/22-rdf-syntax-ns#" xmlns="http://www.w3.org/2000/svg" height="1052" width="744.1" version="1.1" enable-background="new" xmlns:cc="http://creativecommons.org/ns#" xmlns:dc="http://purl.org/dc/elements/1.1/">
<g>
<g>
<g stroke="#000" fill="#fff"><rect stroke-linejoin="round" transform="matrix(.8660 .5 0 1 0 0)" height="20" width="200" y=".000002617" x="-.00001526" stroke-width="2.149"/><path stroke-linejoin="round" d="m-8.66-5v20l8.66 5 173.2 100 8.7 5v-20l-8.7-5-173.2-100-8.66-5z" stroke-width="2"/><rect transform="matrix(.8660 .5 0 1 0 0)" height="20" width="115.5" y=".000009836" x="42.26" stroke-width="2.149"/><path d="m47.95 29.67 64.31 37.01 2.352 4.937 20.37 11.76v12.67l-87.02-50.13z"/></g><g stroke="#000" fill="#999"><path d="m96.12 71.12v-1.267l1.464.8453v-5.351l-4.573-2.64v5.351l1.464.8453v1.267l1.645.9495z"/><path d="m91.55 68.48v-1.267l1.464.8453v-5.351l-4.573-2.64v5.351l1.464.8453v1.267l1.645.9495z"/><path d="m86.97 65.84v-1.267l1.464.8453v-5.351l-4.573-2.64v5.351l1.464.8453v1.267l1.645.9495z"/><path d="m100.7 73.76v-1.267l1.464.8453v-5.351l-4.573-2.64v5.351l1.464.8453v1.267l1.645.9495z"/><path d="m82.4 63.2v-1.267l1.464.8453v-5.351l-4.573-2.64v5.351l1.464.8453v1.267l1.645.9495z"/><path d="m77.83 60.56v-1.267l1.464.8453v-5.351l-4.573-2.64v5.351l1.464.8453v1.267l1.645.9495z"/><path d="m73.26 57.92v-1.267l1.464.8453v-5.351l-4.573-2.64v5.351l1.464.8453v1.267l1.645.9495z"/><path d="m68.68 55.28v-1.267l1.464.8453v-5.351l-4.573-2.64v5.351l1.464.8453v1.267l1.645.9495z"/></g><g><g><rect transform="matrix(.8660 .5 0 1 0 0)" height="9.302" width="8.051" stroke="#00f" y="7.778" x="58.11" stroke-width="1.075" fill="#fff"/><path d="m54.61 47.3v-1.267l1.464.8453v-5.351l-4.573-2.64v5.351l1.464.8453v1.267l1.645.9495z" stroke="#000" fill="#999"/><rect transform="matrix(.8660 .5 0 1 0 0)" height="9.097" width="20.15" stroke="#ff0" y="7.626" x="133.9" stroke-width="1.075" fill="#fff"/><path d="m120.4 85.09v-1.267l1.464.8453v-5.351l-4.573-2.64v5.351l1.464.8453v1.267l1.645.9495z" stroke="#000" fill="#999"/></g><text style="word-spacing:0px;letter-spacing:0px" line-height="125%" transform="matrix(.8968 .5177 0 1.115 0 0)" xml:space="preserve" font-size="2.667px" y="3.5492928" x="132.7074" font-family="Sans" fill="#000000"><tspan y="3.5492928" x="132.7074">Cisco 2960</tspan></text><text style="word-spacing:0px;letter-spacing:0px" line-height="125%" transform="matrix(.8968 .5177 0 1.115 0 0)" xml:space="preserve" font-size=".9120px" y="3.5001452" x="43.770676" font-family="Sans" fill="#000000"><tspan font-weight="bold" y="3.5001452" x="43.770676" font-family="Sans">Cisco Systems</tspan></text></g><path d="m38.34 24.05 8.368 4.832v16.24l-8.368-4.832z" stroke="#000" fill="none"/><path d="m42.77 39.17 2.526 1.484v2.106l-2.526-1.484z" stroke="#008080" stroke-width=".8741" fill="#008080"/><g stroke="#008000" stroke-width=".5105" fill="#008000"><ellipse rx=".6625" transform="matrix(.9146 .4043 0 1 0 0)" ry=".3531" cy="11.87" cx="45.36"/><ellipse rx=".6625" ry=".3531" transform="matrix(.9146 .4043 0 1 0 0)" cy="13.34" cx="45.36"/><ellipse rx=".6625" transform="matrix(.9146 .4043 0 1 0 0)" ry=".3531" cy="14.81" cx="45.36"/><ellipse rx=".6625" ry=".3531" transform="matrix(.9146 .4043 0 1 0 0)" cy="16.29" cx="45.36"/><ellipse rx=".6625" transform="matrix(.9146 .4043 0 1 0 0)" ry=".3531" cy="17.76" cx="45.36"/></g><rect transform="matrix(.8660 .5 0 1 0 0)" height="2.124" width="4.862" stroke="#000" y="12.74" x="147" stroke-width="2.149"/>
</g>
</g>
</svg>
