<svg xmlns:rdf="http://www.w3.org/1999/02/22-rdf-syntax-ns#" xmlns="http://www.w3.org/2000/svg" height="1052" width="744.1" version="1.1" xmlns:cc="http://creativecommons.org/ns#" xmlns:dc="http://purl.org/dc/elements/1.1/" enable-background="new">
<path d="m-8.66-5v9.988c-3.41 1.988-4.13 8.542-2.2 10.08l2.2 1.27v11.9l-1.4.81.03.04a2.878 1.628 53.05 0 0 -.41 1.03 2.878 1.628 53.05 0 0 1.78 3.16v1.72l190.5 110v-40l-190.5-110zm8.656 15l4.344 2.5v20l-4.344-2.5.000094-15.01.005859-.01h-.005859v-4.98zm173.2 100v5l-3.2 2c-.1-2.5 1-5.7 3.2-7zm-3.2 7v.9c.1.3.1.5.2.8.2.6.4 1.1.8 1.4.6.4 1.3.4 2.2-.1v10l-4.3-2.5v-8.6l2.2 1.3c0-.1 0-.1-.1-.1-.4-.3-.6-.8-.8-1.4-.1-.3-.1-.5-.2-.8v-.9z"/>
</svg>
