<svg xmlns:rdf="http://www.w3.org/1999/02/22-rdf-syntax-ns#" xmlns="http://www.w3.org/2000/svg" height="1052" width="744.1" version="1.1" enable-background="new" xmlns:cc="http://creativecommons.org/ns#" xmlns:dc="http://purl.org/dc/elements/1.1/">
<g>
<g>
<path stroke-linejoin="round" d="m-8.66-5v40l190.5 110v-40l-190.5-110zm8.656 15 4.344 2.5v20l-4.344-2.5v-20zm168.9 97.5 4.344 2.5v20l-4.344-2.5v-20z" stroke="#000" stroke-width="2" fill="#fff"/><path d="m165.4 98.17-48.76-27.96.00001 4.542 48.76 27.96v-4.542" stroke="#808080" stroke-width="1px" fill="#fff"/><path d="m160.4 117-42.81-25 .00001 12.52 42.81 25v-12.52" stroke="#000" stroke-linecap="round" stroke-width="1px" fill="#e6e6e6"/><path d="m160.4 102.7-42.81-25 .00001 12.52 42.81 25v-12.52" stroke="#000" stroke-linecap="round" stroke-width="1px" fill="#e6e6e6"/><path stroke-linejoin="round" d="m179 135.3c0 .4444-.1339.7802-.3635.9913-.3882.3571-3.814 2.451-3.814 2.451l-3.522-4.585 3.487-1.994s1.099-.8269 2.048-.2788c1.196.6904 2.165 2.219 2.165 3.415z" stroke-opacity=".9727" stroke="#000" fill="#ccc"/><ellipse stroke-linejoin="round" stroke-opacity=".9727" rx="2.5" ry="2.165" stroke="#000" transform="matrix(.8660 0.5 0 1 0 0)" cy="36.52" cx="199.9" stroke-width="1.075" fill="#ccc"/><path stroke-linejoin="round" d="m-2.365 30.19c0 .4444-.1339.7802-.3635.9913-.3882.3571-3.814 2.451-3.814 2.451l-3.522-4.585 3.487-1.994s1.099-.8269 2.048-.2788c1.196.6904 2.165 2.219 2.165 3.415z" stroke-opacity=".9727" stroke="#000" fill="#ccc"/><ellipse stroke-linejoin="round" stroke-opacity=".9727" rx="2.5" ry="2.165" stroke="#000" transform="matrix(.8660 0.5 0 1 0 0)" cy="36.15" cx="-9.554" stroke-width="1.075" fill="#ccc"/><path stroke-linejoin="round" d="m169.9 117 3.307-2.007 4.33 2.5-4.33 2.5c-2.119 1.223-3.201-.5459-3.246-2.965l-.0611-.028z" stroke="#000" stroke-width="1px" fill="#ccc"/><path d="m173.2 105-4.33 2.5c-3.41 1.986-4.135 8.545-2.2 10.08l4.435 2.572c-2.058-1.385-1.36-8.154 2.095-10.15l4.33-2.5z" stroke="#000" stroke-width="1px" fill="#fff"/><path stroke-linejoin="round" d="m-7.635 14.49 3.307-2.007 4.33 2.5-4.33 2.5c-2.119 1.223-3.201-.5459-3.246-2.965l-.0611-.028z" stroke="#000" stroke-width="1px" fill="#ccc"/><path d="m-4.328 2.487-4.33 2.5c-3.41 1.986-4.135 8.545-2.2 10.08l4.435 2.572c-2.056-1.39-1.357-8.158 2.097-10.15l4.33-2.5z" stroke="#000" stroke-width="1px" fill="#fff"/><path d="m108.6 87.05-42.81-25 .00001 12.52 42.81 25v-12.52" stroke="#000" stroke-linecap="round" stroke-width="1px" fill="#e6e6e6"/><path d="m108.6 72.75-42.81-25 .00001 12.52 42.81 25v-12.52" stroke="#000" stroke-linecap="round" stroke-width="1px" fill="#e6e6e6"/><path d="m56.69 57.06-42.81-25 .00001 12.52 42.81 25v-12.52" stroke="#000" stroke-linecap="round" stroke-width="1px" fill="#e6e6e6"/><path d="m56.69 42.76-42.81-25 .00001 12.52 42.81 25v-12.52" stroke="#000" stroke-linecap="round" stroke-width="1px" fill="#e6e6e6"/><path stroke-linejoin="round" d="m12.76 9.515c-1.76-1.018-3.195-.412-3.195 1.355 0 1.763 1.433 4.013 3.196 5.031l22.54 13.01c1.763 1.018 3.196.4220 3.196-1.341s-1.433-4.023-3.196-5.041z" stroke="#b3b3b3" stroke-width=".6105" fill="#1a1a1a"/><ellipse stroke-linejoin="round" rx="1.299" ry="1.048" stroke="#b3b3b3" transform="matrix(.8069 .5907 0 1 0 0)" cy="3.134" cx="16.37" stroke-width="1.762" fill="#b3b3b3"/><ellipse stroke-linejoin="round" rx=".5976" ry=".4822" stroke="#b3b3b3" transform="matrix(.8069 .5907 0 1 0 0)" cy="3.307" cx="25.15" stroke-width=".8110" fill="#b3b3b3"/><path d="m32.37 24.83-9.103-5.436.0331.7693 9.103 5.436-.0331-.7693" stroke="#00f" stroke-width="1px" fill="#00f"/><text style="word-spacing:0px;letter-spacing:0px" transform="matrix(1 .5774 0 1 0 0)" line-height="125%" xml:space="preserve" font-size="2.088px" y="4.6910033" x="16.102146" font-family="Sans" fill="#ffffff"><tspan y="4.6910033" x="16.102146">DELL PE 2950</tspan></text><path d="m42.31 26.64-.0299 6.29-1.796-1.075.0299-6.29 1.796 1.075" stroke="#808080" stroke-width="1px" fill="#fff"/><path d="m45.45 28.54-.0299 6.29-1.796-1.075.0299-6.29 1.796 1.075" stroke="#808080" stroke-width="1px" fill="#fff"/><path stroke-linejoin="round" d="m50.95 34.88 8.205 4.737-1.176 1.556-5.705-3.294z" stroke="#808080" stroke-width=".6283" fill="#00f"/><path stroke-linejoin="round" d="m52.56 34.31 8.108 4.493-1.39.5957-8.108-4.493z" stroke="#808080" fill="#808080"/><path stroke-linejoin="round" d="m58.08 41.04.9597-1.522 1.688-.6619-.8936 1.291z" stroke="#808080" stroke-width="1px" fill="#808080"/><path d="m13.88 44.57 10.57-6.1" stroke="#000" stroke-width="1px" fill="none"/><path d="m13.88 30.28 10.57-6.11" stroke="#000" stroke-width="1px" fill="none"/><path d="m65.75 74.57 10.57-6.11" stroke="#000" stroke-width="1px" fill="none"/><path d="m65.75 60.27 10.57-6.1" stroke="#000" stroke-width="1px" fill="none"/><path d="m117.6 104.6 10.6-6.14" stroke="#000" stroke-width="1px" fill="none"/><path d="m117.6 90.26 10.6-6.1" stroke="#000" stroke-width="1px" fill="none"/>
</g>
</g>
</svg>
