<svg xmlns:rdf="http://www.w3.org/1999/02/22-rdf-syntax-ns#" xmlns="http://www.w3.org/2000/svg" height="1052" width="744.1" version="1.1" enable-background="new" xmlns:cc="http://creativecommons.org/ns#" xmlns:dc="http://purl.org/dc/elements/1.1/">
<g>
<g><g stroke-linejoin="round" stroke="#000"><path d="m181.9 94.99 311.8-180v40l-311.8 180z" stroke-width="2" fill="#c8c8c8"/><path d="m8.663-5.013 173.2 100 311.7-180-173.2-99.99z" stroke-width="2" fill="#f5f5f5"/><rect stroke-opacity=".9727" transform="matrix(.8660 .5 0 1 0 0)" height="40" width="200" y="-10.01" x="10" stroke-width="2.149" fill="#fff"/>
<g stroke-width="2"><path d="m4.333 7.487 164.5 95v35l-164.5-95z" stroke-opacity=".9727" fill="#fff"/><path d="m4.333 7.487 8.66-5 164.5 95-8.66 5l-164.5-95.01" fill="#f5f5f5"/><path d="m168.9 102.5 8.66-5v35l-8.66 5z" fill="#c8c8c8"/></g></g>
<g stroke-width="1px"><path d="m103.9 39.99 12.99 7.5 25.98-15-12.99-7.5z" stroke="#000" fill="#666"/><path d="m116.9 47.49c4.33-2.5-8.66-10-12.99-7.5z" stroke="#000"/><path d="m131.4 26.82-3.177 1.986 8.075 4.633 3.243-1.919z" stroke="#b3b3b3" fill="#b3b3b3"/></g>
</g>
</g>
</svg>
