<svg xmlns:rdf="http://www.w3.org/1999/02/22-rdf-syntax-ns#" xmlns="http://www.w3.org/2000/svg" height="1052" width="744.1" version="1.1" enable-background="new" xmlns:cc="http://creativecommons.org/ns#" xmlns:dc="http://purl.org/dc/elements/1.1/">
<g stroke="#000"><g stroke-linejoin="round" stroke-linecap="round" fill="#fff"><rect stroke-opacity=".9727" transform="matrix(.8660 .5 0 1 0 0)" height="40" width="200" y=".000006844" x="-.000003712" stroke-width="2.149"/><rect stroke-opacity=".9727" transform="matrix(.8660 .5 0 1 0 0)" height="40" width="220" y=".000006844" x="-10" stroke-width="2.149"/><path d="m-4.322 2.496c-1.917 12.12-1.309 26.03.269 39.84l173 100.2v-40z" stroke-width="2"/></g><path stroke-linejoin="round" d="m-4.323 2.496 4.323-2.496l173.2 100-4.323 2.496z" stroke-linecap="round" stroke-width="2" fill="#f0f0f0"/><path stroke-linejoin="round" d="m168.9 102.5 4.323-2.496v40l-4.323 2.496c-1.841-13.25-1.893-26.86 0-40z" stroke-linecap="round" stroke-width="2" fill="#c8c8c8"/><g stroke-width="1px" fill="none"><path d="m-.6802 39.5 73.04 42.26"/><path d="m-.6802 36.12 71.34 41.27"/><path d="m-.6802 32.74 70.02 40.51"/><path d="m-.6802 29.36 68.95 39.89"/><path d="m-.6802 25.99 67.67 39.14"/><path d="m-.6802 22.61 67.33 38.95"/><path d="m-.6802 19.23 66.43 38.43"/><path d="m-.6802 15.85 65.96 38.16"/><path d="m-.6802 12.47 65.34 37.86"/><path d="m-.6802 9.094 65.35 37.81"/></g></g>
</svg>
