<svg xmlns:rdf="http://www.w3.org/1999/02/22-rdf-syntax-ns#" xmlns="http://www.w3.org/2000/svg" height="1052" width="744.1" version="1.1" enable-background="new" xmlns:cc="http://creativecommons.org/ns#" xmlns:dc="http://purl.org/dc/elements/1.1/">
<g stroke="#000"><g stroke-linejoin="round" stroke-linecap="round" fill="#fff"><rect stroke-opacity=".9727" transform="matrix(.8660 .5 0 1 0 0)" height="40" width="200" y=".000006844" x="-.000003712" stroke-width="2.149"/><rect stroke-opacity=".9727" transform="matrix(.8660 .5 0 1 0 0)" height="40" width="220" y=".000006844" x="-10" stroke-width="2.149"/><path d="m-4.322 2.496c-1.917 12.12-1.309 26.03.269 39.84l173 100.2v-40z" stroke-width="2"/></g><g stroke-linejoin="round" stroke-linecap="round" stroke-width="2"><path d="m-4.323 2.496 4.323-2.496l173.2 100-4.323 2.496z" fill="#f0f0f0"/><path d="m168.9 102.5 4.323-2.496v40l-4.323 2.496c-1.841-13.25-1.893-26.86 0-40z" fill="#c8c8c8"/><path d="m74.46 87.98c-5.43-16.12-8.04-21.8-10.56-46.09" fill="#fff"/></g><g stroke-width="1px" fill="none"><path d="m77.33 85.22 84.67 48.98"/><path d="m120.1 106.6 41.94 24.26"/><path d="m120.6 103.5 41.38 23.94"/><path d="m120.7 100.2 41.32 23.9"/><path d="m120.6 96.76 41.36 23.93"/><path d="m120.6 93.37 41.37 23.94"/><path d="m120.7 90.06 41.27 23.87"/><path d="m120.4 86.47 41.62 24.08"/><path d="m121 83.46 40.99 23.71"/><path d="m121 80.09 40.98 23.71"/><path d="m-.6802 39.5 73.04 42.26"/><path d="m-.6802 36.12 71.34 41.27"/><path d="m-.6802 32.74 70.02 40.51"/><path d="m-.6802 29.36 68.95 39.89"/><path d="m-.6802 25.99 67.67 39.14"/><path d="m-.6802 22.61 67.33 38.95"/><path d="m-.6802 19.23 66.43 38.43"/><path d="m-.6802 15.85 65.96 38.16"/><path d="m-.6802 12.47 64.91 37.55"/><path d="m-.6802 9.094 65.35 37.81"/></g><path stroke-linejoin="round" d="m120.9 107.1-43.78-25.07c-4.25-12.43-5.35-14.06-7.52-33.05l50.9 29.62z" stroke-linecap="round" stroke-width="2" fill="#fff"/><rect stroke-linejoin="bevel" transform="matrix(.8660 .5 0 1 0 0)" height="11.42" width="32.33" y="15.29" x="99.63" stroke-width="1.469" fill="#00f"/><g stroke-linejoin="bevel" stroke-width=".8379"><ellipse rx=".9948" ry=".9649" transform="matrix(.8660 .5 0 1 0 0)" cy="31.88" cx="103.8"/><ellipse rx=".9948" transform="matrix(.8660 .5 0 1 0 0)" ry=".9649" cy="31.71" cx="111.5"/><ellipse rx=".9948" ry=".9649" transform="matrix(.8660 .5 0 1 0 0)" cy="31.54" cx="119.1"/><ellipse rx=".9948" transform="matrix(.8660 .5 0 1 0 0)" ry=".9649" cy="31.37" cx="126.8"/></g></g>
</svg>
