<svg xmlns:rdf="http://www.w3.org/1999/02/22-rdf-syntax-ns#" xmlns="http://www.w3.org/2000/svg" height="1052" width="744.1" version="1.1" enable-background="new" xmlns:cc="http://creativecommons.org/ns#" xmlns:dc="http://purl.org/dc/elements/1.1/">
<g stroke-linejoin="round">
<g stroke="#000" fill="#fff">
<rect transform="matrix(.8660 .5 0 1 0 0)" height="20" width="200" y=".000002617" x="-.00001526" stroke-width="2.149"/>
<g stroke-width="2">
<path d="m-8.66-5 8.66 5v20l-8.66-5z"/>
<path d="m0 0 173.2 100v20l-173.2-100z"/>
<path d="m173.2 100 8.66 5v20l-8.66-5z"/>
</g>
</g>
<g stroke="#000" stroke-width="1.075" fill="#e6e6e6">
<rect transform="matrix(.8660 .5 0 1 0 0)" height="14.2" width="60" y="3.189" x="4.001"/>
<rect transform="matrix(.8660 .5 0 1 0 0)" height="14.2" width="60" y="3.019" x="69.22"/>
<rect transform="matrix(.8660 .5 0 1 0 0)" height="14.2" width="60" y="2.849" x="134.4"/>
</g>
<ellipse rx="1.464" ry="1.54" stroke="#000" transform="matrix(.8631 .5051 0 1 0 0)" cy="10.7" cx="6.662" stroke-width=".1847"/>
<ellipse rx="1.464" transform="matrix(.8631 .5051 0 1 0 0)" stroke="#000" ry="1.54" cy="10.22" cx="61.55" stroke-width=".1847"/>
<g transform="translate(-5.834 -1.856)">
<path d="m17.87 4.478 2.869.01096-.03608 8.41-.5196.5004-2.963-8.33z" transform="matrix(.8660 .5 0 1 0 0)" stroke="#008000" stroke-width="1.075" fill="#008000"/>
<g>
<path d="m14.88 13.63 2.516 1.508v8.485l-2.516-1.508z" stroke="#00d400" fill="#00d400"/>
<path d="m14.57 15.13 2.828 1.633v5.149l-3.619 2.011-2.928-6.652z" stroke="#008000" fill="#008000"/>
<path d="m10.79 17.26 2.828 1.633v5.149l-2.828-1.633z" stroke="#000"/>
</g>
</g>
<g transform="translate(-.4293 1.275)">
<path d="m17.87 4.478 2.869.01096-.03608 8.41-.5196.5004-2.963-8.33z" transform="matrix(.8660 .5 0 1 0 0)" stroke="#008000" stroke-width="1.075" fill="#008000"/>
<g>
<path d="m14.88 13.63 2.516 1.508v8.485l-2.516-1.508z" stroke="#00d400" fill="#00d400"/>
<path d="m14.57 15.13 2.828 1.633v5.149l-3.619 2.011-2.928-6.652z" stroke="#008000" fill="#008000"/>
<path d="m10.79 17.26 2.828 1.633v5.149l-2.828-1.633z" stroke="#000"/>
</g>
</g>
<g transform="translate(4.975 4.407)">
<path d="m17.87 4.478 2.869.01096-.03608 8.41-.5196.5004-2.963-8.33z" transform="matrix(.8660 .5 0 1 0 0)" stroke="#008000" stroke-width="1.075" fill="#008000"/>
<g>
<path d="m14.88 13.63 2.516 1.508v8.485l-2.516-1.508z" stroke="#00d400" fill="#00d400"/>
<path d="m14.57 15.13 2.828 1.633v5.149l-3.619 2.011-2.928-6.652z" stroke="#008000" fill="#008000"/>
<path d="m10.79 17.26 2.828 1.633v5.149l-2.828-1.633z" stroke="#000"/>
</g>
</g>
<g transform="translate(10.38 7.538)">
<path d="m17.87 4.478 2.869.01096-.03608 8.41-.5196.5004-2.963-8.33z" transform="matrix(.8660 .5 0 1 0 0)" stroke="#008000" stroke-width="1.075" fill="#008000"/>
<g>
<path d="m14.88 13.63 2.516 1.508v8.485l-2.516-1.508z" stroke="#00d400" fill="#00d400"/>
<path d="m14.57 15.13 2.828 1.633v5.149l-3.619 2.011-2.928-6.652z" stroke="#008000" fill="#008000"/>
<path d="m10.79 17.26 2.828 1.633v5.149l-2.828-1.633z" stroke="#000"/>
</g>
</g>
<g transform="translate(15.78 10.67)">
<path d="m17.87 4.478 2.869.01096-.03608 8.41-.5196.5004-2.963-8.33z" transform="matrix(.8660 .5 0 1 0 0)" stroke="#008000" stroke-width="1.075" fill="#008000"/>
<g>
<path d="m14.88 13.63 2.516 1.508v8.485l-2.516-1.508z" stroke="#00d400" fill="#00d400"/>
<path d="m14.57 15.13 2.828 1.633v5.149l-3.619 2.011-2.928-6.652z" stroke="#008000" fill="#008000"/>
<path d="m10.79 17.26 2.828 1.633v5.149l-2.828-1.633z" stroke="#000"/>
</g>
</g>
<g transform="translate(21.19 13.8)">
<path d="m17.87 4.478 2.869.01096-.03608 8.41-.5196.5004-2.963-8.33z" transform="matrix(.8660 .5 0 1 0 0)" stroke="#008000" stroke-width="1.075" fill="#008000"/>
<g>
<path d="m14.88 13.63 2.516 1.508v8.485l-2.516-1.508z" stroke="#00d400" fill="#00d400"/>
<path d="m14.57 15.13 2.828 1.633v5.149l-3.619 2.011-2.928-6.652z" stroke="#008000" fill="#008000"/>
<path d="m10.79 17.26 2.828 1.633v5.149l-2.828-1.633z" stroke="#000"/>
</g>
</g>
<g transform="translate(26.59 16.93)">
<path d="m17.87 4.478 2.869.01096-.03608 8.41-.5196.5004-2.963-8.33z" transform="matrix(.8660 .5 0 1 0 0)" stroke="#008000" stroke-width="1.075" fill="#008000"/>
<g>
<path d="m14.88 13.63 2.516 1.508v8.485l-2.516-1.508z" stroke="#00d400" fill="#00d400"/>
<path d="m14.57 15.13 2.828 1.633v5.149l-3.619 2.011-2.928-6.652z" stroke="#008000" fill="#008000"/>
<path d="m10.79 17.26 2.828 1.633v5.149l-2.828-1.633z" stroke="#000"/>
</g>
</g>
<g transform="translate(32 20.06)">
<path d="m17.87 4.478 2.869.01096-.03608 8.41-.5196.5004-2.963-8.33z" transform="matrix(.8660 .5 0 1 0 0)" stroke="#008000" stroke-width="1.075" fill="#008000"/>
<g>
<path d="m14.88 13.63 2.516 1.508v8.485l-2.516-1.508z" stroke="#00d400" fill="#00d400"/>
<path d="m14.57 15.13 2.828 1.633v5.149l-3.619 2.011-2.928-6.652z" stroke="#008000" fill="#008000"/>
<path d="m10.79 17.26 2.828 1.633v5.149l-2.828-1.633z" stroke="#000"/>
</g>
</g>
<ellipse rx="1.464" transform="matrix(.8631 .5051 0 1 0 0)" stroke="#000" ry="1.54" cy="10.12" cx="72.08" stroke-width=".1847"/>
<ellipse rx="1.464" ry="1.54" stroke="#000" transform="matrix(.8631 .5051 0 1 0 0)" cy="9.647" cx="127" stroke-width=".1847"/>
<g transform="translate(50.62 30.6)">
<path d="m17.87 4.478 2.869.01096-.03608 8.41-.5196.5004-2.963-8.33z" transform="matrix(.8660 .5 0 1 0 0)" stroke="#008000" stroke-width="1.075" fill="#008000"/>
<g>
<path d="m14.88 13.63 2.516 1.508v8.485l-2.516-1.508z" stroke="#00d400" fill="#00d400"/>
<path d="m14.57 15.13 2.828 1.633v5.149l-3.619 2.011-2.928-6.652z" stroke="#008000" fill="#008000"/>
<path d="m10.79 17.26 2.828 1.633v5.149l-2.828-1.633z" stroke="#000"/>
</g>
</g>
<g transform="translate(56.03 33.74)">
<path d="m17.87 4.478 2.869.01096-.03608 8.41-.5196.5004-2.963-8.33z" transform="matrix(.8660 .5 0 1 0 0)" stroke="#008000" stroke-width="1.075" fill="#008000"/>
<g>
<path d="m14.88 13.63 2.516 1.508v8.485l-2.516-1.508z" stroke="#00d400" fill="#00d400"/>
<path d="m14.57 15.13 2.828 1.633v5.149l-3.619 2.011-2.928-6.652z" stroke="#008000" fill="#008000"/>
<path d="m10.79 17.26 2.828 1.633v5.149l-2.828-1.633z" stroke="#000"/>
</g>
</g>
<g transform="translate(61.43 36.87)">
<path d="m17.87 4.478 2.869.01096-.03608 8.41-.5196.5004-2.963-8.33z" transform="matrix(.8660 .5 0 1 0 0)" stroke="#008000" stroke-width="1.075" fill="#008000"/>
<g>
<path d="m14.88 13.63 2.516 1.508v8.485l-2.516-1.508z" stroke="#00d400" fill="#00d400"/>
<path d="m14.57 15.13 2.828 1.633v5.149l-3.619 2.011-2.928-6.652z" stroke="#008000" fill="#008000"/>
<path d="m10.79 17.26 2.828 1.633v5.149l-2.828-1.633z" stroke="#000"/>
</g>
</g>
<g transform="translate(66.84 40)">
<path d="m17.87 4.478 2.869.01096-.03608 8.41-.5196.5004-2.963-8.33z" transform="matrix(.8660 .5 0 1 0 0)" stroke="#008000" stroke-width="1.075" fill="#008000"/>
<g>
<path d="m14.88 13.63 2.516 1.508v8.485l-2.516-1.508z" stroke="#00d400" fill="#00d400"/>
<path d="m14.57 15.13 2.828 1.633v5.149l-3.619 2.011-2.928-6.652z" stroke="#008000" fill="#008000"/>
<path d="m10.79 17.26 2.828 1.633v5.149l-2.828-1.633z" stroke="#000"/>
</g>
</g>
<g transform="translate(72.24 43.13)">
<path d="m17.87 4.478 2.869.01096-.03608 8.41-.5196.5004-2.963-8.33z" transform="matrix(.8660 .5 0 1 0 0)" stroke="#008000" stroke-width="1.075" fill="#008000"/>
<g>
<path d="m14.88 13.63 2.516 1.508v8.485l-2.516-1.508z" stroke="#00d400" fill="#00d400"/>
<path d="m14.57 15.13 2.828 1.633v5.149l-3.619 2.011-2.928-6.652z" stroke="#008000" fill="#008000"/>
<path d="m10.79 17.26 2.828 1.633v5.149l-2.828-1.633z" stroke="#000"/>
</g>
</g>
<g transform="translate(77.65 46.26)">
<path d="m17.87 4.478 2.869.01096-.03608 8.41-.5196.5004-2.963-8.33z" transform="matrix(.8660 .5 0 1 0 0)" stroke="#008000" stroke-width="1.075" fill="#008000"/>
<g>
<path d="m14.88 13.63 2.516 1.508v8.485l-2.516-1.508z" stroke="#00d400" fill="#00d400"/>
<path d="m14.57 15.13 2.828 1.633v5.149l-3.619 2.011-2.928-6.652z" stroke="#008000" fill="#008000"/>
<path d="m10.79 17.26 2.828 1.633v5.149l-2.828-1.633z" stroke="#000"/>
</g>
</g>
<g transform="translate(83.05 49.39)">
<path d="m17.87 4.478 2.869.01096-.03608 8.41-.5196.5004-2.963-8.33z" transform="matrix(.8660 .5 0 1 0 0)" stroke="#008000" stroke-width="1.075" fill="#008000"/>
<g>
<path d="m14.88 13.63 2.516 1.508v8.485l-2.516-1.508z" stroke="#00d400" fill="#00d400"/>
<path d="m14.57 15.13 2.828 1.633v5.149l-3.619 2.011-2.928-6.652z" stroke="#008000" fill="#008000"/>
<path d="m10.79 17.26 2.828 1.633v5.149l-2.828-1.633z" stroke="#000"/>
</g>
</g>
<g transform="translate(88.45 52.52)">
<path d="m17.87 4.478 2.869.01096-.03608 8.41-.5196.5004-2.963-8.33z" transform="matrix(.8660 .5 0 1 0 0)" stroke="#008000" stroke-width="1.075" fill="#008000"/>
<g>
<path d="m14.88 13.63 2.516 1.508v8.485l-2.516-1.508z" stroke="#00d400" fill="#00d400"/>
<path d="m14.57 15.13 2.828 1.633v5.149l-3.619 2.011-2.928-6.652z" stroke="#008000" fill="#008000"/>
<path d="m10.79 17.26 2.828 1.633v5.149l-2.828-1.633z" stroke="#000"/>
</g>
</g>
<ellipse rx="1.464" ry="1.54" stroke="#000" transform="matrix(.8631 .5051 0 1 0 0)" cy="9.47" cx="137.5" stroke-width=".1847"/>
<ellipse rx="1.464" transform="matrix(.8631 .5051 0 1 0 0)" stroke="#000" ry="1.54" cy="8.997" cx="192.4" stroke-width=".1847"/>
<g transform="translate(107.1 63.02)">
<path d="m17.87 4.478 2.869.01096-.03608 8.41-.5196.5004-2.963-8.33z" transform="matrix(.8660 .5 0 1 0 0)" stroke="#008000" stroke-width="1.075" fill="#008000"/>
<g>
<path d="m14.88 13.63 2.516 1.508v8.485l-2.516-1.508z" stroke="#00d400" fill="#00d400"/>
<path d="m14.57 15.13 2.828 1.633v5.149l-3.619 2.011-2.928-6.652z" stroke="#008000" fill="#008000"/>
<path d="m10.79 17.26 2.828 1.633v5.149l-2.828-1.633z" stroke="#000"/>
</g>
</g>
<g transform="translate(112.5 66.15)">
<path d="m17.87 4.478 2.869.01096-.03608 8.41-.5196.5004-2.963-8.33z" transform="matrix(.8660 .5 0 1 0 0)" stroke="#008000" stroke-width="1.075" fill="#008000"/>
<g>
<path d="m14.88 13.63 2.516 1.508v8.485l-2.516-1.508z" stroke="#00d400" fill="#00d400"/>
<path d="m14.57 15.13 2.828 1.633v5.149l-3.619 2.011-2.928-6.652z" stroke="#008000" fill="#008000"/>
<path d="m10.79 17.26 2.828 1.633v5.149l-2.828-1.633z" stroke="#000"/>
</g>
</g>
<g transform="translate(117.9 69.28)">
<path d="m17.87 4.478 2.869.01096-.03608 8.41-.5196.5004-2.963-8.33z" transform="matrix(.8660 .5 0 1 0 0)" stroke="#008000" stroke-width="1.075" fill="#008000"/>
<g>
<path d="m14.88 13.63 2.516 1.508v8.485l-2.516-1.508z" stroke="#00d400" fill="#00d400"/>
<path d="m14.57 15.13 2.828 1.633v5.149l-3.619 2.011-2.928-6.652z" stroke="#008000" fill="#008000"/>
<path d="m10.79 17.26 2.828 1.633v5.149l-2.828-1.633z" stroke="#000"/>
</g>
</g>
<g transform="translate(123.3 72.41)">
<path d="m17.87 4.478 2.869.01096-.03608 8.41-.5196.5004-2.963-8.33z" transform="matrix(.8660 .5 0 1 0 0)" stroke="#008000" stroke-width="1.075" fill="#008000"/>
<g>
<path d="m14.88 13.63 2.516 1.508v8.485l-2.516-1.508z" stroke="#00d400" fill="#00d400"/>
<path d="m14.57 15.13 2.828 1.633v5.149l-3.619 2.011-2.928-6.652z" stroke="#008000" fill="#008000"/>
<path d="m10.79 17.26 2.828 1.633v5.149l-2.828-1.633z" stroke="#000"/>
</g>
</g>
<g transform="translate(128.7 75.54)">
<path d="m17.87 4.478 2.869.01096-.03608 8.41-.5196.5004-2.963-8.33z" transform="matrix(.8660 .5 0 1 0 0)" stroke="#008000" stroke-width="1.075" fill="#008000"/>
<g>
<path d="m14.88 13.63 2.516 1.508v8.485l-2.516-1.508z" stroke="#00d400" fill="#00d400"/>
<path d="m14.57 15.13 2.828 1.633v5.149l-3.619 2.011-2.928-6.652z" stroke="#008000" fill="#008000"/>
<path d="m10.79 17.26 2.828 1.633v5.149l-2.828-1.633z" stroke="#000"/>
</g>
</g>
<g transform="translate(134.1 78.67)">
<path d="m17.87 4.478 2.869.01096-.03608 8.41-.5196.5004-2.963-8.33z" transform="matrix(.8660 .5 0 1 0 0)" stroke="#008000" stroke-width="1.075" fill="#008000"/>
<g>
<path d="m14.88 13.63 2.516 1.508v8.485l-2.516-1.508z" stroke="#00d400" fill="#00d400"/>
<path d="m14.57 15.13 2.828 1.633v5.149l-3.619 2.011-2.928-6.652z" stroke="#008000" fill="#008000"/>
<path d="m10.79 17.26 2.828 1.633v5.149l-2.828-1.633z" stroke="#000"/>
</g>
</g>
<g transform="translate(139.5 81.8)">
<path d="m17.87 4.478 2.869.01096-.03608 8.41-.5196.5004-2.963-8.33z" transform="matrix(.8660 .5 0 1 0 0)" stroke="#008000" stroke-width="1.075" fill="#008000"/>
<g>
<path d="m14.88 13.63 2.516 1.508v8.485l-2.516-1.508z" stroke="#00d400" fill="#00d400"/>
<path d="m14.57 15.13 2.828 1.633v5.149l-3.619 2.011-2.928-6.652z" stroke="#008000" fill="#008000"/>
<path d="m10.79 17.26 2.828 1.633v5.149l-2.828-1.633z" stroke="#000"/>
</g>
</g>
<g transform="translate(145 84.94)">
<path d="m17.87 4.478 2.869.01096-.03608 8.41-.5196.5004-2.963-8.33z" transform="matrix(.8660 .5 0 1 0 0)" stroke="#008000" stroke-width="1.075" fill="#008000"/>
<g>
<path d="m14.88 13.63 2.516 1.508v8.485l-2.516-1.508z" stroke="#00d400" fill="#00d400"/>
<path d="m14.57 15.13 2.828 1.633v5.149l-3.619 2.011-2.928-6.652z" stroke="#008000" fill="#008000"/>
<path d="m10.79 17.26 2.828 1.633v5.149l-2.828-1.633z" stroke="#000"/>
</g>
</g>
</g>
</svg>
