<svg xmlns:rdf="http://www.w3.org/1999/02/22-rdf-syntax-ns#" xmlns="http://www.w3.org/2000/svg" height="1052" width="744.1" version="1.1" enable-background="new" xmlns:cc="http://creativecommons.org/ns#" xmlns:dc="http://purl.org/dc/elements/1.1/">
<g>
<g stroke-linejoin="round">
<g stroke="#000" fill="#fff">
<rect transform="matrix(.8660 .5 0 1 0 0)" height="20" width="200" y=".000002617" x="-.00001526" stroke-width="2.149"/>
<g stroke-width="2">
<path d="m-8.66-5 8.66 5v20l-8.66-5z"/>
<path d="m0 0 173.2 100v20l-173.2-100z"/>
<path d="m173.2 100 8.66 5v20l-8.66-5z"/>
</g>
</g>
<rect transform="matrix(.8660 .5 0 1 0 0)" height="14.2" width="80" stroke="#000" y="2.942" x="14.62" stroke-width="1.075" fill="#e6e6e6"/>
<rect transform="matrix(.8660 .5 0 1 0 0)" height="14.2" width="80" stroke="#000" y="2.882" x="105.6" stroke-width="1.075" fill="#e6e6e6"/>
<g>
<path d="m15.88 17.49c-.6138.2346-1.32.6104-2.06.9813l1.667 2.671 1.387-.7017c.3543-.1497.5191-.4452.5195-.9041-.000292-.7115-.4663-1.565-1.041-1.906-.1643-.09769-.3263-.1459-.4727-.1406z" stroke="#808080" stroke-width=".8304" fill="#808080"/>
<ellipse rx="1.464" transform="matrix(.8631 .5051 0 1 0 0)" stroke="#b3b3b3" ry="1.54" cy="11.3" cx="16.9" stroke-width=".1847" fill="#b3b3b3"/>
</g>
<g transform="translate(61.5 36.38)">
<path d="m16.24 17.31c-.6138.2346-1.32.6104-2.06.9813l1.667 2.671 1.387-.7017c.3543-.1497.5191-.4452.5195-.9041-.000292-.7115-.4663-1.565-1.041-1.906-.1643-.09769-.3263-.1459-.4727-.1406z" stroke="#808080" stroke-width=".8304" fill="#808080"/>
<ellipse rx="1.464" ry="1.54" stroke="#b3b3b3" transform="matrix(.8631 .5051 0 1 0 0)" cy="10.91" cx="17.31" stroke-width=".1847" fill="#b3b3b3"/>
</g>
<g transform="matrix(1.531 0 0 1.531 -16.64 -14.33)">
<path d="m25.25 22.7c-.6138.2346-1.32.6104-2.06.9813l1.667 2.671 1.387-.7017c.36-.14.53-.44.53-.90 0-.71-.47-1.56-1.05-1.91-.16-.09-.32-.14-.47-.14z" stroke="#b3b3b3" stroke-width=".8304" fill="#b3b3b3"/>
<path d="m25.58 25.94c0 1.019-1.681 1.113-2.489.7903-.6535-.2612-1.141-1.157-1.017-1.85.1486-.8351 1.044-2.159 1.92-1.67.8762.4890 1.586 1.711 1.586 2.73z" stroke="#f55" stroke-width=".2105" fill="#f55"/>
</g>
<g transform="matrix(1.531 0 0 1.531 -9.608 -10.16)">
<path d="m25.25 22.7c-.6138.2346-1.32.6104-2.06.9813l1.667 2.671 1.387-.7017c.36-.14.53-.44.53-.90 0-.71-.47-1.56-1.05-1.91-.16-.09-.32-.14-.47-.14z" stroke="#b3b3b3" stroke-width=".8304" fill="#b3b3b3"/>
<path d="m25.58 25.94c0 1.019-1.681 1.113-2.489.7903-.6535-.2612-1.141-1.157-1.017-1.85.1486-.8351 1.044-2.159 1.92-1.67.8762.4890 1.586 1.711 1.586 2.73z" stroke="#f55" stroke-width=".2105" fill="#f55"/>
</g>
<g transform="matrix(1.531 0 0 1.531 -2.572 -6.004)">
<path d="m25.25 22.7c-.6138.2346-1.32.6104-2.06.9813l1.667 2.671 1.387-.7017c.36-.14.53-.44.53-.90 0-.71-.47-1.56-1.05-1.91-.16-.09-.32-.14-.47-.14z" stroke="#b3b3b3" stroke-width=".8304" fill="#b3b3b3"/>
<path d="m25.58 25.94c0 1.019-1.681 1.113-2.489.7903-.6535-.2612-1.141-1.157-1.017-1.85.1486-.8351 1.044-2.159 1.92-1.67.8762.4890 1.586 1.711 1.586 2.73z" stroke="#f55" stroke-width=".2105" fill="#f55"/>
</g>
<g transform="matrix(1.531 0 0 1.531 4.463 -1.843)">
<path d="m25.25 22.7c-.6138.2346-1.32.6104-2.06.9813l1.667 2.671 1.387-.7017c.36-.14.53-.44.53-.90 0-.71-.47-1.56-1.05-1.91-.16-.09-.32-.14-.47-.14z" stroke="#b3b3b3" stroke-width=".8304" fill="#b3b3b3"/>
<path d="m25.58 25.94c0 1.019-1.681 1.113-2.489.7903-.6535-.2612-1.141-1.157-1.017-1.85.1486-.8351 1.044-2.159 1.92-1.67.8762.4890 1.586 1.711 1.586 2.73z" stroke="#f55" stroke-width=".2105" fill="#f55"/>
</g>
<g transform="matrix(1.531 0 0 1.531 11.5 2.317)">
<path d="m25.25 22.7c-.6138.2346-1.32.6104-2.06.9813l1.667 2.671 1.387-.7017c.36-.14.53-.44.53-.90 0-.71-.47-1.56-1.05-1.91-.16-.09-.32-.14-.47-.14z" stroke="#b3b3b3" stroke-width=".8304" fill="#b3b3b3"/>
<path d="m25.58 25.94c0 1.019-1.681 1.113-2.489.7903-.6535-.2612-1.141-1.157-1.017-1.85.1486-.8351 1.044-2.159 1.92-1.67.8762.4890 1.586 1.711 1.586 2.73z" stroke="#f55" stroke-width=".2105" fill="#f55"/>
</g>
<g transform="matrix(1.531 0 0 1.531 18.53 6.478)">
<path d="m25.25 22.7c-.6138.2346-1.32.6104-2.06.9813l1.667 2.671 1.387-.7017c.36-.14.53-.44.53-.90 0-.71-.47-1.56-1.05-1.91-.16-.09-.32-.14-.47-.14z" stroke="#b3b3b3" stroke-width=".8304" fill="#b3b3b3"/>
<path d="m25.58 25.94c0 1.019-1.681 1.113-2.489.7903-.6535-.2612-1.141-1.157-1.017-1.85.1486-.8351 1.044-2.159 1.92-1.67.8762.4890 1.586 1.711 1.586 2.73z" stroke="#f55" stroke-width=".2105" fill="#f55"/>
</g>
<g transform="matrix(1.531 0 0 1.531 25.57 10.64)">
<path d="m25.25 22.7c-.6138.2346-1.32.6104-2.06.9813l1.667 2.671 1.387-.7017c.36-.14.53-.44.53-.90 0-.71-.47-1.56-1.05-1.91-.16-.09-.32-.14-.47-.14z" stroke="#b3b3b3" stroke-width=".8304" fill="#b3b3b3"/>
<path d="m25.58 25.94c0 1.019-1.681 1.113-2.489.7903-.6535-.2612-1.141-1.157-1.017-1.85.1486-.8351 1.044-2.159 1.92-1.67.8762.4890 1.586 1.711 1.586 2.73z" stroke="#f55" stroke-width=".2105" fill="#f55"/>
</g>
<g transform="matrix(1.531 0 0 1.531 32.61 14.8)">
<path d="m25.25 22.7c-.6138.2346-1.32.6104-2.06.9813l1.667 2.671 1.387-.7017c.36-.14.53-.44.53-.90 0-.71-.47-1.56-1.05-1.91-.16-.09-.32-.14-.47-.14z" stroke="#b3b3b3" stroke-width=".8304" fill="#b3b3b3"/>
<path d="m25.58 25.94c0 1.019-1.681 1.113-2.489.7903-.6535-.2612-1.141-1.157-1.017-1.85.1486-.8351 1.044-2.159 1.92-1.67.8762.4890 1.586 1.711 1.586 2.73z" stroke="#f55" stroke-width=".2105" fill="#f55"/>
</g>
<g transform="translate(78.8 45.43)">
<path d="m15.88 17.49c-.6138.2346-1.32.6104-2.06.9813l1.667 2.671 1.387-.7017c.3543-.1497.5191-.4452.5195-.9041-.000292-.7115-.4663-1.565-1.041-1.906-.1643-.09769-.3263-.1459-.4727-.1406z" stroke="#808080" stroke-width=".8304" fill="#808080"/>
<ellipse rx="1.464" ry="1.54" stroke="#b3b3b3" transform="matrix(.8631 .5051 0 1 0 0)" cy="11.3" cx="16.9" stroke-width=".1847" fill="#b3b3b3"/>
</g>
<g transform="translate(140.3 81.81)">
<path d="m16.24 17.31c-.6138.2346-1.32.6104-2.06.9813l1.667 2.671 1.387-.7017c.3543-.1497.5191-.4452.5195-.9041-.000292-.7115-.4663-1.565-1.041-1.906-.1643-.09769-.3263-.1459-.4727-.1406z" stroke="#808080" stroke-width=".8304" fill="#808080"/>
<ellipse rx="1.464" transform="matrix(.8631 .5051 0 1 0 0)" stroke="#b3b3b3" ry="1.54" cy="10.91" cx="17.31" stroke-width=".1847" fill="#b3b3b3"/>
</g>
<g transform="matrix(1.531 0 0 1.531 62.15 31.11)">
<path d="m25.25 22.7c-.6138.2346-1.32.6104-2.06.9813l1.667 2.671 1.387-.7017c.36-.14.53-.44.53-.90 0-.71-.47-1.56-1.05-1.91-.16-.09-.32-.14-.47-.14z" stroke="#b3b3b3" stroke-width=".8304" fill="#b3b3b3"/>
<path d="m25.58 25.94c0 1.019-1.681 1.113-2.489.7903-.6535-.2612-1.141-1.157-1.017-1.85.1486-.8351 1.044-2.159 1.92-1.67.8762.4890 1.586 1.711 1.586 2.73z" stroke="#f55" stroke-width=".2105" fill="#f55"/>
</g>
<g transform="matrix(1.531 0 0 1.531 69.19 35.27)">
<path d="m25.25 22.7c-.6138.2346-1.32.6104-2.06.9813l1.667 2.671 1.387-.7017c.36-.14.53-.44.53-.90 0-.71-.47-1.56-1.05-1.91-.16-.09-.32-.14-.47-.14z" stroke="#b3b3b3" stroke-width=".8304" fill="#b3b3b3"/>
<path d="m25.58 25.94c0 1.019-1.681 1.113-2.489.7903-.6535-.2612-1.141-1.157-1.017-1.85.1486-.8351 1.044-2.159 1.92-1.67.8762.4890 1.586 1.711 1.586 2.73z" stroke="#f55" stroke-width=".2105" fill="#f55"/>
</g>
<g transform="matrix(1.531 0 0 1.531 76.23 39.43)">
<path d="m25.25 22.7c-.6138.2346-1.32.6104-2.06.9813l1.667 2.671 1.387-.7017c.36-.14.53-.44.53-.90 0-.71-.47-1.56-1.05-1.91-.16-.09-.32-.14-.47-.14z" stroke="#b3b3b3" stroke-width=".8304" fill="#b3b3b3"/>
<path d="m25.58 25.94c0 1.019-1.681 1.113-2.489.7903-.6535-.2612-1.141-1.157-1.017-1.85.1486-.8351 1.044-2.159 1.92-1.67.8762.4890 1.586 1.711 1.586 2.73z" stroke="#f55" stroke-width=".2105" fill="#f55"/>
</g>
<g transform="matrix(1.531 0 0 1.531 83.26 43.59)">
<path d="m25.25 22.7c-.6138.2346-1.32.6104-2.06.9813l1.667 2.671 1.387-.7017c.36-.14.53-.44.53-.90 0-.71-.47-1.56-1.05-1.91-.16-.09-.32-.14-.47-.14z" stroke="#b3b3b3" stroke-width=".8304" fill="#b3b3b3"/>
<path d="m25.58 25.94c0 1.019-1.681 1.113-2.489.7903-.6535-.2612-1.141-1.157-1.017-1.85.1486-.8351 1.044-2.159 1.92-1.67.8762.4890 1.586 1.711 1.586 2.73z" stroke="#f55" stroke-width=".2105" fill="#f55"/>
</g>
<g transform="matrix(1.531 0 0 1.531 90.3 47.75)">
<path d="m25.25 22.7c-.6138.2346-1.32.6104-2.06.9813l1.667 2.671 1.387-.7017c.36-.14.53-.44.53-.90 0-.71-.47-1.56-1.05-1.91-.16-.09-.32-.14-.47-.14z" stroke="#b3b3b3" stroke-width=".8304" fill="#b3b3b3"/>
<path d="m25.58 25.94c0 1.019-1.681 1.113-2.489.7903-.6535-.2612-1.141-1.157-1.017-1.85.1486-.8351 1.044-2.159 1.92-1.67.8762.4890 1.586 1.711 1.586 2.73z" stroke="#f55" stroke-width=".2105" fill="#f55"/>
</g>
<g transform="matrix(1.531 0 0 1.531 97.33 51.91)">
<path d="m25.25 22.7c-.6138.2346-1.32.6104-2.06.9813l1.667 2.671 1.387-.7017c.36-.14.53-.44.53-.90 0-.71-.47-1.56-1.05-1.91-.16-.09-.32-.14-.47-.14z" stroke="#b3b3b3" stroke-width=".8304" fill="#b3b3b3"/>
<path d="m25.58 25.94c0 1.019-1.681 1.113-2.489.7903-.6535-.2612-1.141-1.157-1.017-1.85.1486-.8351 1.044-2.159 1.92-1.67.8762.4890 1.586 1.711 1.586 2.73z" stroke="#f55" stroke-width=".2105" fill="#f55"/>
</g>
<g transform="matrix(1.531 0 0 1.531 104.4 56.07)">
<path d="m25.25 22.7c-.6138.2346-1.32.6104-2.06.9813l1.667 2.671 1.387-.7017c.36-.14.53-.44.53-.90 0-.71-.47-1.56-1.05-1.91-.16-.09-.32-.14-.47-.14z" stroke="#b3b3b3" stroke-width=".8304" fill="#b3b3b3"/>
<path d="m25.58 25.94c0 1.019-1.681 1.113-2.489.7903-.6535-.2612-1.141-1.157-1.017-1.85.1486-.8351 1.044-2.159 1.92-1.67.8762.4890 1.586 1.711 1.586 2.73z" stroke="#f55" stroke-width=".2105" fill="#f55"/>
</g>
<g transform="matrix(1.531 0 0 1.531 111.4 60.23)">
<path d="m25.25 22.7c-.6138.2346-1.32.6104-2.06.9813l1.667 2.671 1.387-.7017c.36-.14.53-.44.53-.90 0-.71-.47-1.56-1.05-1.91-.16-.09-.32-.14-.47-.14z" stroke="#b3b3b3" stroke-width=".8304" fill="#b3b3b3"/>
<path d="m25.58 25.94c0 1.019-1.681 1.113-2.489.7903-.6535-.2612-1.141-1.157-1.017-1.85.1486-.8351 1.044-2.159 1.92-1.67.8762.4890 1.586 1.711 1.586 2.73z" stroke="#f55" stroke-width=".2105" fill="#f55"/>
</g>
</g>
</g>
</svg>
