<?xml version="1.0" encoding="UTF-8" standalone="no"?>
<!-- Created with Inkscape (http://www.inkscape.org/) -->

<svg
   xmlns:dc="http://purl.org/dc/elements/1.1/"
   xmlns:cc="http://creativecommons.org/ns#"
   xmlns:rdf="http://www.w3.org/1999/02/22-rdf-syntax-ns#"
   xmlns:svg="http://www.w3.org/2000/svg"
   xmlns="http://www.w3.org/2000/svg"
   xmlns:sodipodi="http://sodipodi.sourceforge.net/DTD/sodipodi-0.dtd"
   xmlns:inkscape="http://www.inkscape.org/namespaces/inkscape"
   width="744.09448819"
   height="1052.3622047"
   id="svg2"
   version="1.1"
   inkscape:version="0.91 r13725"
   sodipodi:docname="fibercross-fc-8-8.svg"
   enable-background="new">
  <defs
     id="defs4" />
  <sodipodi:namedview
     id="base"
     pagecolor="#ffffff"
     bordercolor="#666666"
     borderopacity="1.0"
     inkscape:pageopacity="0.0"
     inkscape:pageshadow="2"
     inkscape:zoom="3.9999998"
     inkscape:cx="60.004023"
     inkscape:cy="1008.2559"
     inkscape:document-units="px"
     inkscape:current-layer="layer5"
     showgrid="true"
     borderlayer="true"
     showborder="true"
     inkscape:window-width="1920"
     inkscape:window-height="1018"
     inkscape:window-x="-8"
     inkscape:window-y="-8"
     inkscape:window-maximized="1"
     inkscape:showpageshadow="false"
     inkscape:snap-global="false"
     inkscape:snap-bbox="true"
     inkscape:snap-intersection-paths="true"
     inkscape:object-paths="true"
     inkscape:snap-bbox-edge-midpoints="true"
     inkscape:snap-bbox-midpoints="true"
     inkscape:bbox-nodes="true"
     inkscape:bbox-paths="true"
     inkscape:object-nodes="true"
     inkscape:snap-smooth-nodes="true"
     inkscape:snap-midpoints="true"
     inkscape:snap-object-midpoints="true"
     inkscape:snap-center="true"
     inkscape:snap-page="true">
    <inkscape:grid
       type="xygrid"
       id="grid2985"
       empspacing="5"
       visible="true"
       enabled="false"
       snapvisiblegridlinesonly="true" />
    <inkscape:grid
       type="axonomgrid"
       id="grid2989"
       units="px"
       empspacing="5"
       visible="true"
       enabled="true"
       snapvisiblegridlinesonly="true"
       spacingy="5px" />
  </sodipodi:namedview>
  <metadata
     id="metadata7">
    <rdf:RDF>
      <cc:Work
         rdf:about="">
        <dc:format>image/svg+xml</dc:format>
        <dc:type
           rdf:resource="http://purl.org/dc/dcmitype/StillImage" />
        <dc:title />
      </cc:Work>
    </rdf:RDF>
  </metadata>
  <g
     inkscape:label="Body"
     inkscape:groupmode="layer"
     id="layer1"
     style="display:inline">
    <g
       id="g5012">
      <rect
         transform="matrix(0.8660254,-0.5,0,1,0,0)"
         style="fill:#c8c8c8;fill-opacity:1;stroke:#000000;stroke-width:2.14913988;stroke-linejoin:bevel;stroke-miterlimit:4;stroke-dasharray:none;stroke-opacity:1"
         id="rect3897"
         width="120"
         height="20.000002"
         x="200"
         y="200" />
      <path
         sodipodi:nodetypes="ccccc"
         inkscape:connector-curvature="0"
         id="path3899"
         d="M 0,-10e-6 173.20508,100.00002 277.12813,40 103.92305,-60 Z"
         style="fill:#f5f5f5;fill-opacity:1;stroke:#000000;stroke-width:2;stroke-linecap:butt;stroke-linejoin:round;stroke-miterlimit:4;stroke-dasharray:none;stroke-opacity:1" />
    </g>
  </g>
  <g
     inkscape:groupmode="layer"
     id="layer5"
     inkscape:label="Front"
     style="display:inline">
    <rect
       style="display:inline;fill:#ffffff;fill-opacity:1;stroke:#000000;stroke-width:2.14913988;stroke-linejoin:round;stroke-miterlimit:4;stroke-dasharray:none;stroke-opacity:1"
       id="rect3895"
       width="200"
       height="20"
       x="-1.5258789e-005"
       y="2.6171876e-006"
       transform="matrix(0.8660254,0.5,0,1,0,0)" />
    <path
       sodipodi:nodetypes="ccccc"
       style="fill:#ffffff;fill-opacity:1;stroke:#000000;stroke-width:2;stroke-linecap:butt;stroke-linejoin:round;stroke-miterlimit:4;stroke-dasharray:none;stroke-opacity:1"
       d="M -8.66025,-5 0,0 0,20 -8.66025,15 Z"
       id="path4447"
       inkscape:connector-curvature="0" />
    <path
       style="fill:#ffffff;fill-opacity:1;stroke:#000000;stroke-width:2;stroke-linejoin:round;stroke-miterlimit:4;stroke-dasharray:none;stroke-opacity:1"
       d="m 0,0 173.20508,100.00002 0,20 L 0,20 Z"
       id="rect4248"
       inkscape:connector-curvature="0"
       sodipodi:nodetypes="ccccc" />
    <path
       inkscape:connector-curvature="0"
       id="path4273"
       d="m 173.20508,100.00002 8.66025,5 0,20 -8.66025,-5 z"
       style="fill:#ffffff;fill-opacity:1;stroke:#000000;stroke-width:2;stroke-linecap:butt;stroke-linejoin:round;stroke-miterlimit:4;stroke-dasharray:none;stroke-opacity:1"
       sodipodi:nodetypes="ccccc" />
    <rect
       style="opacity:1;fill:#e6e6e6;fill-opacity:1;stroke:#000000;stroke-width:1.07456994;stroke-linecap:butt;stroke-linejoin:round;stroke-miterlimit:4;stroke-dasharray:none;stroke-opacity:1"
       id="rect4143"
       width="80"
       height="14.2"
       x="14.617983"
       y="2.9415002"
       transform="matrix(0.8660254,0.5,0,1,0,0)" />
    <rect
       transform="matrix(0.8660254,0.5,0,1,0,0)"
       y="2.8824883"
       x="105.61469"
       height="14.2"
       width="80"
       id="rect4188"
       style="opacity:1;fill:#e6e6e6;fill-opacity:1;stroke:#000000;stroke-width:1.07456994;stroke-linecap:butt;stroke-linejoin:round;stroke-miterlimit:4;stroke-dasharray:none;stroke-opacity:1" />
    <g
       id="g4199">
      <path
         sodipodi:nodetypes="ccccccc"
         inkscape:connector-curvature="0"
         id="ellipse4190"
         d="m 15.882775,17.489277 c -0.61378,0.23464 -1.320103,0.610444 -2.059879,0.981257 l 1.666974,2.671415 1.387044,-0.70167 c 0.354282,-0.149676 0.519067,-0.445192 0.519531,-0.904124 -2.92e-4,-0.711459 -0.466297,-1.564782 -1.041016,-1.90625 -0.164287,-0.09769 -0.326254,-0.145882 -0.472654,-0.140628 z"
         style="opacity:1;fill:#808080;fill-opacity:1;stroke:#808080;stroke-width:0.83041245;stroke-linecap:butt;stroke-linejoin:round;stroke-miterlimit:4;stroke-dasharray:none;stroke-opacity:1" />
      <ellipse
         style="opacity:1;fill:#b3b3b3;fill-opacity:1;stroke:#b3b3b3;stroke-width:0.18474701;stroke-linecap:butt;stroke-linejoin:round;stroke-miterlimit:4;stroke-dasharray:none;stroke-opacity:1"
         id="ellipse4155"
         cx="16.901838"
         cy="11.297851"
         rx="1.4635707"
         ry="1.5395288"
         transform="matrix(0.86308264,0.50506272,0,1,0,0)" />
    </g>
    <g
       id="g4203"
       transform="translate(61.500003,36.375002)">
      <path
         style="opacity:1;fill:#808080;fill-opacity:1;stroke:#808080;stroke-width:0.83041245;stroke-linecap:butt;stroke-linejoin:round;stroke-miterlimit:4;stroke-dasharray:none;stroke-opacity:1"
         d="m 16.236328,17.3125 c -0.61378,0.23464 -1.320103,0.610444 -2.059879,0.981257 l 1.666974,2.671415 1.387044,-0.70167 c 0.354282,-0.149676 0.519067,-0.445192 0.519531,-0.904124 -2.92e-4,-0.711459 -0.466297,-1.564782 -1.041016,-1.90625 -0.164287,-0.09769 -0.326254,-0.145882 -0.472654,-0.140628 z"
         id="path4205"
         inkscape:connector-curvature="0"
         sodipodi:nodetypes="ccccccc" />
      <ellipse
         transform="matrix(0.86308264,0.50506272,0,1,0,0)"
         ry="1.5395288"
         rx="1.4635707"
         cy="10.91418"
         cx="17.311478"
         id="ellipse4207"
         style="opacity:1;fill:#b3b3b3;fill-opacity:1;stroke:#b3b3b3;stroke-width:0.18474701;stroke-linecap:butt;stroke-linejoin:round;stroke-miterlimit:4;stroke-dasharray:none;stroke-opacity:1" />
    </g>
    <g
       id="g4161"
       transform="matrix(1.5305626,0,0,1.5305626,-16.64376,-14.325484)">
      <path
         style="opacity:1;fill:#b3b3b3;fill-opacity:1;stroke:#b3b3b3;stroke-width:0.83041245;stroke-linecap:butt;stroke-linejoin:round;stroke-miterlimit:4;stroke-dasharray:none;stroke-opacity:1"
         d="m 25.25194,22.70419 c -0.61378,0.23464 -1.320103,0.610444 -2.059879,0.981257 l 1.666974,2.671415 1.387044,-0.70167 C 26.600361,25.505516 26.765146,25.21 26.76561,24.751068 26.765318,24.039609 26.299313,23.186286 25.724594,22.844818 25.560307,22.747128 25.39834,22.698936 25.25194,22.70419 Z"
         id="path4153"
         inkscape:connector-curvature="0"
         sodipodi:nodetypes="ccccccc" />
      <path
         sodipodi:nodetypes="saass"
         inkscape:connector-curvature="0"
         id="ellipse4156"
         d="m 25.57732,25.938717 c 0,1.01855 -1.680839,1.113422 -2.489186,0.790284 -0.653491,-0.261234 -1.140661,-1.157132 -1.017383,-1.850022 0.148586,-0.835131 1.0439,-2.159066 1.920089,-1.670015 0.876189,0.48905 1.58648,1.711203 1.58648,2.729753 z"
         style="opacity:1;fill:#ff5555;fill-opacity:1;stroke:#ff5555;stroke-width:0.21052499;stroke-linecap:butt;stroke-linejoin:round;stroke-miterlimit:4;stroke-dasharray:none;stroke-opacity:1" />
    </g>
    <g
       transform="matrix(1.5305626,0,0,1.5305626,-9.6080446,-10.164717)"
       id="g4165">
      <path
         sodipodi:nodetypes="ccccccc"
         inkscape:connector-curvature="0"
         id="path4167"
         d="m 25.25194,22.70419 c -0.61378,0.23464 -1.320103,0.610444 -2.059879,0.981257 l 1.666974,2.671415 1.387044,-0.70167 C 26.600361,25.505516 26.765146,25.21 26.76561,24.751068 26.765318,24.039609 26.299313,23.186286 25.724594,22.844818 25.560307,22.747128 25.39834,22.698936 25.25194,22.70419 Z"
         style="opacity:1;fill:#b3b3b3;fill-opacity:1;stroke:#b3b3b3;stroke-width:0.83041245;stroke-linecap:butt;stroke-linejoin:round;stroke-miterlimit:4;stroke-dasharray:none;stroke-opacity:1" />
      <path
         style="opacity:1;fill:#ff5555;fill-opacity:1;stroke:#ff5555;stroke-width:0.21052499;stroke-linecap:butt;stroke-linejoin:round;stroke-miterlimit:4;stroke-dasharray:none;stroke-opacity:1"
         d="m 25.57732,25.938717 c 0,1.01855 -1.680839,1.113422 -2.489186,0.790284 -0.653491,-0.261234 -1.140661,-1.157132 -1.017383,-1.850022 0.148586,-0.835131 1.0439,-2.159066 1.920089,-1.670015 0.876189,0.48905 1.58648,1.711203 1.58648,2.729753 z"
         id="path4169"
         inkscape:connector-curvature="0"
         sodipodi:nodetypes="saass" />
    </g>
    <g
       transform="matrix(1.5305626,0,0,1.5305626,-2.5723292,-6.0040725)"
       id="g4171">
      <path
         sodipodi:nodetypes="ccccccc"
         inkscape:connector-curvature="0"
         id="path4173"
         d="m 25.25194,22.70419 c -0.61378,0.23464 -1.320103,0.610444 -2.059879,0.981257 l 1.666974,2.671415 1.387044,-0.70167 C 26.600361,25.505516 26.765146,25.21 26.76561,24.751068 26.765318,24.039609 26.299313,23.186286 25.724594,22.844818 25.560307,22.747128 25.39834,22.698936 25.25194,22.70419 Z"
         style="opacity:1;fill:#b3b3b3;fill-opacity:1;stroke:#b3b3b3;stroke-width:0.83041245;stroke-linecap:butt;stroke-linejoin:round;stroke-miterlimit:4;stroke-dasharray:none;stroke-opacity:1" />
      <path
         style="opacity:1;fill:#ff5555;fill-opacity:1;stroke:#ff5555;stroke-width:0.21052499;stroke-linecap:butt;stroke-linejoin:round;stroke-miterlimit:4;stroke-dasharray:none;stroke-opacity:1"
         d="m 25.57732,25.938717 c 0,1.01855 -1.680839,1.113422 -2.489186,0.790284 -0.653491,-0.261234 -1.140661,-1.157132 -1.017383,-1.850022 0.148586,-0.835131 1.0439,-2.159066 1.920089,-1.670015 0.876189,0.48905 1.58648,1.711203 1.58648,2.729753 z"
         id="path4175"
         inkscape:connector-curvature="0"
         sodipodi:nodetypes="saass" />
    </g>
    <g
       id="g4177"
       transform="matrix(1.5305626,0,0,1.5305626,4.4633843,-1.8433667)">
      <path
         style="opacity:1;fill:#b3b3b3;fill-opacity:1;stroke:#b3b3b3;stroke-width:0.83041245;stroke-linecap:butt;stroke-linejoin:round;stroke-miterlimit:4;stroke-dasharray:none;stroke-opacity:1"
         d="m 25.25194,22.70419 c -0.61378,0.23464 -1.320103,0.610444 -2.059879,0.981257 l 1.666974,2.671415 1.387044,-0.70167 C 26.600361,25.505516 26.765146,25.21 26.76561,24.751068 26.765318,24.039609 26.299313,23.186286 25.724594,22.844818 25.560307,22.747128 25.39834,22.698936 25.25194,22.70419 Z"
         id="path4179"
         inkscape:connector-curvature="0"
         sodipodi:nodetypes="ccccccc" />
      <path
         sodipodi:nodetypes="saass"
         inkscape:connector-curvature="0"
         id="path4181"
         d="m 25.57732,25.938717 c 0,1.01855 -1.680839,1.113422 -2.489186,0.790284 -0.653491,-0.261234 -1.140661,-1.157132 -1.017383,-1.850022 0.148586,-0.835131 1.0439,-2.159066 1.920089,-1.670015 0.876189,0.48905 1.58648,1.711203 1.58648,2.729753 z"
         style="opacity:1;fill:#ff5555;fill-opacity:1;stroke:#ff5555;stroke-width:0.21052499;stroke-linecap:butt;stroke-linejoin:round;stroke-miterlimit:4;stroke-dasharray:none;stroke-opacity:1" />
    </g>
    <g
       id="g4183"
       transform="matrix(1.5305626,0,0,1.5305626,11.499101,2.3174001)">
      <path
         style="opacity:1;fill:#b3b3b3;fill-opacity:1;stroke:#b3b3b3;stroke-width:0.83041245;stroke-linecap:butt;stroke-linejoin:round;stroke-miterlimit:4;stroke-dasharray:none;stroke-opacity:1"
         d="m 25.25194,22.70419 c -0.61378,0.23464 -1.320103,0.610444 -2.059879,0.981257 l 1.666974,2.671415 1.387044,-0.70167 C 26.600361,25.505516 26.765146,25.21 26.76561,24.751068 26.765318,24.039609 26.299313,23.186286 25.724594,22.844818 25.560307,22.747128 25.39834,22.698936 25.25194,22.70419 Z"
         id="path4185"
         inkscape:connector-curvature="0"
         sodipodi:nodetypes="ccccccc" />
      <path
         sodipodi:nodetypes="saass"
         inkscape:connector-curvature="0"
         id="path4187"
         d="m 25.57732,25.938717 c 0,1.01855 -1.680839,1.113422 -2.489186,0.790284 -0.653491,-0.261234 -1.140661,-1.157132 -1.017383,-1.850022 0.148586,-0.835131 1.0439,-2.159066 1.920089,-1.670015 0.876189,0.48905 1.58648,1.711203 1.58648,2.729753 z"
         style="opacity:1;fill:#ff5555;fill-opacity:1;stroke:#ff5555;stroke-width:0.21052499;stroke-linecap:butt;stroke-linejoin:round;stroke-miterlimit:4;stroke-dasharray:none;stroke-opacity:1" />
    </g>
    <g
       transform="matrix(1.5305626,0,0,1.5305626,18.534819,6.4781059)"
       id="g4189">
      <path
         sodipodi:nodetypes="ccccccc"
         inkscape:connector-curvature="0"
         id="path4191"
         d="m 25.25194,22.70419 c -0.61378,0.23464 -1.320103,0.610444 -2.059879,0.981257 l 1.666974,2.671415 1.387044,-0.70167 C 26.600361,25.505516 26.765146,25.21 26.76561,24.751068 26.765318,24.039609 26.299313,23.186286 25.724594,22.844818 25.560307,22.747128 25.39834,22.698936 25.25194,22.70419 Z"
         style="opacity:1;fill:#b3b3b3;fill-opacity:1;stroke:#b3b3b3;stroke-width:0.83041245;stroke-linecap:butt;stroke-linejoin:round;stroke-miterlimit:4;stroke-dasharray:none;stroke-opacity:1" />
      <path
         style="opacity:1;fill:#ff5555;fill-opacity:1;stroke:#ff5555;stroke-width:0.21052499;stroke-linecap:butt;stroke-linejoin:round;stroke-miterlimit:4;stroke-dasharray:none;stroke-opacity:1"
         d="m 25.57732,25.938717 c 0,1.01855 -1.680839,1.113422 -2.489186,0.790284 -0.653491,-0.261234 -1.140661,-1.157132 -1.017383,-1.850022 0.148586,-0.835131 1.0439,-2.159066 1.920089,-1.670015 0.876189,0.48905 1.58648,1.711203 1.58648,2.729753 z"
         id="path4193"
         inkscape:connector-curvature="0"
         sodipodi:nodetypes="saass" />
    </g>
    <g
       transform="matrix(1.5305626,0,0,1.5305626,25.570533,10.638811)"
       id="g4195">
      <path
         sodipodi:nodetypes="ccccccc"
         inkscape:connector-curvature="0"
         id="path4197"
         d="m 25.25194,22.70419 c -0.61378,0.23464 -1.320103,0.610444 -2.059879,0.981257 l 1.666974,2.671415 1.387044,-0.70167 C 26.600361,25.505516 26.765146,25.21 26.76561,24.751068 26.765318,24.039609 26.299313,23.186286 25.724594,22.844818 25.560307,22.747128 25.39834,22.698936 25.25194,22.70419 Z"
         style="opacity:1;fill:#b3b3b3;fill-opacity:1;stroke:#b3b3b3;stroke-width:0.83041245;stroke-linecap:butt;stroke-linejoin:round;stroke-miterlimit:4;stroke-dasharray:none;stroke-opacity:1" />
      <path
         style="opacity:1;fill:#ff5555;fill-opacity:1;stroke:#ff5555;stroke-width:0.21052499;stroke-linecap:butt;stroke-linejoin:round;stroke-miterlimit:4;stroke-dasharray:none;stroke-opacity:1"
         d="m 25.57732,25.938717 c 0,1.01855 -1.680839,1.113422 -2.489186,0.790284 -0.653491,-0.261234 -1.140661,-1.157132 -1.017383,-1.850022 0.148586,-0.835131 1.0439,-2.159066 1.920089,-1.670015 0.876189,0.48905 1.58648,1.711203 1.58648,2.729753 z"
         id="path4199"
         inkscape:connector-curvature="0"
         sodipodi:nodetypes="saass" />
    </g>
    <g
       id="g4201"
       transform="matrix(1.5305626,0,0,1.5305626,32.606243,14.799517)">
      <path
         style="opacity:1;fill:#b3b3b3;fill-opacity:1;stroke:#b3b3b3;stroke-width:0.83041245;stroke-linecap:butt;stroke-linejoin:round;stroke-miterlimit:4;stroke-dasharray:none;stroke-opacity:1"
         d="m 25.25194,22.70419 c -0.61378,0.23464 -1.320103,0.610444 -2.059879,0.981257 l 1.666974,2.671415 1.387044,-0.70167 C 26.600361,25.505516 26.765146,25.21 26.76561,24.751068 26.765318,24.039609 26.299313,23.186286 25.724594,22.844818 25.560307,22.747128 25.39834,22.698936 25.25194,22.70419 Z"
         id="path4203"
         inkscape:connector-curvature="0"
         sodipodi:nodetypes="ccccccc" />
      <path
         sodipodi:nodetypes="saass"
         inkscape:connector-curvature="0"
         id="path4206"
         d="m 25.57732,25.938717 c 0,1.01855 -1.680839,1.113422 -2.489186,0.790284 -0.653491,-0.261234 -1.140661,-1.157132 -1.017383,-1.850022 0.148586,-0.835131 1.0439,-2.159066 1.920089,-1.670015 0.876189,0.48905 1.58648,1.711203 1.58648,2.729753 z"
         style="opacity:1;fill:#ff5555;fill-opacity:1;stroke:#ff5555;stroke-width:0.21052499;stroke-linecap:butt;stroke-linejoin:round;stroke-miterlimit:4;stroke-dasharray:none;stroke-opacity:1" />
    </g>
    <g
       id="g4241"
       transform="translate(78.798216,45.431613)">
      <path
         style="opacity:1;fill:#808080;fill-opacity:1;stroke:#808080;stroke-width:0.83041245;stroke-linecap:butt;stroke-linejoin:round;stroke-miterlimit:4;stroke-dasharray:none;stroke-opacity:1"
         d="m 15.882775,17.489277 c -0.61378,0.23464 -1.320103,0.610444 -2.059879,0.981257 l 1.666974,2.671415 1.387044,-0.70167 c 0.354282,-0.149676 0.519067,-0.445192 0.519531,-0.904124 -2.92e-4,-0.711459 -0.466297,-1.564782 -1.041016,-1.90625 -0.164287,-0.09769 -0.326254,-0.145882 -0.472654,-0.140628 z"
         id="path4243"
         inkscape:connector-curvature="0"
         sodipodi:nodetypes="ccccccc" />
      <ellipse
         transform="matrix(0.86308264,0.50506272,0,1,0,0)"
         ry="1.5395288"
         rx="1.4635707"
         cy="11.297851"
         cx="16.901838"
         id="ellipse4245"
         style="opacity:1;fill:#b3b3b3;fill-opacity:1;stroke:#b3b3b3;stroke-width:0.18474701;stroke-linecap:butt;stroke-linejoin:round;stroke-miterlimit:4;stroke-dasharray:none;stroke-opacity:1" />
    </g>
    <g
       transform="translate(140.29822,81.806615)"
       id="g4247">
      <path
         sodipodi:nodetypes="ccccccc"
         inkscape:connector-curvature="0"
         id="path4249"
         d="m 16.236328,17.3125 c -0.61378,0.23464 -1.320103,0.610444 -2.059879,0.981257 l 1.666974,2.671415 1.387044,-0.70167 c 0.354282,-0.149676 0.519067,-0.445192 0.519531,-0.904124 -2.92e-4,-0.711459 -0.466297,-1.564782 -1.041016,-1.90625 -0.164287,-0.09769 -0.326254,-0.145882 -0.472654,-0.140628 z"
         style="opacity:1;fill:#808080;fill-opacity:1;stroke:#808080;stroke-width:0.83041245;stroke-linecap:butt;stroke-linejoin:round;stroke-miterlimit:4;stroke-dasharray:none;stroke-opacity:1" />
      <ellipse
         style="opacity:1;fill:#b3b3b3;fill-opacity:1;stroke:#b3b3b3;stroke-width:0.18474701;stroke-linecap:butt;stroke-linejoin:round;stroke-miterlimit:4;stroke-dasharray:none;stroke-opacity:1"
         id="ellipse4251"
         cx="17.311478"
         cy="10.91418"
         rx="1.4635707"
         ry="1.5395288"
         transform="matrix(0.86308264,0.50506272,0,1,0,0)" />
    </g>
    <g
       transform="matrix(1.5305626,0,0,1.5305626,62.154456,31.106129)"
       id="g4253">
      <path
         sodipodi:nodetypes="ccccccc"
         inkscape:connector-curvature="0"
         id="path4255"
         d="m 25.25194,22.70419 c -0.61378,0.23464 -1.320103,0.610444 -2.059879,0.981257 l 1.666974,2.671415 1.387044,-0.70167 C 26.600361,25.505516 26.765146,25.21 26.76561,24.751068 26.765318,24.039609 26.299313,23.186286 25.724594,22.844818 25.560307,22.747128 25.39834,22.698936 25.25194,22.70419 Z"
         style="opacity:1;fill:#b3b3b3;fill-opacity:1;stroke:#b3b3b3;stroke-width:0.83041245;stroke-linecap:butt;stroke-linejoin:round;stroke-miterlimit:4;stroke-dasharray:none;stroke-opacity:1" />
      <path
         style="opacity:1;fill:#ff5555;fill-opacity:1;stroke:#ff5555;stroke-width:0.21052499;stroke-linecap:butt;stroke-linejoin:round;stroke-miterlimit:4;stroke-dasharray:none;stroke-opacity:1"
         d="m 25.57732,25.938717 c 0,1.01855 -1.680839,1.113422 -2.489186,0.790284 -0.653491,-0.261234 -1.140661,-1.157132 -1.017383,-1.850022 0.148586,-0.835131 1.0439,-2.159066 1.920089,-1.670015 0.876189,0.48905 1.58648,1.711203 1.58648,2.729753 z"
         id="path4257"
         inkscape:connector-curvature="0"
         sodipodi:nodetypes="saass" />
    </g>
    <g
       id="g4259"
       transform="matrix(1.5305626,0,0,1.5305626,69.190171,35.266896)">
      <path
         style="opacity:1;fill:#b3b3b3;fill-opacity:1;stroke:#b3b3b3;stroke-width:0.83041245;stroke-linecap:butt;stroke-linejoin:round;stroke-miterlimit:4;stroke-dasharray:none;stroke-opacity:1"
         d="m 25.25194,22.70419 c -0.61378,0.23464 -1.320103,0.610444 -2.059879,0.981257 l 1.666974,2.671415 1.387044,-0.70167 C 26.600361,25.505516 26.765146,25.21 26.76561,24.751068 26.765318,24.039609 26.299313,23.186286 25.724594,22.844818 25.560307,22.747128 25.39834,22.698936 25.25194,22.70419 Z"
         id="path4261"
         inkscape:connector-curvature="0"
         sodipodi:nodetypes="ccccccc" />
      <path
         sodipodi:nodetypes="saass"
         inkscape:connector-curvature="0"
         id="path4263"
         d="m 25.57732,25.938717 c 0,1.01855 -1.680839,1.113422 -2.489186,0.790284 -0.653491,-0.261234 -1.140661,-1.157132 -1.017383,-1.850022 0.148586,-0.835131 1.0439,-2.159066 1.920089,-1.670015 0.876189,0.48905 1.58648,1.711203 1.58648,2.729753 z"
         style="opacity:1;fill:#ff5555;fill-opacity:1;stroke:#ff5555;stroke-width:0.21052499;stroke-linecap:butt;stroke-linejoin:round;stroke-miterlimit:4;stroke-dasharray:none;stroke-opacity:1" />
    </g>
    <g
       id="g4265"
       transform="matrix(1.5305626,0,0,1.5305626,76.225887,39.427541)">
      <path
         style="opacity:1;fill:#b3b3b3;fill-opacity:1;stroke:#b3b3b3;stroke-width:0.83041245;stroke-linecap:butt;stroke-linejoin:round;stroke-miterlimit:4;stroke-dasharray:none;stroke-opacity:1"
         d="m 25.25194,22.70419 c -0.61378,0.23464 -1.320103,0.610444 -2.059879,0.981257 l 1.666974,2.671415 1.387044,-0.70167 C 26.600361,25.505516 26.765146,25.21 26.76561,24.751068 26.765318,24.039609 26.299313,23.186286 25.724594,22.844818 25.560307,22.747128 25.39834,22.698936 25.25194,22.70419 Z"
         id="path4267"
         inkscape:connector-curvature="0"
         sodipodi:nodetypes="ccccccc" />
      <path
         sodipodi:nodetypes="saass"
         inkscape:connector-curvature="0"
         id="path4269"
         d="m 25.57732,25.938717 c 0,1.01855 -1.680839,1.113422 -2.489186,0.790284 -0.653491,-0.261234 -1.140661,-1.157132 -1.017383,-1.850022 0.148586,-0.835131 1.0439,-2.159066 1.920089,-1.670015 0.876189,0.48905 1.58648,1.711203 1.58648,2.729753 z"
         style="opacity:1;fill:#ff5555;fill-opacity:1;stroke:#ff5555;stroke-width:0.21052499;stroke-linecap:butt;stroke-linejoin:round;stroke-miterlimit:4;stroke-dasharray:none;stroke-opacity:1" />
    </g>
    <g
       transform="matrix(1.5305626,0,0,1.5305626,83.2616,43.588247)"
       id="g4271">
      <path
         sodipodi:nodetypes="ccccccc"
         inkscape:connector-curvature="0"
         id="path4274"
         d="m 25.25194,22.70419 c -0.61378,0.23464 -1.320103,0.610444 -2.059879,0.981257 l 1.666974,2.671415 1.387044,-0.70167 C 26.600361,25.505516 26.765146,25.21 26.76561,24.751068 26.765318,24.039609 26.299313,23.186286 25.724594,22.844818 25.560307,22.747128 25.39834,22.698936 25.25194,22.70419 Z"
         style="opacity:1;fill:#b3b3b3;fill-opacity:1;stroke:#b3b3b3;stroke-width:0.83041245;stroke-linecap:butt;stroke-linejoin:round;stroke-miterlimit:4;stroke-dasharray:none;stroke-opacity:1" />
      <path
         style="opacity:1;fill:#ff5555;fill-opacity:1;stroke:#ff5555;stroke-width:0.21052499;stroke-linecap:butt;stroke-linejoin:round;stroke-miterlimit:4;stroke-dasharray:none;stroke-opacity:1"
         d="m 25.57732,25.938717 c 0,1.01855 -1.680839,1.113422 -2.489186,0.790284 -0.653491,-0.261234 -1.140661,-1.157132 -1.017383,-1.850022 0.148586,-0.835131 1.0439,-2.159066 1.920089,-1.670015 0.876189,0.48905 1.58648,1.711203 1.58648,2.729753 z"
         id="path4276"
         inkscape:connector-curvature="0"
         sodipodi:nodetypes="saass" />
    </g>
    <g
       transform="matrix(1.5305626,0,0,1.5305626,90.297317,47.749013)"
       id="g4278">
      <path
         sodipodi:nodetypes="ccccccc"
         inkscape:connector-curvature="0"
         id="path4280"
         d="m 25.25194,22.70419 c -0.61378,0.23464 -1.320103,0.610444 -2.059879,0.981257 l 1.666974,2.671415 1.387044,-0.70167 C 26.600361,25.505516 26.765146,25.21 26.76561,24.751068 26.765318,24.039609 26.299313,23.186286 25.724594,22.844818 25.560307,22.747128 25.39834,22.698936 25.25194,22.70419 Z"
         style="opacity:1;fill:#b3b3b3;fill-opacity:1;stroke:#b3b3b3;stroke-width:0.83041245;stroke-linecap:butt;stroke-linejoin:round;stroke-miterlimit:4;stroke-dasharray:none;stroke-opacity:1" />
      <path
         style="opacity:1;fill:#ff5555;fill-opacity:1;stroke:#ff5555;stroke-width:0.21052499;stroke-linecap:butt;stroke-linejoin:round;stroke-miterlimit:4;stroke-dasharray:none;stroke-opacity:1"
         d="m 25.57732,25.938717 c 0,1.01855 -1.680839,1.113422 -2.489186,0.790284 -0.653491,-0.261234 -1.140661,-1.157132 -1.017383,-1.850022 0.148586,-0.835131 1.0439,-2.159066 1.920089,-1.670015 0.876189,0.48905 1.58648,1.711203 1.58648,2.729753 z"
         id="path4282"
         inkscape:connector-curvature="0"
         sodipodi:nodetypes="saass" />
    </g>
    <g
       id="g4284"
       transform="matrix(1.5305626,0,0,1.5305626,97.333035,51.909719)">
      <path
         style="opacity:1;fill:#b3b3b3;fill-opacity:1;stroke:#b3b3b3;stroke-width:0.83041245;stroke-linecap:butt;stroke-linejoin:round;stroke-miterlimit:4;stroke-dasharray:none;stroke-opacity:1"
         d="m 25.25194,22.70419 c -0.61378,0.23464 -1.320103,0.610444 -2.059879,0.981257 l 1.666974,2.671415 1.387044,-0.70167 C 26.600361,25.505516 26.765146,25.21 26.76561,24.751068 26.765318,24.039609 26.299313,23.186286 25.724594,22.844818 25.560307,22.747128 25.39834,22.698936 25.25194,22.70419 Z"
         id="path4286"
         inkscape:connector-curvature="0"
         sodipodi:nodetypes="ccccccc" />
      <path
         sodipodi:nodetypes="saass"
         inkscape:connector-curvature="0"
         id="path4288"
         d="m 25.57732,25.938717 c 0,1.01855 -1.680839,1.113422 -2.489186,0.790284 -0.653491,-0.261234 -1.140661,-1.157132 -1.017383,-1.850022 0.148586,-0.835131 1.0439,-2.159066 1.920089,-1.670015 0.876189,0.48905 1.58648,1.711203 1.58648,2.729753 z"
         style="opacity:1;fill:#ff5555;fill-opacity:1;stroke:#ff5555;stroke-width:0.21052499;stroke-linecap:butt;stroke-linejoin:round;stroke-miterlimit:4;stroke-dasharray:none;stroke-opacity:1" />
    </g>
    <g
       id="g4290"
       transform="matrix(1.5305626,0,0,1.5305626,104.36875,56.070424)">
      <path
         style="opacity:1;fill:#b3b3b3;fill-opacity:1;stroke:#b3b3b3;stroke-width:0.83041245;stroke-linecap:butt;stroke-linejoin:round;stroke-miterlimit:4;stroke-dasharray:none;stroke-opacity:1"
         d="m 25.25194,22.70419 c -0.61378,0.23464 -1.320103,0.610444 -2.059879,0.981257 l 1.666974,2.671415 1.387044,-0.70167 C 26.600361,25.505516 26.765146,25.21 26.76561,24.751068 26.765318,24.039609 26.299313,23.186286 25.724594,22.844818 25.560307,22.747128 25.39834,22.698936 25.25194,22.70419 Z"
         id="path4292"
         inkscape:connector-curvature="0"
         sodipodi:nodetypes="ccccccc" />
      <path
         sodipodi:nodetypes="saass"
         inkscape:connector-curvature="0"
         id="path4294"
         d="m 25.57732,25.938717 c 0,1.01855 -1.680839,1.113422 -2.489186,0.790284 -0.653491,-0.261234 -1.140661,-1.157132 -1.017383,-1.850022 0.148586,-0.835131 1.0439,-2.159066 1.920089,-1.670015 0.876189,0.48905 1.58648,1.711203 1.58648,2.729753 z"
         style="opacity:1;fill:#ff5555;fill-opacity:1;stroke:#ff5555;stroke-width:0.21052499;stroke-linecap:butt;stroke-linejoin:round;stroke-miterlimit:4;stroke-dasharray:none;stroke-opacity:1" />
    </g>
    <g
       transform="matrix(1.5305626,0,0,1.5305626,111.40446,60.23113)"
       id="g4296">
      <path
         sodipodi:nodetypes="ccccccc"
         inkscape:connector-curvature="0"
         id="path4298"
         d="m 25.25194,22.70419 c -0.61378,0.23464 -1.320103,0.610444 -2.059879,0.981257 l 1.666974,2.671415 1.387044,-0.70167 C 26.600361,25.505516 26.765146,25.21 26.76561,24.751068 26.765318,24.039609 26.299313,23.186286 25.724594,22.844818 25.560307,22.747128 25.39834,22.698936 25.25194,22.70419 Z"
         style="opacity:1;fill:#b3b3b3;fill-opacity:1;stroke:#b3b3b3;stroke-width:0.83041245;stroke-linecap:butt;stroke-linejoin:round;stroke-miterlimit:4;stroke-dasharray:none;stroke-opacity:1" />
      <path
         style="opacity:1;fill:#ff5555;fill-opacity:1;stroke:#ff5555;stroke-width:0.21052499;stroke-linecap:butt;stroke-linejoin:round;stroke-miterlimit:4;stroke-dasharray:none;stroke-opacity:1"
         d="m 25.57732,25.938717 c 0,1.01855 -1.680839,1.113422 -2.489186,0.790284 -0.653491,-0.261234 -1.140661,-1.157132 -1.017383,-1.850022 0.148586,-0.835131 1.0439,-2.159066 1.920089,-1.670015 0.876189,0.48905 1.58648,1.711203 1.58648,2.729753 z"
         id="path4300"
         inkscape:connector-curvature="0"
         sodipodi:nodetypes="saass" />
    </g>
  </g>
</svg>
