<svg xmlns:rdf="http://www.w3.org/1999/02/22-rdf-syntax-ns#" xmlns="http://www.w3.org/2000/svg" height="1052" width="744.1" version="1.1" enable-background="new" xmlns:cc="http://creativecommons.org/ns#" xmlns:dc="http://purl.org/dc/elements/1.1/">
<g>
<g stroke-linejoin="round"><g stroke="#000" fill="#fff"><path d="m-.00001526.000002617h200v20h-200z" transform="matrix(.8660 .5 0 1 0 0)" stroke-width="2.149"/><g stroke-width="2"><path d="m-8.66-5 8.66 5v20l-8.66-5z"/><path d="m0 0 173.2 100v20l-173.2-100z"/><path d="m173.2 100 8.66 5v20l-8.66-5z"/></g></g><g stroke="#000" stroke-width="1.075" fill="#e6e6e6"><path d="m4.001 3.189h60v14.2h-60z" transform="matrix(.8660 .5 0 1 0 0)"/><path d="m69.22 3.019h60v14.2h-60z" transform="matrix(.8660 .5 0 1 0 0)"/><path d="m134.4 2.849h60v14.2h-60z" transform="matrix(.8660 .5 0 1 0 0)"/></g><g><path d="m8.126 10.7a1.464 1.54 0 0 1 -1.464 1.54 1.464 1.54 0 0 1 -1.463 -1.54 1.464 1.54 0 0 1 1.463 -1.542 1.464 1.54 0 0 1 1.464 1.542z" transform="matrix(.8631 .5051 0 1 0 0)" stroke="#000" stroke-width=".1847"/><path d="m63.02 10.22a1.464 1.54 0 0 1 -1.464 1.54 1.464 1.54 0 0 1 -1.464 -1.54 1.464 1.54 0 0 1 1.464 -1.54 1.464 1.54 0 0 1 1.464 1.54z" transform="matrix(.8631 .5051 0 1 0 0)" stroke="#000" stroke-width=".1847"/><g><path d="m9.64 11.56 2.485 1.445-.03125 8.392-0.45.2406-2.566-9.811z" stroke="#008000" fill="#008000"/><path d="m9.046 11.77 2.516 1.508v8.485l-2.516-1.508z" stroke="#00d400" fill="#00d400"/><path d="m8.734 13.28 2.828 1.633v5.149l-3.619 2.011-2.928-6.652z" stroke="#008000" fill="#008000"/><path d="m4.953 15.4 2.828 1.633v5.149l-2.828-1.633z" stroke="#000"/><path d="m15.04 14.69 2.485 1.445-.03125 8.392-0.45.2406-2.566-9.811z" stroke="#008000" fill="#008000"/><path d="m14.45 14.91 2.516 1.508v8.485l-2.516-1.508z" stroke="#00d400" fill="#00d400"/><path d="m14.14 16.41 2.828 1.633v5.149l-3.619 2.011-2.928-6.652z" stroke="#008000" fill="#008000"/><path d="m10.36 18.53 2.828 1.633v5.149l-2.828-1.633z" stroke="#000"/><path d="m20.45 17.82 2.485 1.445-.03125 8.392-0.45.2406-2.566-9.811z" stroke="#008000" fill="#008000"/><path d="m19.85 18.04 2.516 1.508v8.485l-2.516-1.508z" stroke="#00d400" fill="#00d400"/><path d="m19.54 19.54 2.828 1.633v5.149l-3.619 2.011-2.928-6.652z" stroke="#008000" fill="#008000"/><path d="m15.76 21.67 2.828 1.633v5.149l-2.828-1.633z" stroke="#000"/><path d="m25.85 20.95 2.485 1.445-.03125 8.392-0.45.2406-2.566-9.811z" stroke="#008000" fill="#008000"/><path d="m25.26 21.17 2.516 1.508v8.485l-2.516-1.508z" stroke="#00d400" fill="#00d400"/><path d="m24.95 22.67 2.828 1.633v5.149l-3.619 2.011-2.928-6.652z" stroke="#008000" fill="#008000"/><path d="m21.17 24.8 2.828 1.633v5.149l-2.828-1.633z" stroke="#000"/><path d="m31.26 24.08 2.485 1.445-.03125 8.392-0.45.2406-2.566-9.811z" stroke="#008000" fill="#008000"/><path d="m30.66 24.3 2.516 1.508v8.485l-2.516-1.508z" stroke="#00d400" fill="#00d400"/><path d="m30.35 25.8 2.828 1.633v5.149l-3.619 2.011-2.928-6.652z" stroke="#008000" fill="#008000"/><path d="m26.57 27.93 2.828 1.633v5.149l-2.828-1.633z" stroke="#000"/><path d="m36.66 27.21 2.485 1.445-.03125 8.392-0.45.2406-2.566-9.811z" stroke="#008000" fill="#008000"/><path d="m36.07 27.43 2.516 1.508v8.485l-2.516-1.508z" stroke="#00d400" fill="#00d400"/><path d="m35.76 28.93 2.828 1.633v5.149l-3.619 2.011-2.928-6.652z" stroke="#008000" fill="#008000"/><path d="m31.97 31.06 2.828 1.633v5.149l-2.828-1.633z" stroke="#000"/><path d="m42.07 30.34 2.485 1.445-.03125 8.392-0.45.2406-2.566-9.811z" stroke="#008000" fill="#008000"/><path d="m41.47 30.56 2.516 1.508v8.485l-2.516-1.508z" stroke="#00d400" fill="#00d400"/><path d="m41.16 32.07 2.828 1.633v5.149l-3.619 2.011-2.928-6.652z" stroke="#008000" fill="#008000"/><path d="m37.38 34.19 2.828 1.633v5.149l-2.828-1.633z" stroke="#000"/><path d="m47.47 33.48 2.485 1.445-.03125 8.392-0.45.2406-2.566-9.811z" stroke="#008000" fill="#008000"/><path d="m46.88 33.69 2.516 1.508v8.485l-2.516-1.508z" stroke="#00d400" fill="#00d400"/><path d="m46.56 35.2 2.828 1.633v5.149l-3.619 2.011-2.928-6.652z" stroke="#008000" fill="#008000"/><path d="m42.78 37.32 2.828 1.633v5.149l-2.828-1.633z" stroke="#000"/></g></g></g>
</g>
</svg>
