<svg xmlns:rdf="http://www.w3.org/1999/02/22-rdf-syntax-ns#" xmlns="http://www.w3.org/2000/svg" height="1052" width="744.1" version="1.1" enable-background="new" xmlns:cc="http://creativecommons.org/ns#" xmlns:dc="http://purl.org/dc/elements/1.1/">
<g>
<g stroke-linejoin="round"><g stroke="#000" fill="#fff"><rect transform="matrix(.8660 .5 0 1 0 0)" height="20" width="200" y=".000002617" x="-.00001526" stroke-width="2.149"/><g stroke-width="2"><path d="m-8.66-5 8.66 5v20l-8.66-5z"/><path d="m0 0 173.2 100v20l-173.2-100z"/><path d="m173.2 100 8.66 5v20l-8.66-5z"/></g></g><g><rect transform="matrix(.8660 .5 0 1 0 0)" height="14.2" width="80" stroke="#000" y="2.942" x="14.62" stroke-width="1.075" fill="#e6e6e6"/><rect transform="matrix(.8660 .5 0 1 0 0)" height="14.2" width="80" stroke="#000" y="2.882" x="105.6" stroke-width="1.075" fill="#e6e6e6"/><path d="m15.88 17.49c-.6138.2346-1.32.6104-2.06.9813l1.667 2.671 1.387-.7017c.3543-.1497.5191-.4452.5195-.9041-.000292-.7115-.4663-1.565-1.041-1.906-.1643-.09769-.3263-.1459-.4727-.1406z" stroke="#808080" stroke-width=".8304" fill="#808080"/><ellipse rx="1.464" ry="1.54" stroke="#b3b3b3" transform="matrix(.8631 .5051 0 1 0 0)" cy="11.3" cx="16.9" stroke-width=".1847" fill="#b3b3b3"/><path d="m77.74 53.69c-.6138.2346-1.32.6104-2.06.9813l1.667 2.671 1.387-.7017c.3543-.1497.5191-.4452.5195-.9041-.000292-.7115-.4663-1.565-1.041-1.906-.1643-.09769-.3263-.1459-.4727-.1406z" stroke="#808080" stroke-width=".8304" fill="#808080"/><ellipse rx="1.464" transform="matrix(.8631 .5051 0 1 0 0)" stroke="#b3b3b3" ry="1.54" cy="11.3" cx="88.57" stroke-width=".1847" fill="#b3b3b3"/><path d="m22.01 20.42c-.9394.3591-2.02.9343-3.153 1.502l2.551 4.089 2.123-1.074c.5423-.2291.7945-.6814.7952-1.384-.000447-1.089-.7137-2.395-1.593-2.918-.2515-.1495-.4994-.2233-.7234-.2152z" stroke="#b3b3b3" stroke-width="1.271" fill="#b3b3b3"/><path d="m22.5 25.38c0 1.559-2.573 1.704-3.81 1.21-1-.3998-1.746-1.771-1.557-2.832.2274-1.278 1.598-3.305 2.939-2.556 1.341.7485 2.428 2.619 2.428 4.178z" stroke="#f55" stroke-width=".3222" fill="#f55"/><path d="m29.04 24.59c-.9394.3591-2.02.9343-3.153 1.502l2.551 4.089 2.123-1.074c.5423-.2291.7945-.6814.7952-1.384-.000447-1.089-.7137-2.395-1.593-2.918-.2515-.1495-.4994-.2233-.7234-.2152z" stroke="#b3b3b3" stroke-width="1.271" fill="#b3b3b3"/><path d="m29.54 29.54c0 1.559-2.573 1.704-3.81 1.21-1-.3998-1.746-1.771-1.557-2.832.2274-1.278 1.598-3.305 2.939-2.556 1.341.7485 2.428 2.619 2.428 4.178z" stroke="#f55" stroke-width=".3222" fill="#f55"/><path d="m36.08 28.75c-.9394.3591-2.021.9343-3.153 1.502l2.551 4.089 2.123-1.074c.5422-.2291.7945-.6814.7952-1.384-.000446-1.089-.7137-2.395-1.593-2.918-.2515-.1495-.4994-.2233-.7234-.2152z" stroke="#b3b3b3" stroke-width="1.271" fill="#b3b3b3"/><path d="m36.58 33.7c0 1.559-2.573 1.704-3.81 1.21-1-.3998-1.746-1.771-1.557-2.832.2274-1.278 1.598-3.305 2.939-2.556 1.341.7485 2.428 2.619 2.428 4.178z" stroke="#f55" stroke-width=".3222" fill="#f55"/><path d="m43.11 32.91c-.9394.3591-2.02.9343-3.153 1.502l2.551 4.089 2.123-1.074c.5423-.2291.7945-.6814.7952-1.384-.000447-1.089-.7137-2.395-1.593-2.918-.2515-.1495-.4994-.2233-.7234-.2152z" stroke="#b3b3b3" stroke-width="1.271" fill="#b3b3b3"/><path d="m43.61 37.86c0 1.559-2.573 1.704-3.81 1.21-1-.3998-1.746-1.771-1.557-2.832.2274-1.278 1.598-3.305 2.939-2.556 1.341.7485 2.428 2.619 2.428 4.178z" stroke="#f55" stroke-width=".3222" fill="#f55"/><path d="m50.15 37.07c-.9394.3591-2.02.9343-3.153 1.502l2.551 4.089 2.123-1.074c.5423-.2291.7945-.6814.7952-1.384-.000447-1.089-.7137-2.395-1.593-2.918-.2515-.1495-.4994-.2233-.7234-.2152z" stroke="#b3b3b3" stroke-width="1.271" fill="#b3b3b3"/><path d="m50.65 42.02c0 1.559-2.573 1.704-3.81 1.21-1-.3998-1.746-1.771-1.557-2.832.2274-1.278 1.598-3.305 2.939-2.556 1.341.7485 2.428 2.619 2.428 4.178z" stroke="#f55" stroke-width=".3222" fill="#f55"/><path d="m57.18 41.23c-.9394.3591-2.02.9343-3.153 1.502l2.551 4.089 2.123-1.074c.5423-.2291.7945-.6814.7952-1.384-.000447-1.089-.7137-2.395-1.593-2.918-.2515-.1495-.4994-.2233-.7234-.2152z" stroke="#b3b3b3" stroke-width="1.271" fill="#b3b3b3"/><path d="m57.68 46.18c0 1.559-2.573 1.704-3.81 1.21-1-.3998-1.746-1.771-1.557-2.832.2274-1.278 1.598-3.305 2.939-2.556 1.341.7485 2.428 2.619 2.428 4.178z" stroke="#f55" stroke-width=".3222" fill="#f55"/><path d="m64.22 45.39c-.9394.3591-2.02.9343-3.153 1.502l2.551 4.089 2.123-1.074c.5423-.2291.7945-.6814.7952-1.384-.000447-1.089-.7137-2.395-1.593-2.918-.2515-.1495-.4994-.2233-.7234-.2152z" stroke="#b3b3b3" stroke-width="1.271" fill="#b3b3b3"/><path d="m64.72 50.34c0 1.559-2.573 1.704-3.81 1.21-1-.3998-1.746-1.771-1.557-2.832.2274-1.278 1.598-3.305 2.939-2.556 1.341.7485 2.428 2.619 2.428 4.178z" stroke="#f55" stroke-width=".3222" fill="#f55"/><path d="m71.26 49.55c-.9394.3591-2.02.9343-3.153 1.502l2.551 4.089 2.123-1.074c.5423-.2291.7945-.6814.7952-1.384-.000447-1.089-.7137-2.395-1.593-2.918-.2515-.1495-.4994-.2233-.7234-.2152z" stroke="#b3b3b3" stroke-width="1.271" fill="#b3b3b3"/><path d="m71.75 54.5c0 1.559-2.573 1.704-3.81 1.21-1-.3998-1.746-1.771-1.557-2.832.2274-1.278 1.598-3.305 2.939-2.556 1.341.7485 2.428 2.619 2.428 4.178z" stroke="#f55" stroke-width=".3222" fill="#f55"/></g></g>
</g>
</svg>
