<svg xmlns:rdf="http://www.w3.org/1999/02/22-rdf-syntax-ns#" xmlns="http://www.w3.org/2000/svg" height="1052" width="744.1" version="1.1" enable-background="new" xmlns:cc="http://creativecommons.org/ns#" xmlns:dc="http://purl.org/dc/elements/1.1/">
<g stroke="#000"><g stroke-linejoin="round" stroke-width="1.075"><rect transform="matrix(.8660 .5 0 1 0 0)" height="10" width="80" y="152.9" x="61.9" fill="#fff"/><rect transform="matrix(-.8660 .5 -.8660 -.5 0 0)" height="80" width="80" y="-294.8" x="72.87" fill="#f0f0f0"/><rect transform="matrix(.8660 -.5 0 1 0 0)" height="10" width="80" y="294.8" x="141.9" fill="#c8c8c8"/><rect transform="matrix(-.8660 .5 -.8660 -.5 0 0)" height="160" width="12" y="-180" x="-52" fill="#f0f0f0"/><rect transform="matrix(.8660 -.5 0 1 0 0)" height="135" width="12" y="180" x="220" fill="#c8c8c8"/></g><g><g stroke-width="1.075"><rect stroke-linejoin="bevel" transform="matrix(.8660 -.5 0 1 0 0)" height="46.67" width="11.66" y="225.3" x="161.5" fill="#c8c8c8"/><rect stroke-linejoin="bevel" transform="matrix(.8660 .5 0 1 0 0)" height="44.21" width="32" y="66.61" x="129.1" fill="#fff"/><rect stroke-linejoin="round" transform="matrix(.8660 .5 0 1 0 0)" height="135" width="160" y="-40" x="60" fill="#fff"/></g><rect stroke-linejoin="round" transform="matrix(.8660 .5 0 1 0 0)" height="112.5" width="133.4" y="-28.76" x="73.32" stroke-width=".8956" fill="#333"/></g></g>
</svg>
