<svg xmlns:rdf="http://www.w3.org/1999/02/22-rdf-syntax-ns#" xmlns="http://www.w3.org/2000/svg" height="1052" width="744.1" version="1.1" enable-background="new" xmlns:cc="http://creativecommons.org/ns#" xmlns:dc="http://purl.org/dc/elements/1.1/">
<g stroke="#000"><g fill="#fff"><rect stroke-linejoin="round" transform="matrix(.8660 .5 0 1 0 0)" height="20" width="200" y=".000002617" x="-.00001526" stroke-width="2.149"/><path stroke-linejoin="round" d="m-8.66-5v20l8.66 5 173.2 100 8.7 5v-20l-8.7-5-173.2-100-8.66-5z" stroke-width="2"/><path stroke-linejoin="bevel" d="m4.125 2.381 3.835 2.214-.000002 20-3.835-2.214z" stroke-width="2"/></g><rect stroke-linejoin="bevel" transform="matrix(-.8660 .5 -.8660 -.5 0 0)" height="4.428" width="36.41" y="-29.19" x="20" stroke-width="2.149" fill="#c8c8c8"/><rect stroke-linejoin="bevel" transform="matrix(-.8660 .5 -.8660 -.5 0 0)" height="4.428" width="26.84" y="-9.191" x="-.000008178" stroke-width="2.149" fill="#f5f5f5"/><g stroke-linejoin="bevel" stroke-width="2" fill="#fff"><path d="m-27.4 26.06 3.835 2.214v14.52l-3.835-2.214z"/><path d="m-19.12 15.8 4.33 2.5v11.39l-4.33-2.5z"/><path d="m44.25 25.55 3.835 2.214-.000002 20-3.835-2.214z"/></g><rect stroke-linejoin="bevel" transform="matrix(-.8660 .5 -.8660 -.5 0 0)" height="4.428" width="36.41" y="-75.52" x="20" stroke-width="2.149" fill="#c8c8c8"/><rect stroke-linejoin="bevel" transform="matrix(-.8660 .5 -.8660 -.5 0 0)" height="4.428" width="26.84" y="-55.52" x="-.00001256" stroke-width="2.149" fill="#f5f5f5"/><g stroke-linejoin="bevel" stroke-width="2" fill="#fff"><path d="m12.72 49.23 3.835 2.214v14.52l-3.835-2.214z"/><path d="m21.01 38.97 4.33 2.5v11.39l-4.33-2.5z"/><path d="m84.38 48.72 3.835 2.214-.000002 20-3.835-2.214z"/></g><rect stroke-linejoin="bevel" transform="matrix(-.8660 .5 -.8660 -.5 0 0)" height="4.428" width="36.41" y="-121.9" x="20" stroke-width="2.149" fill="#c8c8c8"/><rect stroke-linejoin="bevel" transform="matrix(-.8660 .5 -.8660 -.5 0 0)" height="4.428" width="26.84" y="-101.9" x=".00003736" stroke-width="2.149" fill="#f5f5f5"/><g stroke-linejoin="bevel" stroke-width="2" fill="#fff"><path d="m52.85 72.4 3.835 2.214v14.52l-3.835-2.214z"/><path d="m61.13 62.14 4.33 2.5v11.39l-4.33-2.5z"/><path d="m124.5 71.88 3.835 2.214v20l-3.835-2.214z"/></g><rect stroke-linejoin="bevel" transform="matrix(-.8660 .5 -.8660 -.5 0 0)" height="4.428" width="36.41" y="-168.2" x="20" stroke-width="2.149" fill="#c8c8c8"/><rect stroke-linejoin="bevel" transform="matrix(-.8660 .5 -.8660 -.5 0 0)" height="4.428" width="26.84" y="-148.2" x=".00006680" stroke-width="2.149" fill="#f5f5f5"/><g stroke-linejoin="bevel" stroke-width="2" fill="#fff"><path d="m92.97 95.56 3.835 2.214v14.52l-3.835-2.214z"/><path d="m101.3 85.3 4.33 2.5v11.39l-4.33-2.5z"/><path d="m164.6 95.05 3.835 2.214v20l-3.835-2.214z"/></g><g stroke-linejoin="bevel"><rect transform="matrix(-.8660 .5 -.8660 -.5 0 0)" height="4.428" width="36.41" y="-214.5" x="20" stroke-width="2.149" fill="#c8c8c8"/><rect transform="matrix(-.8660 .5 -.8660 -.5 0 0)" height="4.428" width="26.84" y="-194.5" x=".00001978" stroke-width="2.149" fill="#f5f5f5"/><path d="m133.1 118.7 3.835 2.214v14.52l-3.835-2.214z" stroke-width="2" fill="#fff"/><path d="m141.4 108.5 4.33 2.5v11.39l-4.33-2.5z" stroke-width="2" fill="#fff"/></g></g>
</svg>
