<svg xmlns:rdf="http://www.w3.org/1999/02/22-rdf-syntax-ns#" xmlns="http://www.w3.org/2000/svg" height="1052" width="744.1" version="1.1" enable-background="new" xmlns:cc="http://creativecommons.org/ns#" xmlns:dc="http://purl.org/dc/elements/1.1/">
<g>
<path d="m-8.66-5v14.76l-10.46 6.039v11.39l3.836 2.213v-11.39l6.625-3.824v.8086l8.655 5 4.125 2.381-27.69 15.99v-10.09l-3.836-2.215v14.52l3.836 2.215 31.53-18.2 18.97 10.95-5.924 3.42v11.39l3.836 2.215v-11.39l5.922-3.42 13.49 7.785-27.69 15.99v-10.09l-3.834-2.215v14.52l3.834 2.213 31.53-18.2 18.97 10.95-5.926 3.42v11.4l3.836 2.215v-11.4l5.926-3.42 13.48 7.785-27.69 15.99v-10.09l-3.836-2.213v14.52l3.836 2.215 31.53-18.2v-.002l18.97 10.95-5.926 3.422v11.39l3.834 2.213v-11.39l5.926-3.42 13.48 7.785v.002l-27.69 15.99v-10.09l-3.834-2.215v14.52l3.834 2.215 31.53-18.2 18.97 10.95-5.924 3.42v11.39l3.836 2.215v-11.39l5.924-3.42 13.48 7.785-27.69 15.99v-10.09l-3.834-2.213v14.52l3.834 2.213 31.53-18.2 4.74 2.736 8.66 5v-20l-8.66-5-4.74-2.736-3.836-2.215-36.3-20.94-3.8-2.22-36.29-20.95-3.83-2.22-36.29-20.95-3.84-2.21-36.29-20.95-1.726-1-6.234-3.6z"/>
</g>
</svg>
