<svg xmlns:rdf="http://www.w3.org/1999/02/22-rdf-syntax-ns#" xmlns="http://www.w3.org/2000/svg" height="1052" width="744.1" version="1.1" enable-background="new" xmlns:cc="http://creativecommons.org/ns#" xmlns:dc="http://purl.org/dc/elements/1.1/">
<g>
<g stroke-linejoin="round"><g stroke="#000" fill="#fff"><rect transform="matrix(.8660 .5 0 1 0 0)" height="20" width="200" y=".000002617" x="-.00001526" stroke-width="2.149"/><g stroke-width="2"><path d="m-8.66-5 8.66 5v20l-8.66-5z"/><path d="m0 0 173.2 100v20l-173.2-100z"/><path d="m173.2 100 8.66 5v20l-8.66-5z"/></g></g><rect transform="matrix(.8630 .5052 0 1 0 0)" height="9.604" width="12.42" stroke="#000" y="5.452" x="4.336" stroke-width=".5815" fill="#b3b3b3"/><path d="m4.664 9.153 8.876 5.125v6.398l-1.556.4354-5.844-3.39-1.472-2.18z" stroke="#000" stroke-width=".4411"/><g stroke="#999" stroke-width=".6236" fill="#999"><rect transform="matrix(.8660 .5 0 1 0 0)" height="2.36" width=".4739" y="7.561" x="6.967"/><rect transform="matrix(.8660 .5 0 1 0 0)" height="2.36" width=".4739" y="7.561" x="13.6"/><rect transform="matrix(.8660 .5 0 1 0 0)" height="2.36" width=".4739" y="10.7" x="10.14"/></g></g>
</g>
</svg>
