<svg xmlns:rdf="http://www.w3.org/1999/02/22-rdf-syntax-ns#" xmlns="http://www.w3.org/2000/svg" height="1052" width="744.1" version="1.1" enable-background="new" xmlns:cc="http://creativecommons.org/ns#" xmlns:dc="http://purl.org/dc/elements/1.1/">
<g stroke="#000"><g stroke-linejoin="round" fill="#fff"><rect transform="matrix(.8660 .5 0 1 0 0)" height="20" width="200" y=".000002617" x="-.00001526" stroke-width="2.149"/><g stroke-width="2"><path d="m-8.66-5 8.66 5v20l-8.66-5z"/><path d="m0 0 173.2 100v20l-173.2-100z"/><path d="m173.2 100 8.66 5v20l-8.66-5z"/></g></g><g fill="#999"><path d="m4.699 10.65v1.267l-1.464-.8453v5.351l4.573 2.64v-5.351l-1.464-.8453v-1.267l-1.645-.9495z"/><path d="m11.74 14.72v1.267l-1.464-.8453v5.351l4.573 2.64v-5.351l-1.464-.8453v-1.267l-1.645-.9495z"/><path d="m18.78 18.78v1.267l-1.464-.8453v5.351l4.573 2.64v-5.351l-1.464-.8453v-1.267l-1.645-.9495z"/><path d="m25.82 22.84v1.267l-1.464-.8453v5.351l4.573 2.64v-5.351l-1.464-.8453v-1.267l-1.645-.9495z"/><path d="m32.85 26.91v1.267l-1.464-.8453v5.351l4.573 2.64v-5.351l-1.464-.8453v-1.267l-1.645-.9495z"/><path d="m39.89 30.97v1.267l-1.464-.8453v5.351l4.573 2.64v-5.351l-1.464-.8453v-1.267l-1.645-.9495z"/><path d="m46.93 35.04v1.267l-1.464-.8453v5.351l4.573 2.64v-5.351l-1.464-.8453v-1.267l-1.645-.9495z"/><path d="m53.97 39.1v1.267l-1.464-.8453v5.351l4.573 2.64v-5.351l-1.464-.8453v-1.267l-1.645-.9495z"/><path d="m61.01 43.16v1.267l-1.464-.8453v5.351l4.573 2.64v-5.351l-1.464-.8453v-1.267l-1.645-.9495z"/><path d="m68.05 47.23v1.267l-1.464-.8453v5.351l4.573 2.64v-5.351l-1.464-.8453v-1.267l-1.645-.9495z"/><path d="m75.09 51.29v1.267l-1.464-.8453v5.351l4.573 2.64v-5.351l-1.464-.8453v-1.267l-1.645-.9495z"/><path d="m82.13 55.36v1.267l-1.464-.8453v5.351l4.573 2.64v-5.351l-1.464-.8453v-1.267l-1.645-.9495z"/><path d="m89.17 59.42v1.267l-1.464-.8453v5.351l4.573 2.64v-5.351l-1.464-.8453v-1.267l-1.645-.9495z"/><path d="m96.21 63.49v1.267l-1.464-.8453v5.351l4.573 2.64v-5.351l-1.464-.8453v-1.267l-1.645-.9495z"/><path d="m103.2 67.55v1.267l-1.464-.8453v5.351l4.573 2.64v-5.351l-1.464-.8453v-1.267l-1.645-.9495z"/><path d="m110.3 71.61v1.267l-1.464-.8453v5.351l4.573 2.64v-5.351l-1.464-.8453v-1.267l-1.645-.9495z"/><path d="m117.3 75.68v1.267l-1.464-.8453v5.351l4.573 2.64v-5.351l-1.464-.8453v-1.267l-1.645-.9495z"/><path d="m124.4 79.74v1.267l-1.464-.8453v5.351l4.573 2.64v-5.351l-1.464-.8453v-1.267l-1.645-.9495z"/><path d="m131.4 83.81v1.267l-1.464-.8453v5.351l4.573 2.64v-5.351l-1.464-.8453v-1.267l-1.645-.9495z"/><path d="m138.4 87.87v1.267l-1.464-.8453v5.351l4.573 2.64v-5.351l-1.464-.8453v-1.267l-1.645-.9495z"/><path d="m152.5 96v1.267l-1.464-.8453v5.351l4.573 2.64v-5.351l-1.464-.8453v-1.267l-1.645-.9495z"/><path d="m159.6 100.1v1.267l-1.464-.8453v5.351l4.573 2.64v-5.351l-1.464-.8453v-1.267l-1.645-.9495z"/><path d="m145.5 91.93v1.267l-1.464-.8453v5.351l4.573 2.64v-5.351l-1.464-.8453v-1.267l-1.645-.9495z"/><path d="m166.6 104.1v1.267l-1.464-.8453v5.351l4.573 2.64v-5.351l-1.464-.8453v-1.267l-1.645-.9495z"/></g></g>
</svg>
